<svg width="288" height="190" viewBox="0 0 288 190" fill="none" xmlns="http://www.w3.org/2000/svg">
<path d="M166.016 89.498H162.166V109.635H166.016V89.498Z" fill="#2C3B29"/>
<path d="M133.59 109.634V81.0088H143.412C152.345 81.0088 157.132 87.326 157.132 95.3211C157.132 103.465 152.147 109.634 143.362 109.634H133.59V109.634ZM142.671 106.229C149.581 106.229 153.282 102.626 153.282 95.3211C153.282 87.8689 149.334 84.4139 142.819 84.4139H137.439V106.228H142.671V106.229Z" fill="#2C3B29"/>
<path d="M161.629 82.7853C161.629 81.4037 162.715 80.3174 164.097 80.3174C165.478 80.3174 166.565 81.4034 166.565 82.7853C166.565 84.1673 165.479 85.2533 164.097 85.2533C162.715 85.253 161.629 84.1177 161.629 82.7853Z" fill="#2C3B29"/>
<path d="M126.93 89.498H123.08V109.635H126.93V89.498Z" fill="#2C3B29"/>
<path d="M94.3574 109.634V81.0088H104.179C113.112 81.0088 117.899 87.326 117.899 95.3211C117.899 103.465 112.915 109.634 104.13 109.634H94.3574V109.634ZM103.439 106.229C110.348 106.229 114.049 102.626 114.049 95.3211C114.049 87.8689 110.101 84.4139 103.586 84.4139H98.207V106.228H103.439V106.229Z" fill="#2C3B29"/>
<path d="M122.539 82.7853C122.539 81.4037 123.625 80.3174 125.007 80.3174C126.389 80.3174 127.475 81.4034 127.475 82.7853C127.475 84.1673 126.389 85.2533 125.007 85.2533C123.674 85.253 122.539 84.1177 122.539 82.7853Z" fill="#2C3B29"/>
<path d="M203.974 88.9043C197.508 88.9043 193.955 92.6056 193.955 99.2686C193.955 105.98 197.508 109.633 203.974 109.633C210.439 109.633 213.993 105.931 213.993 99.2686C213.943 92.5564 210.39 88.9043 203.974 88.9043ZM203.974 107.264C198.841 107.264 196.324 104.648 196.324 99.2191C196.324 93.7901 198.841 91.1742 203.974 91.1742C209.107 91.1742 211.624 93.7901 211.624 99.2191C211.624 104.648 209.106 107.264 203.974 107.264Z" fill="#2C3B29"/>
<path d="M225.986 88.9043C219.52 88.9043 215.967 92.6056 215.967 99.2686C215.967 105.98 219.52 109.633 225.986 109.633C232.451 109.633 236.004 105.931 236.004 99.2686C235.955 92.5564 232.401 88.9043 225.986 88.9043ZM225.986 107.264C220.853 107.264 218.336 104.648 218.336 99.2191C218.336 93.7901 220.853 91.1742 225.986 91.1742C231.118 91.1742 233.635 93.7901 233.635 99.2191C233.635 104.648 231.118 107.264 225.986 107.264Z" fill="#2C3B29"/>
<path d="M179.444 82.636H194.447V80.415H177.025V109.632H179.444V96.6524H191.881V94.3819H179.444V82.636Z" fill="#2C3B29"/>
<path d="M254.854 80.8107V91.8169C253.225 89.8921 250.758 88.8556 247.5 88.8556C241.331 88.8556 237.926 92.5572 237.926 99.2694C237.926 105.981 241.331 109.683 247.5 109.683C250.708 109.683 253.176 108.646 254.805 106.771L255.002 109.337H257.124V80.3174L254.854 80.8107ZM247.55 107.264C242.713 107.264 240.344 104.649 240.344 99.2196C240.344 93.7906 242.713 91.1747 247.55 91.1747C252.386 91.1747 254.755 93.7906 254.755 99.2196C254.755 104.649 252.386 107.264 247.55 107.264Z" fill="#2C3B29"/>
<path d="M56.0585 106.721C64.8926 106.425 71.9505 99.4169 72.0489 90.6323V83.1306H81.7716V91.4714C81.5741 104.994 69.8279 115.704 56.0582 116C42.0421 115.901 30.1975 105.142 30 91.4714V76.5172C30 74.987 30.987 74 32.4677 74H71.9997V83.1306H41.0059C40.216 83.1306 39.7227 83.6243 39.7227 84.4135V90.4841C39.8214 99.368 46.9777 106.623 56.0585 106.721Z" fill="#2C3B29"/>
</svg>
