<svg width="288" height="190" viewBox="0 0 288 190" fill="none" xmlns="http://www.w3.org/2000/svg">
<path d="M93.1982 88.9584V101.294H96.2799C97.0663 101.283 97.8425 101.114 98.5623 100.797C99.2822 100.481 99.9312 100.024 100.471 99.4529C101.579 98.2822 102.185 96.7262 102.16 95.1161C102.184 94.3164 102.049 93.5199 101.763 92.7724C101.477 92.0249 101.046 91.3412 100.495 90.7605C99.9525 90.1887 99.299 89.7337 98.5742 89.4235C97.8493 89.1133 97.0685 88.9545 96.2799 88.9568H93.1998L93.1982 88.9584ZM96.2799 85.0906C102.024 85.0906 106.369 89.5324 106.369 95.1161C106.369 100.7 102.024 105.167 96.2799 105.167H89.4833C89.4185 105.166 89.3545 105.152 89.2949 105.127C89.2354 105.101 89.1815 105.064 89.1362 105.018C89.091 104.972 89.0553 104.917 89.0313 104.857C89.0073 104.797 88.9953 104.733 88.9961 104.668V85.6097C88.9961 85.3337 89.2146 85.1094 89.4833 85.1094L96.2799 85.0906ZM121.173 101.724C123.782 101.732 126.138 100.13 127.142 97.6664C127.634 96.4625 127.765 95.142 127.52 93.8651C127.275 92.5881 126.665 91.4094 125.762 90.4719C124.875 89.5498 123.729 88.9179 122.475 88.6597C121.221 88.4015 119.918 88.5292 118.738 89.0258C116.327 90.0422 114.752 92.4466 114.748 95.1161C114.748 98.7549 117.62 101.707 121.175 101.724H121.173ZM121.175 84.6357C127.22 84.6357 131.842 89.3913 131.842 95.1161C131.842 100.841 127.22 105.596 121.173 105.596C115.128 105.596 110.546 100.864 110.546 95.1161C110.546 89.3677 115.167 84.6357 121.173 84.6357H121.175ZM146.527 101.724C150.084 101.715 152.961 98.7596 152.958 95.1208C152.953 91.4789 150.069 88.5302 146.515 88.5286C142.957 88.5286 140.072 91.4757 140.067 95.1161C140.067 96.8696 140.748 98.551 141.959 99.7901C142.552 100.401 143.262 100.886 144.046 101.219C144.831 101.551 145.674 101.723 146.526 101.724H146.527ZM146.526 84.6357C152.552 84.6357 157.174 89.3677 157.174 95.1161C157.174 100.864 152.534 105.596 146.526 105.596C140.52 105.596 135.859 100.864 135.859 95.1161C135.859 89.3677 140.48 84.6357 146.526 84.6357ZM171.27 88.9584H166.925V94.2676H171.27C171.613 94.2828 171.956 94.2275 172.277 94.1053C172.598 93.9831 172.891 93.7965 173.137 93.5571C173.64 93.0708 173.926 92.3964 173.932 91.6875C173.945 91.3278 173.885 90.9693 173.755 90.6335C173.625 90.2976 173.429 89.9914 173.178 89.7332C172.931 89.4791 172.634 89.2793 172.306 89.1466C171.977 89.014 171.624 88.9515 171.27 88.9631V88.9584ZM162.721 85.6097C162.721 85.3337 162.941 85.1094 163.21 85.1094H171.391C175.291 85.1094 178.114 88.0346 178.114 91.7079C178.144 94.1923 176.784 96.4744 174.614 97.5864L178.387 104.414C178.439 104.492 178.469 104.584 178.472 104.678C178.475 104.772 178.453 104.865 178.406 104.947C178.361 105.028 178.293 105.094 178.211 105.137C178.129 105.18 178.036 105.199 177.944 105.192H174.633C174.541 105.193 174.451 105.168 174.372 105.121C174.294 105.073 174.231 105.004 174.19 104.922L170.554 98.1652H166.909V104.652C166.91 104.717 166.899 104.781 166.875 104.842C166.851 104.902 166.815 104.957 166.77 105.003C166.724 105.05 166.67 105.087 166.611 105.113C166.551 105.138 166.487 105.152 166.422 105.153H163.232C163.167 105.152 163.103 105.138 163.043 105.113C162.984 105.087 162.93 105.05 162.884 105.003C162.839 104.957 162.804 104.902 162.78 104.842C162.756 104.781 162.744 104.717 162.745 104.652L162.723 85.6113L162.721 85.6097ZM189.07 89.0525V101.39H192.15C192.936 101.379 193.713 101.211 194.433 100.896C195.153 100.581 195.802 100.125 196.343 99.5548C197.451 98.3856 198.058 96.8307 198.035 95.2212C198.06 94.4205 197.927 93.6227 197.641 92.8738C197.356 92.125 196.926 91.4398 196.374 90.8578C195.831 90.285 195.176 89.8294 194.45 89.5192C193.724 89.2089 192.942 89.0506 192.152 89.0541L189.07 89.0525ZM192.15 85.18C197.894 85.18 202.239 89.6265 202.239 95.2212C202.239 100.816 197.894 105.262 192.15 105.262H185.374C185.309 105.262 185.245 105.248 185.185 105.222C185.126 105.197 185.072 105.16 185.026 105.113C184.981 105.067 184.945 105.012 184.921 104.951C184.898 104.891 184.886 104.827 184.887 104.762V85.7054C184.887 85.4278 185.105 85.2035 185.374 85.2035L192.152 85.18H192.15ZM215.056 90.0861L212.672 96.683H217.435L215.056 90.0861ZM211.273 100.411L209.713 104.803C209.681 104.906 209.617 104.996 209.528 105.059C209.44 105.121 209.334 105.153 209.226 105.148H205.841C205.754 105.156 205.668 105.141 205.589 105.104C205.511 105.067 205.444 105.009 205.396 104.938C205.346 104.865 205.317 104.781 205.309 104.694C205.302 104.607 205.317 104.519 205.354 104.439L212.667 85.3996C212.701 85.2992 212.767 85.2126 212.855 85.1532C212.943 85.0937 213.048 85.0646 213.154 85.0702H216.941C217.048 85.0642 217.153 85.0932 217.241 85.1527C217.33 85.2122 217.396 85.2989 217.43 85.3996L224.744 104.439C224.78 104.519 224.795 104.607 224.787 104.694C224.78 104.781 224.75 104.865 224.7 104.938C224.651 105.009 224.584 105.066 224.506 105.103C224.428 105.139 224.341 105.155 224.255 105.146H220.872C220.764 105.151 220.657 105.12 220.569 105.057C220.481 104.995 220.416 104.905 220.385 104.801L218.824 100.41H211.273V100.411ZM228.668 90.5143C228.668 87.3617 231.33 84.6357 235.533 84.6357C237.797 84.5853 239.989 85.4304 241.631 86.9868C241.681 87.034 241.721 87.0909 241.748 87.154C241.775 87.2171 241.789 87.2851 241.789 87.3539C241.789 87.4226 241.775 87.4906 241.748 87.5537C241.721 87.6168 241.681 87.6737 241.631 87.7209L239.756 89.6265C239.711 89.6728 239.657 89.7096 239.598 89.7348C239.539 89.7599 239.475 89.7729 239.41 89.7729C239.346 89.7729 239.282 89.7599 239.222 89.7348C239.163 89.7096 239.109 89.6728 239.065 89.6265C238.182 88.8005 237.022 88.3324 235.812 88.3137C234.13 88.3137 232.887 89.3128 232.887 90.4657C232.887 94.1923 242.824 92.0419 242.824 99.2129C242.819 102.847 240.136 105.596 235.394 105.596C234.077 105.61 232.77 105.359 231.553 104.858C230.335 104.358 229.23 103.618 228.305 102.682C228.255 102.635 228.215 102.578 228.188 102.515C228.16 102.452 228.146 102.384 228.146 102.315C228.146 102.247 228.16 102.179 228.188 102.115C228.215 102.052 228.255 101.995 228.305 101.948L230.118 100.091C230.163 100.043 230.218 100.004 230.279 99.9774C230.34 99.951 230.405 99.9373 230.472 99.9373C230.538 99.9373 230.604 99.951 230.665 99.9774C230.726 100.004 230.78 100.043 230.825 100.091C231.967 101.22 233.504 101.862 235.111 101.879C237.212 101.879 238.596 100.731 238.596 99.2929C238.596 95.5647 228.665 97.7166 228.665 90.5441L228.668 90.5143ZM260.842 85.5846V93.1195H252.431V85.5846C252.432 85.52 252.42 85.4558 252.396 85.3957C252.372 85.3356 252.337 85.2809 252.291 85.2346C252.246 85.1882 252.192 85.1513 252.133 85.1258C252.073 85.1002 252.009 85.0867 251.944 85.0859H248.754C248.689 85.0867 248.625 85.1002 248.566 85.1258C248.506 85.1513 248.452 85.1882 248.407 85.2346C248.362 85.2809 248.326 85.3356 248.302 85.3957C248.278 85.4558 248.266 85.52 248.267 85.5846V104.621C248.267 104.897 248.487 105.121 248.754 105.121H251.944C252.211 105.121 252.431 104.897 252.431 104.621V96.9669H260.836V104.621C260.836 104.897 261.056 105.121 261.323 105.121H264.513C264.782 105.121 265 104.897 265 104.621V85.5846C265.001 85.52 264.989 85.4558 264.965 85.3957C264.941 85.3356 264.905 85.2809 264.86 85.2346C264.815 85.1882 264.761 85.1513 264.701 85.1258C264.642 85.1002 264.578 85.0867 264.513 85.0859H261.323C261.193 85.0892 261.07 85.1434 260.98 85.2367C260.89 85.3301 260.84 85.4551 260.842 85.5846ZM71.0893 87.6268C68.8767 83.5331 64.5473 80.9844 59.8392 81.0001H24.2173C23.9768 81.001 23.7418 81.0727 23.5417 81.206C23.3416 81.3393 23.1853 81.5284 23.0921 81.7498C23.0004 81.9697 22.9765 82.212 23.0235 82.4456C23.0705 82.6792 23.1864 82.8935 23.3562 83.061L31.116 90.7464C31.8012 91.4271 32.7346 91.8082 33.7058 91.8082H58.8178C60.6077 91.7894 62.0707 93.2042 62.0896 94.9655C62.1084 96.7269 60.6737 98.1699 58.8838 98.1871H41.571C41.3302 98.1872 41.0948 98.2581 40.8942 98.3908C40.6935 98.5236 40.5365 98.7124 40.4427 98.9337C40.35 99.1539 40.3255 99.3968 40.3723 99.631C40.419 99.8652 40.5349 100.08 40.7051 100.248L48.4697 107.94C49.1592 108.62 50.0899 109.001 51.0595 109H58.8901C69.0779 109 76.7812 98.2718 71.0893 87.6221" fill="#2C3B29"/>
</svg>
