<svg width="280" height="45" viewBox="0 0 280 45" fill="none" xmlns="http://www.w3.org/2000/svg">
<path d="M81.1879 15.222V29.5164H84.752C85.6616 29.5029 86.5592 29.3071 87.3918 28.9406C88.2244 28.5742 88.975 28.0444 89.5992 27.3827C90.8805 26.0262 91.5815 24.2231 91.553 22.3574C91.5802 21.4307 91.424 20.5077 91.0933 19.6416C90.7627 18.7754 90.2642 17.9832 89.6265 17.3103C88.9996 16.6477 88.2438 16.1204 87.4055 15.7609C86.5671 15.4015 85.6641 15.2174 84.752 15.2202H81.1897L81.1879 15.222ZM84.752 10.7401C91.3949 10.7401 96.4202 15.8872 96.4202 22.3574C96.4202 28.8276 91.3949 34.0038 84.752 34.0038H76.8914C76.8165 34.0028 76.7424 33.9871 76.6736 33.9576C76.6047 33.928 76.5423 33.8852 76.49 33.8315C76.4377 33.7778 76.3964 33.7144 76.3686 33.6448C76.3408 33.5752 76.327 33.5008 76.328 33.4258V11.3417C76.328 11.0218 76.5806 10.7619 76.8914 10.7619L84.752 10.7401ZM113.543 30.0144C116.56 30.0235 119.284 28.1679 120.445 25.3126C121.014 23.9176 121.166 22.3874 120.883 20.9077C120.6 19.428 119.894 18.0622 118.85 16.9758C117.824 15.9073 116.498 15.1751 115.048 14.8759C113.597 14.5767 112.09 14.7246 110.726 15.3001C107.938 16.4778 106.116 19.264 106.111 22.3574C106.111 26.5739 109.433 29.9944 113.544 30.0144H113.543ZM113.544 10.213C120.536 10.213 125.882 15.7236 125.882 22.3574C125.882 28.9912 120.536 34.5018 113.543 34.5018C106.551 34.5018 101.251 29.0185 101.251 22.3574C101.251 15.6963 106.596 10.213 113.543 10.213H113.544ZM142.866 30.0144C146.979 30.0035 150.307 26.5794 150.303 22.3628C150.298 18.1427 146.962 14.7258 142.851 14.724C138.737 14.724 135.4 18.139 135.394 22.3574C135.394 24.3893 136.181 26.3377 137.582 27.7735C138.268 28.4811 139.089 29.044 139.996 29.4289C140.903 29.8138 141.879 30.0129 142.864 30.0144H142.866ZM142.864 10.213C149.834 10.213 155.179 15.6963 155.179 22.3574C155.179 29.0185 149.812 34.5018 142.864 34.5018C135.918 34.5018 130.527 29.0185 130.527 22.3574C130.527 15.6963 135.872 10.213 142.864 10.213ZM171.482 15.222H166.457V21.3741H171.482C171.879 21.3917 172.276 21.3278 172.647 21.1862C173.018 21.0445 173.357 20.8283 173.641 20.5508C174.223 19.9874 174.554 19.2059 174.561 18.3844C174.576 17.9676 174.506 17.5522 174.356 17.163C174.206 16.7739 173.979 16.419 173.689 16.1198C173.403 15.8253 173.06 15.5938 172.68 15.4401C172.3 15.2864 171.892 15.214 171.482 15.2274V15.222ZM161.595 11.3417C161.595 11.0218 161.849 10.7619 162.16 10.7619H171.622C176.133 10.7619 179.397 14.1515 179.397 18.408C179.432 21.2869 177.86 23.9313 175.35 25.2199L179.713 33.1314C179.774 33.2223 179.808 33.3282 179.812 33.4373C179.816 33.5464 179.789 33.6544 179.735 33.7493C179.683 33.8428 179.604 33.9192 179.51 33.9695C179.415 34.0198 179.308 34.0418 179.201 34.0329H175.371C175.265 34.0344 175.161 34.0058 175.07 33.9505C174.979 33.8952 174.906 33.8154 174.859 33.7203L170.653 25.8906H166.439V33.4077C166.44 33.4828 166.426 33.5574 166.398 33.6272C166.371 33.697 166.33 33.7607 166.277 33.8145C166.225 33.8684 166.162 33.9114 166.093 33.9411C166.024 33.9707 165.95 33.9865 165.875 33.9874H162.186C162.111 33.9865 162.036 33.9707 161.967 33.9411C161.898 33.9114 161.836 33.8684 161.784 33.8145C161.731 33.7607 161.69 33.697 161.662 33.6272C161.635 33.5574 161.621 33.4828 161.622 33.4077L161.597 11.3435L161.595 11.3417ZM192.069 15.331V29.6273H195.631C196.54 29.615 197.438 29.4204 198.271 29.0552C199.104 28.69 199.855 28.1614 200.48 27.5009C201.762 26.146 202.464 24.3442 202.437 22.4792C202.466 21.5513 202.312 20.6269 201.982 19.7591C201.652 18.8913 201.154 18.0974 200.516 17.4229C199.888 16.7592 199.131 16.2313 198.291 15.8718C197.451 15.5123 196.546 15.3289 195.633 15.3328L192.069 15.331ZM195.631 10.8437C202.274 10.8437 207.299 15.9962 207.299 22.4792C207.299 28.9621 202.274 34.1147 195.631 34.1147H187.794C187.719 34.1137 187.645 34.098 187.576 34.0683C187.507 34.0386 187.444 33.9956 187.392 33.9417C187.34 33.8879 187.298 33.8242 187.271 33.7544C187.243 33.6846 187.229 33.61 187.231 33.5349V11.4525C187.231 11.1308 187.483 10.8709 187.794 10.8709L195.633 10.8437H195.631ZM222.122 16.5287L219.365 24.1731H224.874L222.122 16.5287ZM217.748 28.4932L215.943 33.5821C215.907 33.7019 215.832 33.8062 215.73 33.8786C215.628 33.951 215.505 33.9873 215.38 33.982H211.465C211.365 33.9913 211.265 33.9736 211.174 33.9307C211.084 33.8879 211.006 33.8215 210.95 33.7384C210.893 33.6545 210.859 33.5571 210.85 33.4559C210.841 33.3547 210.859 33.2529 210.901 33.1605L219.36 11.0981C219.399 10.9818 219.476 10.8815 219.577 10.8126C219.679 10.7437 219.801 10.7099 219.923 10.7164H224.303C224.426 10.7095 224.548 10.7431 224.65 10.812C224.752 10.881 224.829 10.9815 224.869 11.0981L233.327 33.1605C233.369 33.2531 233.387 33.3549 233.378 33.4561C233.369 33.5574 233.334 33.6546 233.276 33.7384C233.22 33.8211 233.143 33.8872 233.052 33.9297C232.962 33.9722 232.862 33.9897 232.762 33.9802H228.849C228.724 33.9855 228.601 33.9491 228.499 33.8767C228.397 33.8043 228.322 33.7001 228.286 33.5803L226.481 28.4914H217.748V28.4932ZM237.865 17.0249C237.865 13.3718 240.944 10.213 245.806 10.213C248.424 10.1545 250.959 11.1339 252.858 12.9374C252.916 12.9921 252.962 13.058 252.993 13.1312C253.025 13.2043 253.041 13.2831 253.041 13.3627C253.041 13.4423 253.025 13.5211 252.993 13.5942C252.962 13.6674 252.916 13.7333 252.858 13.788L250.69 15.9962C250.638 16.0499 250.576 16.0925 250.507 16.1217C250.438 16.1508 250.364 16.1658 250.29 16.1658C250.215 16.1658 250.141 16.1508 250.073 16.1217C250.004 16.0925 249.942 16.0499 249.89 15.9962C248.869 15.039 247.527 14.4966 246.128 14.475C244.183 14.475 242.745 15.6327 242.745 16.9686C242.745 21.2869 254.237 18.7951 254.237 27.1046C254.232 31.3157 251.129 34.5018 245.644 34.5018C244.121 34.5174 242.61 34.2265 241.202 33.6463C239.793 33.0662 238.516 32.2087 237.446 31.1249C237.388 31.0702 237.342 31.0043 237.31 30.9312C237.279 30.858 237.262 30.7792 237.262 30.6996C237.262 30.62 237.279 30.5412 237.31 30.4681C237.342 30.395 237.388 30.329 237.446 30.2743L239.543 28.1224C239.595 28.0662 239.659 28.0213 239.729 27.9906C239.799 27.9599 239.875 27.9441 239.952 27.9441C240.029 27.9441 240.105 27.9599 240.175 27.9906C240.245 28.0213 240.309 28.0662 240.361 28.1224C241.681 29.4309 243.459 30.174 245.317 30.1944C247.747 30.1944 249.348 28.864 249.348 27.1973C249.348 22.8772 237.862 25.3708 237.862 17.0594L237.865 17.0249ZM275.077 11.3126V20.0437H265.349V11.3126C265.35 11.2376 265.337 11.1632 265.309 11.0936C265.281 11.024 265.24 10.9606 265.187 10.9069C265.135 10.8532 265.073 10.8104 265.004 10.7808C264.935 10.7513 264.861 10.7356 264.786 10.7346H261.096C261.022 10.7356 260.948 10.7513 260.879 10.7808C260.81 10.8104 260.747 10.8532 260.695 10.9069C260.643 10.9606 260.602 11.024 260.574 11.0936C260.546 11.1632 260.532 11.2376 260.533 11.3126V33.3713C260.533 33.6912 260.788 33.9511 261.096 33.9511H264.786C265.095 33.9511 265.349 33.6912 265.349 33.3713V24.502H275.069V33.3713C275.069 33.6912 275.324 33.9511 275.633 33.9511H279.322C279.633 33.9511 279.886 33.6912 279.886 33.3713V11.3126C279.887 11.2376 279.873 11.1632 279.845 11.0936C279.817 11.024 279.776 10.9606 279.724 10.9069C279.671 10.8532 279.609 10.8104 279.54 10.7808C279.471 10.7513 279.397 10.7356 279.322 10.7346H275.633C275.483 10.7384 275.34 10.8012 275.236 10.9094C275.132 11.0176 275.075 11.1624 275.077 11.3126ZM55.6178 13.6789C53.0588 8.93531 48.0517 5.98191 42.6065 6.00008H1.40789C1.12967 6.00121 0.857924 6.08419 0.626524 6.23867C0.395124 6.39315 0.214298 6.61231 0.106576 6.86884C0.000429076 7.12372 -0.0272163 7.40449 0.0271809 7.67518C0.0815781 7.94587 0.215541 8.19416 0.411913 8.38825L9.38662 17.2939C10.179 18.0827 11.2586 18.5243 12.3818 18.5243H41.4251C43.4952 18.5025 45.1873 20.1419 45.2091 22.1829C45.2309 24.2239 43.5716 25.896 41.5015 25.916H21.4783C21.1999 25.9161 20.9276 25.9982 20.6956 26.1521C20.4635 26.3059 20.2819 26.5247 20.1734 26.7811C20.0662 27.0363 20.0378 27.3177 20.0919 27.5891C20.146 27.8606 20.2801 28.1096 20.4769 28.3042L29.457 37.2171C30.2544 38.0055 31.3309 38.4471 32.4522 38.4457H41.5087C53.2914 38.4457 62.2007 26.0142 55.6178 13.6735" fill="#2C3B29"/>
</svg>
