<svg width="281" height="34" viewBox="0 0 281 34" fill="none" xmlns="http://www.w3.org/2000/svg">
<path d="M81.6801 9.99931V24.2938H85.2442C86.1538 24.2803 87.0514 24.0845 87.884 23.718C88.7165 23.3515 89.4672 22.8217 90.0914 22.1601C91.3727 20.8036 92.0737 19.0005 92.0452 17.1347C92.0724 16.208 91.9161 15.2851 91.5855 14.4189C91.2549 13.5528 90.7564 12.7605 90.1187 12.0876C89.4918 11.425 88.736 10.8977 87.8976 10.5383C87.0593 10.1788 86.1563 9.99479 85.2442 9.9975H81.6819L81.6801 9.99931ZM85.2442 5.51741C91.8871 5.51741 96.9124 10.6645 96.9124 17.1347C96.9124 23.605 91.8871 28.7811 85.2442 28.7811H77.3836C77.3087 28.7802 77.2346 28.7645 77.1657 28.7349C77.0969 28.7054 77.0345 28.6625 76.9822 28.6089C76.9299 28.5552 76.8886 28.4917 76.8608 28.4221C76.833 28.3525 76.8192 28.2781 76.8202 28.2032V6.119C76.8202 5.79912 77.0728 5.53922 77.3836 5.53922L85.2442 5.51741ZM114.035 24.7918C117.052 24.8009 119.776 22.9452 120.938 20.09C121.507 18.6949 121.659 17.1648 121.375 15.6851C121.092 14.2053 120.386 12.8395 119.342 11.7532C118.316 10.6847 116.991 9.95245 115.54 9.65326C114.09 9.35407 112.582 9.50198 111.218 10.0775C108.43 11.2552 106.609 14.0414 106.603 17.1347C106.603 21.3513 109.926 24.7718 114.037 24.7918H114.035ZM114.037 4.99034C121.029 4.99034 126.374 10.5009 126.374 17.1347C126.374 23.7685 121.029 29.2791 114.035 29.2791C107.043 29.2791 101.743 23.7958 101.743 17.1347C101.743 10.4737 107.088 4.99034 114.035 4.99034H114.037ZM143.358 24.7918C147.471 24.7809 150.799 21.3567 150.795 17.1402C150.79 12.92 147.455 9.50314 143.344 9.50133C139.229 9.50133 135.892 12.9164 135.886 17.1347C135.886 19.1667 136.673 21.115 138.075 22.5508C138.761 23.2584 139.581 23.8213 140.488 24.2062C141.396 24.5911 142.371 24.7902 143.356 24.7918H143.358ZM143.356 4.99034C150.326 4.99034 155.671 10.4737 155.671 17.1347C155.671 23.7958 150.304 29.2791 143.356 29.2791C136.41 29.2791 131.019 23.7958 131.019 17.1347C131.019 10.4737 136.364 4.99034 143.356 4.99034ZM171.974 9.99931H166.949V16.1515H171.974C172.371 16.1691 172.768 16.1051 173.139 15.9635C173.511 15.8219 173.849 15.6057 174.133 15.3282C174.715 14.7647 175.046 13.9832 175.053 13.1617C175.068 12.745 174.998 12.3295 174.848 11.9404C174.698 11.5512 174.471 11.1964 174.181 10.8971C173.896 10.6027 173.552 10.3711 173.172 10.2174C172.792 10.0638 172.384 9.99131 171.974 10.0048V9.99931ZM162.087 6.119C162.087 5.79912 162.342 5.53922 162.652 5.53922H172.114C176.625 5.53922 179.889 8.92882 179.889 13.1854C179.924 16.0642 178.352 18.7087 175.842 19.9973L180.206 27.9088C180.266 27.9997 180.3 28.1056 180.304 28.2146C180.308 28.3237 180.281 28.4317 180.227 28.5267C180.175 28.6202 180.097 28.6966 180.002 28.7468C179.907 28.7971 179.8 28.8191 179.693 28.8102H175.864C175.757 28.8117 175.653 28.7832 175.562 28.7279C175.472 28.6726 175.398 28.5927 175.351 28.4976L171.146 20.6679H166.931V28.185C166.932 28.2601 166.918 28.3347 166.891 28.4045C166.863 28.4743 166.822 28.538 166.769 28.5919C166.717 28.6457 166.655 28.6887 166.586 28.7184C166.517 28.7481 166.442 28.7638 166.367 28.7648H162.678C162.603 28.7638 162.529 28.7481 162.46 28.7184C162.391 28.6887 162.328 28.6457 162.276 28.5919C162.223 28.538 162.182 28.4743 162.155 28.4045C162.127 28.3347 162.113 28.2601 162.114 28.185L162.089 6.12081L162.087 6.119ZM192.561 10.1084V24.4047H196.123C197.032 24.3923 197.93 24.1978 198.763 23.8325C199.596 23.4673 200.347 22.9388 200.972 22.2782C202.254 20.9233 202.956 19.1215 202.93 17.2565C202.959 16.3287 202.804 15.4042 202.474 14.5365C202.144 13.6687 201.646 12.8747 201.008 12.2003C200.381 11.5366 199.623 11.0087 198.783 10.6492C197.943 10.2897 197.039 10.1062 196.125 10.1102L192.561 10.1084ZM196.123 5.62101C202.766 5.62101 207.791 10.7736 207.791 17.2565C207.791 23.7395 202.766 28.892 196.123 28.892H188.286C188.211 28.8911 188.137 28.8753 188.068 28.8456C187.999 28.816 187.936 28.7729 187.884 28.7191C187.832 28.6652 187.791 28.6016 187.763 28.5317C187.735 28.4619 187.722 28.3873 187.723 28.3122V6.22986C187.723 5.90817 187.975 5.64827 188.286 5.64827L196.125 5.62101H196.123ZM222.615 11.3061L219.858 18.9504H225.366L222.615 11.3061ZM218.24 23.2705L216.435 28.3595C216.399 28.4792 216.324 28.5835 216.222 28.6559C216.12 28.7283 215.997 28.7647 215.872 28.7593H211.957C211.857 28.7686 211.757 28.7509 211.666 28.7081C211.576 28.6652 211.499 28.5988 211.443 28.5158C211.385 28.4318 211.351 28.3345 211.342 28.2332C211.334 28.132 211.351 28.0303 211.394 27.9378L219.852 5.87546C219.892 5.75911 219.968 5.65885 220.07 5.58995C220.171 5.52104 220.293 5.48728 220.416 5.49378H224.796C224.919 5.48687 225.041 5.52045 225.143 5.58938C225.245 5.65831 225.321 5.7588 225.361 5.87546L233.819 27.9378C233.861 28.0304 233.879 28.1322 233.87 28.2335C233.861 28.3347 233.826 28.432 233.769 28.5158C233.712 28.5985 233.635 28.6645 233.544 28.707C233.454 28.7496 233.354 28.767 233.254 28.7575H229.341C229.216 28.7629 229.093 28.7265 228.991 28.6541C228.889 28.5817 228.814 28.4774 228.778 28.3577L226.973 23.2687H218.24V23.2705ZM238.358 11.8023C238.358 8.14912 241.436 4.99034 246.298 4.99034C248.916 4.93188 251.451 5.91124 253.35 7.71474C253.408 7.76944 253.454 7.83537 253.486 7.9085C253.517 7.98162 253.533 8.06041 253.533 8.14003C253.533 8.21966 253.517 8.29844 253.486 8.37157C253.454 8.4447 253.408 8.51063 253.35 8.56532L251.182 10.7736C251.13 10.8272 251.068 10.8699 250.999 10.899C250.93 10.9281 250.857 10.9432 250.782 10.9432C250.707 10.9432 250.633 10.9281 250.565 10.899C250.496 10.8699 250.434 10.8272 250.382 10.7736C249.361 9.81633 248.019 9.27398 246.62 9.25233C244.675 9.25233 243.238 10.4101 243.238 11.7459C243.238 16.0642 254.73 13.5725 254.73 21.882C254.724 26.0931 251.622 29.2791 246.136 29.2791C244.613 29.2947 243.103 29.0038 241.694 28.4237C240.286 27.8436 239.008 26.9861 237.938 25.9023C237.88 25.8476 237.834 25.7816 237.802 25.7085C237.771 25.6354 237.755 25.5566 237.755 25.477C237.755 25.3973 237.771 25.3186 237.802 25.2454C237.834 25.1723 237.88 25.1064 237.938 25.0517L240.035 22.8998C240.087 22.8435 240.151 22.7986 240.221 22.7679C240.291 22.7373 240.367 22.7214 240.444 22.7214C240.521 22.7214 240.597 22.7373 240.667 22.7679C240.738 22.7986 240.801 22.8435 240.853 22.8998C242.173 24.2082 243.951 24.9513 245.809 24.9717C248.239 24.9717 249.841 23.6413 249.841 21.9747C249.841 17.6545 238.354 20.1481 238.354 11.8368L238.358 11.8023ZM275.569 6.08992V14.8211H265.842V6.08992C265.843 6.01497 265.829 5.94057 265.801 5.87096C265.773 5.80136 265.732 5.73791 265.68 5.68424C265.627 5.63057 265.565 5.58773 265.496 5.55817C265.427 5.52861 265.353 5.51291 265.278 5.51196H261.589C261.514 5.51291 261.44 5.52861 261.371 5.55817C261.302 5.58773 261.24 5.63057 261.187 5.68424C261.135 5.73791 261.094 5.80136 261.066 5.87096C261.038 5.94057 261.024 6.01497 261.025 6.08992V28.1487C261.025 28.4685 261.28 28.7284 261.589 28.7284H265.278C265.587 28.7284 265.842 28.4685 265.842 28.1487V19.2794H275.561V28.1487C275.561 28.4685 275.816 28.7284 276.125 28.7284H279.814C280.125 28.7284 280.378 28.4685 280.378 28.1487V6.08992C280.379 6.01497 280.365 5.94057 280.337 5.87096C280.309 5.80136 280.268 5.73791 280.216 5.68424C280.163 5.63057 280.101 5.58773 280.032 5.55817C279.963 5.52861 279.889 5.51291 279.814 5.51196H276.125C275.975 5.51577 275.832 5.57858 275.728 5.68676C275.624 5.79494 275.567 5.93979 275.569 6.08992ZM56.11 8.45627C53.551 3.71265 48.5438 0.759252 43.0987 0.777427H1.90008C1.62185 0.778557 1.35011 0.861532 1.11871 1.01601C0.887312 1.1705 0.706485 1.38965 0.598764 1.64618C0.492617 1.90107 0.464971 2.18183 0.519368 2.45252C0.573766 2.72321 0.707729 2.9715 0.9041 3.16559L9.87881 12.0712C10.6712 12.86 11.7508 13.3017 12.874 13.3017H41.9173C43.9874 13.2799 45.6795 14.9192 45.7013 16.9603C45.7231 19.0013 44.0638 20.6734 41.9937 20.6934H21.9705C21.6921 20.6935 21.4198 20.7756 21.1878 20.9294C20.9557 21.0833 20.7741 21.3021 20.6655 21.5585C20.5584 21.8137 20.53 22.0951 20.5841 22.3665C20.6382 22.6379 20.7723 22.8869 20.9691 23.0815L29.9492 31.9944C30.7466 32.7828 31.8231 33.2244 32.9444 33.2231H42.0009C53.7836 33.2231 62.6929 20.7915 56.11 8.45082" fill="white"/>
</svg>
