<svg width="24" height="24" viewBox="0 0 24 24" fill="none" xmlns="http://www.w3.org/2000/svg">
<path d="M22 7.13965V17.1396C22 17.8027 21.7366 18.4386 21.2678 18.9074C20.7989 19.3763 20.163 19.6396 19.5 19.6396H4.5C3.83696 19.6396 3.20107 19.3763 2.73223 18.9074C2.26339 18.4386 2 17.8027 2 17.1396V7.13965" stroke="#58B749" stroke-width="2" stroke-linecap="round" stroke-linejoin="round"/>
<path d="M22 7.13965C22 6.47661 21.7366 5.84072 21.2678 5.37188C20.7989 4.90304 20.163 4.63965 19.5 4.63965H4.5C3.83696 4.63965 3.20107 4.90304 2.73223 5.37188C2.26339 5.84072 2 6.47661 2 7.13965L10.675 12.5563C11.0723 12.8046 11.5314 12.9363 12 12.9363C12.4686 12.9363 12.9277 12.8046 13.325 12.5563L22 7.13965Z" stroke="#58B749" stroke-width="2" stroke-linecap="round" stroke-linejoin="round"/>
</svg>
