<svg width="288" height="190" viewBox="0 0 288 190" fill="none" xmlns="http://www.w3.org/2000/svg">
<path fill-rule="evenodd" clip-rule="evenodd" d="M217.588 71.9842H216.53C215.104 71.9874 213.023 72.0838 211.467 72.8751C209.923 73.6564 209.174 75.0148 209.179 77.0209L209.186 78.8794L216.094 78.8608L215.516 83.7991L209.197 83.8178L209.251 103.361C209.27 110.334 205.1 115.339 203.305 117.166L202.128 118.361L202.058 118.266C200.165 119.772 196.02 122.426 190.317 122.442C186.986 122.442 183.623 121.554 179.726 120.523C174.488 119.14 168.552 117.568 160.811 117.568H160.633C159.167 117.578 157.702 117.634 156.24 117.743L156.464 120.577L150.266 115.466L155.615 109.835L155.832 112.586C157.474 112.471 159.12 112.408 160.766 112.397H160.975C171.001 112.397 177.662 114.34 182.527 115.759C185.561 116.646 187.942 117.344 190.154 117.344C195.695 117.328 199.777 113.726 199.948 113.574C203.614 109.408 204.211 106.342 204.192 100.654L204.146 83.8304L195.647 83.8554L195.695 101.749C195.705 104.845 193.176 107.138 191.36 107.417L190.318 107.584L188.357 103.705L189.343 102.98C190.626 102.031 190.65 102.013 190.642 99.0408L190.597 83.8655L184.812 83.8811L185.388 78.9454L190.586 78.9297L190.58 77.0245C190.57 73.5277 191.583 71.0339 193.68 69.3983C195.7 67.8219 198.786 67.0495 203.116 67.0382L205.116 67.0319L203.503 72.0282H202.443C201.07 72.0314 199.077 72.1278 197.662 72.9191C196.286 73.6903 195.62 75.0436 195.627 77.0623L195.634 78.9185L204.134 78.8966L204.128 76.9889C204.109 70.013 208.021 67.0277 217.203 67H219.201L217.588 71.9842ZM183.457 107.453H182.488C181.163 107.453 179.819 106.268 178.965 104.855C176.2 107.021 172.507 107.383 170.406 107.389L170.028 107.392C166.75 107.392 158.033 107.389 158.004 96.4982L157.956 78.9148L163.151 78.9023L163.199 96.5802C163.212 99.3159 164.07 102.111 170.385 102.111C175.335 102.098 177.61 100.097 177.597 95.809L177.553 78.862L182.746 78.8494L182.802 99.1043C182.809 101.71 183.269 102.231 184.226 103.072L185.005 103.758L183.457 107.453ZM144.48 91.2272L134.725 91.2522L134.75 101.711C134.762 104.827 131.715 107.404 131.37 107.688L129.847 108.925L127.75 103.833L128.599 103.156C128.618 103.138 129.556 102.321 129.553 101.335L129.465 69.0303L144.453 68.9888C152.415 68.9888 156.459 72.7515 156.476 80.1697C156.495 87.2804 152.235 91.2056 144.479 91.2258L144.48 91.2272ZM145.923 74.2159V73.2783L145.897 74.2159L134.675 74.2471L134.709 86.0756L144.421 86.0476C146.794 86.0413 148.572 85.5586 149.708 84.6098C150.809 83.6912 151.341 82.3252 151.335 80.4288C151.322 76.4229 149.401 74.2165 145.924 74.2165L145.923 74.2159ZM113.318 107.688L112.496 107.689C108.847 107.69 105.342 106.26 102.738 103.707C100.122 101.113 98.6803 97.6436 98.6677 93.9351L98.6652 92.7216C98.6526 89.0131 100.076 85.5378 102.67 82.9382C105.321 80.3348 108.793 78.8996 112.458 78.8895L113.24 78.887C116.981 78.887 120.45 80.3059 123.047 82.8815C125.669 85.4554 127.149 88.9708 127.156 92.6422L127.163 93.8557C127.169 97.5364 125.73 101.009 123.109 103.642C120.514 106.24 117.038 107.676 113.319 107.688H113.318ZM121.961 92.6549C121.949 87.922 118.052 84.0698 113.277 84.0698V83.1273L113.252 84.0698L112.471 84.0711C107.71 84.0836 103.848 87.9572 103.862 92.7078L103.868 93.9187C103.881 98.6567 107.75 102.508 112.496 102.508H113.308C115.609 102.508 117.815 101.592 119.437 99.9634C121.065 98.3536 121.976 96.1582 121.966 93.8708L121.961 92.6549ZM95.2421 88.0064L95.2913 106.038C95.3039 110.163 93.8209 113.493 91.0049 115.668C88.7027 117.449 85.5043 118.433 82.003 118.443H81.9463C77.3671 118.443 72.9393 116.892 70.9287 114.583L69.953 113.467L73.6714 110.391L74.5991 111.151C76.3952 112.619 78.9095 113.462 81.5008 113.462C85.7442 113.449 90.2578 111.127 90.2452 106.052L90.2389 105.139C88.5589 106.39 86.0862 107.465 82.5345 107.476C73.939 107.476 69.0316 102.797 69.0064 94.6407L69.0001 91.4364C68.9748 82.9358 75.8525 79.0432 82.2517 79.0243C85.7328 79.0243 88.7823 80.0614 90.8952 81.9125C91.6765 80.2706 93.051 78.6955 94.842 78.2356L96.3781 77.8386L97.1998 82.8173L96.4841 83.3453C95.5122 84.0547 95.2345 85.1006 95.2408 88.0064H95.2421ZM90.105 91.5196C90.0956 87.5087 86.812 84.2437 82.7882 84.2437V83.305L82.7661 84.2437L81.7412 84.2468C77.5899 84.2562 74.0861 87.6075 74.0987 91.5642L74.1081 95.0623C74.1207 98.9824 77.6296 102.294 81.7708 102.294L82.8121 102.291C84.7609 102.294 86.6296 101.517 88.001 100.135C89.3617 98.7814 90.1227 96.9401 90.1138 95.0226L90.105 91.5196Z" fill="#2C3B29"/>
</svg>
