<svg width="288" height="190" viewBox="0 0 288 190" fill="none" xmlns="http://www.w3.org/2000/svg">
<path d="M178.961 77.5891H172.889C172.809 77.5887 172.731 77.6042 172.657 77.6345C172.583 77.6648 172.517 77.7093 172.46 77.7656C172.404 77.8219 172.359 77.8887 172.329 77.9623C172.299 78.0359 172.283 78.1148 172.284 78.1943V91.4588H166.123V78.1943C166.123 78.1148 166.108 78.0359 166.078 77.9623C166.047 77.8887 166.003 77.8219 165.946 77.7656C165.89 77.7093 165.823 77.6648 165.75 77.6345C165.676 77.6042 165.597 77.5887 165.518 77.5891H159.467C159.388 77.5888 159.309 77.6043 159.236 77.6347C159.162 77.665 159.095 77.7096 159.039 77.7659C158.983 77.8222 158.939 77.889 158.908 77.9625C158.878 78.036 158.863 78.1148 158.863 78.1943V112.363C158.863 112.7 159.132 112.968 159.467 112.968H165.54C165.62 112.969 165.698 112.953 165.772 112.923C165.845 112.892 165.912 112.848 165.968 112.792C166.024 112.735 166.069 112.668 166.099 112.595C166.129 112.521 166.145 112.443 166.145 112.363V98.6281H172.306V112.363C172.306 112.7 172.576 112.968 172.911 112.968H178.983C179.063 112.969 179.142 112.953 179.215 112.923C179.289 112.893 179.356 112.848 179.412 112.792C179.468 112.736 179.513 112.669 179.543 112.595C179.573 112.522 179.589 112.443 179.589 112.363V78.1943C179.589 78.1148 179.573 78.0359 179.543 77.9623C179.513 77.8887 179.468 77.8219 179.412 77.7656C179.356 77.7093 179.289 77.6648 179.215 77.6345C179.142 77.6042 179.063 77.5887 178.983 77.5891H178.961ZM127.405 77.5891H121.198C120.885 77.5891 120.616 77.8135 120.593 78.127V102.504C120.638 103.513 120.347 104.5 119.741 105.283L119.764 105.26C119.275 105.799 118.593 106.122 117.867 106.16C117.141 106.198 116.43 105.947 115.888 105.462C115.81 105.407 115.741 105.339 115.686 105.26C115.113 104.477 114.828 103.519 114.879 102.55V78.127C114.879 78.0527 114.863 77.9792 114.833 77.9112C114.803 77.8432 114.76 77.782 114.705 77.7316C114.651 77.6811 114.586 77.6425 114.516 77.6179C114.446 77.5934 114.371 77.5836 114.297 77.5891H108.067C107.994 77.5825 107.919 77.5906 107.849 77.6131C107.778 77.6355 107.713 77.6718 107.657 77.7198C107.6 77.7678 107.554 77.8265 107.521 77.8926C107.487 77.9587 107.467 78.0307 107.462 78.1045V102.572V102.505C107.261 105.44 108.202 108.33 110.084 110.571L110.061 110.548C111.055 111.547 112.245 112.33 113.556 112.847C114.867 113.364 116.271 113.603 117.68 113.551H117.769C119.178 113.603 120.582 113.364 121.893 112.847C123.204 112.33 124.394 111.547 125.388 110.548L125.365 110.571C127.25 108.323 128.19 105.432 127.987 102.505V78.127C127.975 77.9806 127.908 77.8441 127.8 77.7445C127.692 77.6449 127.551 77.5894 127.404 77.5891H127.405ZM67.3787 77.0071H67.3338C65.9256 76.9547 64.5218 77.1943 63.2107 77.7108C61.8996 78.2274 60.7096 79.0096 59.7155 80.0085L59.7829 79.9195C57.8564 82.1424 56.8683 85.0263 57.0267 87.9635V102.594V102.527C56.8255 105.462 57.7667 108.352 59.6482 110.593L59.6257 110.571C60.6196 111.57 61.8096 112.352 63.1207 112.869C64.4318 113.386 65.8357 113.626 67.244 113.574H67.3563C68.7646 113.626 70.1685 113.386 71.4796 112.869C72.7907 112.352 73.9806 111.57 74.9745 110.571C76.8597 108.323 77.7994 105.432 77.596 102.505V94.55C77.588 94.3882 77.5186 94.2355 77.402 94.1231C77.2854 94.0106 77.1303 93.9468 76.9683 93.9447H68.0056C67.8413 93.9463 67.6836 94.0093 67.5634 94.1213C67.4432 94.2333 67.3693 94.3862 67.3563 94.55V100.51C67.3787 100.868 67.6473 101.137 68.0056 101.137H70.4708V102.504C70.5214 103.529 70.2211 104.541 69.6194 105.373L69.6418 105.349C69.1039 106.022 68.275 106.403 67.4236 106.335H67.3787C66.5273 106.402 65.6984 106.067 65.1605 105.394C64.5335 104.582 64.2158 103.574 64.2642 102.549V88.0525V88.0749C64.221 87.0232 64.5547 85.9907 65.2054 85.1633C65.7433 84.4907 66.5722 84.1099 67.4236 84.1772H67.4685C68.3199 84.1107 69.148 84.4466 69.6867 85.1184L69.7316 85.1633C70.2973 86.0155 70.5578 87.0341 70.4708 88.0533V89.3977C70.4932 89.712 70.7617 89.9356 71.0752 89.9356H77.1479C77.4613 89.9356 77.7299 89.7111 77.7523 89.3977V87.9868V88.0308C77.9095 85.0959 76.9234 82.2275 74.9745 80.0101H74.997C74 79.015 72.8094 78.2349 71.4989 77.7183C70.1884 77.2016 68.7858 76.9592 67.3779 77.0062L67.3787 77.0071ZM150.797 94.708L150.841 94.6622C151.756 93.7838 152.483 92.7297 152.98 91.5631C153.476 90.3965 153.732 89.1416 153.731 87.8737V87.9635C153.777 85.3485 152.851 82.8096 151.132 80.8382V80.8607C150.192 79.811 149.038 78.9757 147.747 78.4112C146.456 77.8468 145.059 77.5664 143.65 77.5891H133.969C133.889 77.5887 133.81 77.6042 133.737 77.6345C133.663 77.6648 133.596 77.7093 133.54 77.7656C133.484 77.8219 133.439 77.8887 133.409 77.9623C133.378 78.0359 133.363 78.1148 133.363 78.1943V112.363C133.363 112.7 133.633 112.968 133.969 112.968H144.143C147.212 113.013 150.147 111.691 152.119 109.338L152.097 109.361C153.684 107.259 154.478 104.664 154.338 102.034V102.124C154.338 99.2334 153.038 96.5221 150.797 94.708H150.797ZM140.602 84.7808H143.671H143.649C144.025 84.7549 144.403 84.8118 144.756 84.9474C145.108 85.083 145.426 85.294 145.688 85.5657L145.732 85.6106C146.267 86.3327 146.522 87.2242 146.45 88.1198V88.0749C146.54 89.0161 146.248 89.9797 145.688 90.7637V90.7413C145.44 91.0288 145.129 91.2552 144.779 91.4029C144.43 91.5506 144.05 91.6155 143.671 91.5926H140.602V84.7817V84.7808ZM146.293 104.947L146.315 104.924C146.041 105.251 145.692 105.506 145.298 105.67C144.904 105.834 144.477 105.901 144.052 105.866H140.602V98.4718H144.097H144.075C144.5 98.4364 144.927 98.5035 145.321 98.6672C145.714 98.831 146.063 99.0867 146.338 99.413L146.315 99.3905C146.914 100.155 147.216 101.11 147.167 102.079V102.102C147.211 103.109 146.876 104.096 146.27 104.902L146.293 104.947V104.947ZM98.7248 97.7318L98.7473 97.7102C99.3742 97.2837 99.9346 96.769 100.45 96.2087L100.428 96.2536C102.282 94.1055 103.259 91.3369 103.161 88.5006V88.4341C103.21 85.6329 102.192 82.918 100.315 80.8382L100.428 80.9721C99.5055 79.9304 98.3796 79.0887 97.1195 78.4991C95.8594 77.9096 94.4918 77.5845 93.1011 77.5442H82.9063C82.8267 77.5438 82.7478 77.5593 82.6743 77.5896C82.6007 77.6199 82.5338 77.6644 82.4775 77.7207C82.4213 77.777 82.3767 77.8438 82.3464 77.9174C82.3161 77.991 82.3007 78.0699 82.301 78.1494V112.363C82.301 112.7 82.5696 112.968 82.9063 112.968H88.9781C89.0577 112.969 89.1366 112.953 89.2101 112.923C89.2837 112.893 89.3506 112.848 89.4069 112.792C89.4631 112.736 89.5077 112.669 89.538 112.595C89.5683 112.522 89.5837 112.443 89.5834 112.363V99.7048H91.8241L95.6552 112.611C95.7218 112.857 95.9687 113.037 96.2372 113.037H102.691C102.786 113.036 102.88 113.013 102.966 112.97C103.051 112.928 103.126 112.866 103.184 112.79C103.228 112.707 103.251 112.615 103.251 112.521C103.251 112.427 103.228 112.335 103.184 112.253L98.7248 97.7327V97.7318ZM94.9835 91.4363C94.6754 91.7659 94.2994 92.0247 93.8816 92.1948C93.4637 92.3649 93.0139 92.4423 92.5632 92.4216H89.5834V84.7808H92.5408C92.9914 84.7604 93.4412 84.8381 93.8589 85.0085C94.2766 85.1789 94.6523 85.4379 94.9602 85.7677V85.7453C95.5913 86.5039 95.9186 87.4697 95.8789 88.4557V88.5006C95.9462 89.5764 95.6328 90.6074 94.9602 91.4355H94.9826L94.9835 91.4363ZM228.3 94.7071L228.344 94.6622C229.258 93.7839 229.986 92.7298 230.482 91.5632C230.979 90.3966 231.235 89.1416 231.235 87.8737V88.0076C231.328 85.3311 230.398 82.7197 228.636 80.7035L228.681 80.7701C227.74 79.7205 226.586 78.8852 225.294 78.3209C224.003 77.7566 222.606 77.4764 221.197 77.4993H211.473C211.393 77.4989 211.314 77.5144 211.241 77.5447C211.167 77.575 211.1 77.6195 211.044 77.6758C210.988 77.7321 210.943 77.7989 210.913 77.8725C210.882 77.9461 210.867 78.025 210.867 78.1045V112.363C210.867 112.7 211.136 112.968 211.473 112.968H221.599C224.67 113.013 227.605 111.691 229.577 109.338L229.554 109.361C231.142 107.259 231.935 104.664 231.795 102.034V102.079C231.795 99.2109 230.495 96.4772 228.255 94.6847L228.3 94.7071V94.7071ZM218.105 84.7817H221.174H221.152C221.528 84.7558 221.906 84.8126 222.258 84.948C222.61 85.0834 222.929 85.2943 223.191 85.5657L223.236 85.6106C223.77 86.3329 224.025 87.2243 223.952 88.1198V88.0749C224.042 89.0161 223.751 89.9797 223.191 90.7637V90.7413C222.943 91.0287 222.632 91.255 222.282 91.4027C221.932 91.5504 221.553 91.6154 221.174 91.5926H218.105V84.7817ZM223.796 104.947L223.818 104.924C223.544 105.251 223.195 105.506 222.801 105.67C222.407 105.834 221.98 105.901 221.555 105.866H218.105V98.4718H221.6H221.578C222.003 98.4364 222.43 98.5035 222.824 98.6672C223.217 98.831 223.566 99.0867 223.841 99.413L223.818 99.3905C224.417 100.155 224.72 101.11 224.67 102.079V102.102C224.715 103.109 224.379 104.096 223.773 104.902L223.796 104.947ZM204.908 77.5891H198.655C198.582 77.5826 198.508 77.5908 198.437 77.6133C198.367 77.6358 198.302 77.6721 198.245 77.7201C198.189 77.7681 198.143 77.8268 198.11 77.8928C198.076 77.9588 198.056 78.0308 198.051 78.1045V102.505C198.096 103.49 197.827 104.454 197.245 105.238C196.756 105.776 196.074 106.099 195.348 106.137C194.622 106.175 193.911 105.924 193.369 105.44C193.29 105.384 193.222 105.316 193.166 105.238C192.593 104.454 192.308 103.497 192.36 102.527V78.127C192.338 77.8135 192.069 77.5891 191.755 77.5891H185.526C185.212 77.5891 184.944 77.8135 184.921 78.127V102.572C184.719 105.44 185.661 108.33 187.543 110.571L187.609 110.638C191.979 114.559 198.634 114.514 202.936 110.504L202.846 110.571C204.731 108.323 205.671 105.432 205.467 102.505V78.127C205.445 77.836 205.199 77.5891 204.908 77.5891V77.5891Z" fill="#2C3B29"/>
</svg>
