<svg width="159" height="45" viewBox="0 0 159 45" fill="none" xmlns="http://www.w3.org/2000/svg">
<path d="M110.746 6.53489H105.233C105.16 6.53459 105.089 6.5486 105.022 6.57612C104.955 6.60363 104.894 6.64411 104.843 6.6952C104.792 6.7463 104.752 6.80701 104.724 6.87382C104.697 6.94064 104.683 7.01225 104.683 7.08451V19.1292H99.0886V7.08451C99.0889 7.01225 99.0749 6.94064 99.0474 6.87382C99.0199 6.80701 98.9794 6.7463 98.9283 6.6952C98.8772 6.64411 98.8165 6.60363 98.7497 6.57612C98.6829 6.5486 98.6113 6.53459 98.539 6.53489H93.0451C92.9729 6.53469 92.9014 6.54878 92.8347 6.57634C92.768 6.60389 92.7073 6.64438 92.6563 6.69547C92.6053 6.74656 92.5649 6.80723 92.5374 6.874C92.51 6.94077 92.496 7.01231 92.4963 7.08451V38.1113C92.4963 38.4171 92.7401 38.661 93.0451 38.661H98.5594C98.6316 38.6612 98.7031 38.6471 98.7699 38.6195C98.8366 38.592 98.8972 38.5515 98.9482 38.5004C98.9992 38.4493 99.0396 38.3886 99.0671 38.3219C99.0946 38.2551 99.1086 38.1835 99.1083 38.1113V25.6393H104.703V38.1113C104.703 38.4171 104.948 38.661 105.253 38.661H110.766C110.839 38.6613 110.91 38.6473 110.977 38.6197C111.044 38.5922 111.105 38.5517 111.156 38.5007C111.207 38.4496 111.247 38.3889 111.275 38.322C111.302 38.2552 111.316 38.1836 111.316 38.1113V7.08451C111.316 7.01225 111.302 6.94064 111.275 6.87382C111.247 6.80701 111.207 6.7463 111.156 6.6952C111.105 6.64411 111.044 6.60363 110.977 6.57612C110.91 6.5486 110.839 6.53459 110.766 6.53489H110.746ZM63.9306 6.53489H58.2948C58.0102 6.53489 57.7663 6.73873 57.7452 7.02335V29.159C57.786 30.0747 57.5217 30.9709 56.9721 31.6821L56.9925 31.6617C56.5487 32.1504 55.9297 32.4439 55.2705 32.4783C54.6112 32.5127 53.965 32.2851 53.4728 31.8451C53.4019 31.7947 53.3398 31.7327 53.2894 31.6617C52.7688 30.9502 52.5101 30.0808 52.5571 29.2005V7.02335C52.5567 6.95586 52.5425 6.88917 52.5153 6.8274C52.4881 6.76563 52.4485 6.71012 52.399 6.66431C52.3494 6.6185 52.2909 6.58337 52.2272 6.56111C52.1635 6.53885 52.0959 6.52992 52.0286 6.53489H46.3716C46.3047 6.5289 46.2372 6.53632 46.1732 6.5567C46.1091 6.57709 46.0498 6.61003 45.9986 6.65361C45.9474 6.69719 45.9055 6.75053 45.8751 6.81051C45.8448 6.8705 45.8268 6.93593 45.822 7.00297V29.2209V29.1597C45.6393 31.8247 46.4939 34.449 48.2024 36.4836L48.182 36.4633C49.0846 37.3705 50.1651 38.0812 51.3556 38.5505C52.5462 39.0198 53.821 39.2376 55.0998 39.1902H55.1813C56.4602 39.2376 57.735 39.0198 58.9255 38.5505C60.1161 38.0812 61.1966 37.3705 62.0991 36.4633L62.0787 36.4836C63.7905 34.4426 64.6438 31.8171 64.4591 29.1597V7.02335C64.4481 6.89043 64.3877 6.76648 64.2897 6.67602C64.1916 6.58556 64.0633 6.5352 63.9299 6.53489H63.9306ZM9.42434 6.00641H9.38358C8.10486 5.95883 6.83013 6.1764 5.63959 6.64545C4.44905 7.11449 3.36846 7.82485 2.46582 8.73184L2.52697 8.65106C0.777678 10.6695 -0.119606 13.2883 0.024261 15.9554V29.2405V29.1801C-0.158441 31.8451 0.696181 34.4694 2.40467 36.504L2.38429 36.4836C3.2868 37.3909 4.36732 38.1015 5.55787 38.5709C6.74841 39.0402 8.02321 39.258 9.30204 39.2106H9.40396C10.6828 39.258 11.9576 39.0402 13.1481 38.5709C14.3387 38.1015 15.4192 37.3909 16.3217 36.4836C18.0335 34.4426 18.8868 31.8171 18.7021 29.1597V21.9362C18.6948 21.7893 18.6318 21.6506 18.5259 21.5485C18.42 21.4464 18.2792 21.3885 18.1321 21.3866H9.99359C9.84442 21.388 9.70118 21.4452 9.59206 21.5469C9.48293 21.6486 9.41584 21.7875 9.40396 21.9362V27.3478C9.42434 27.6732 9.6682 27.9178 9.99359 27.9178H12.2321V29.159C12.2781 30.0898 12.0054 31.0086 11.459 31.7636L11.4794 31.7425C10.9909 32.3532 10.2382 32.699 9.46511 32.6378H9.42434C8.65126 32.6982 7.89856 32.394 7.4101 31.7832C6.84073 31.046 6.55224 30.1302 6.59624 29.1997V16.0361V16.0565C6.55696 15.1015 6.86003 14.1639 7.45086 13.4126C7.93933 12.8019 8.69203 12.4561 9.46511 12.5172H9.50588C10.279 12.4568 11.0309 12.7619 11.5201 13.3719L11.5609 13.4126C12.0746 14.1865 12.3111 15.1114 12.2321 16.0369V17.2577C12.2524 17.5431 12.4963 17.7461 12.7809 17.7461H18.2952C18.5798 17.7461 18.8237 17.5423 18.8441 17.2577V15.9765V16.0165C18.9867 13.3515 18.0914 10.7468 16.3217 8.73335H16.3421C15.4368 7.8297 14.3557 7.12138 13.1656 6.65221C11.9756 6.18304 10.702 5.96299 9.42359 6.00566L9.42434 6.00641ZM85.1716 22.0796L85.2124 22.0381C86.0426 21.2405 86.703 20.2832 87.154 19.2239C87.6049 18.1646 87.8371 17.0251 87.8366 15.8738V15.9554C87.8781 13.5809 87.0372 11.2754 85.4766 9.4853V9.50568C84.623 8.55256 83.5746 7.79402 82.4023 7.28147C81.23 6.76891 79.9612 6.5143 78.6819 6.53489H69.8911C69.8188 6.53459 69.7472 6.5486 69.6804 6.57612C69.6136 6.60363 69.5529 6.64411 69.5018 6.6952C69.4507 6.7463 69.4102 6.80701 69.3827 6.87382C69.3552 6.94064 69.3412 7.01225 69.3415 7.08451V38.1113C69.3415 38.4171 69.5861 38.661 69.8911 38.661H79.1296C81.917 38.7017 84.582 37.5013 86.3728 35.3648L86.3524 35.3852C87.7939 33.4769 88.5146 31.1205 88.387 28.7324V28.8139C88.387 26.1889 87.207 23.727 85.1724 22.0796H85.1716ZM75.9142 13.0653H78.7015H78.6812C79.0231 13.0418 79.3661 13.0935 79.6861 13.2166C80.006 13.3397 80.2951 13.5313 80.5331 13.778L80.5731 13.8188C81.0586 14.4746 81.29 15.284 81.2246 16.0973V16.0565C81.3062 16.9111 81.0412 17.7862 80.5331 18.4981V18.4777C80.3079 18.7388 80.0254 18.9444 79.7078 19.0785C79.3901 19.2126 79.0457 19.2715 78.7015 19.2508H75.9142V13.0661V13.0653ZM81.082 31.3771L81.1023 31.3567C80.853 31.6529 80.5363 31.8851 80.1787 32.0338C79.8212 32.1825 79.4332 32.2434 79.0473 32.2113H75.9142V25.4974H79.0881H79.0677C79.4536 25.4653 79.8416 25.5261 80.1991 25.6748C80.5567 25.8235 80.8734 26.0557 81.1227 26.352L81.1023 26.3316C81.6461 27.0256 81.9207 27.8927 81.8754 28.7732V28.7936C81.9162 29.7086 81.6112 30.604 81.0616 31.3363L81.082 31.3771V31.3771ZM37.8881 24.8255L37.9085 24.8058C38.4777 24.4185 38.9866 23.9512 39.4546 23.4424L39.4342 23.4831C41.1184 21.5326 42.0048 19.0186 41.9166 16.4431V16.3827C41.9605 13.8391 41.0368 11.3738 39.3323 9.4853L39.4342 9.60685C38.5969 8.66091 37.5746 7.89667 36.4303 7.36129C35.2861 6.82592 34.0442 6.53079 32.7815 6.49412H23.5241C23.4518 6.49382 23.3802 6.50783 23.3134 6.53535C23.2466 6.56286 23.1859 6.60334 23.1348 6.65443C23.0837 6.70553 23.0432 6.76624 23.0157 6.83306C22.9882 6.89987 22.9742 6.97148 22.9745 7.04374V38.1113C22.9745 38.4171 23.2183 38.661 23.5241 38.661H29.0376C29.1099 38.6613 29.1815 38.6473 29.2483 38.6197C29.3151 38.5922 29.3758 38.5517 29.4269 38.5007C29.478 38.4496 29.5185 38.3889 29.546 38.322C29.5735 38.2552 29.5875 38.1836 29.5872 38.1113V26.617H31.6219L35.1007 38.3363C35.1611 38.5598 35.3854 38.7229 35.6292 38.7229H41.4893C41.5761 38.7221 41.6615 38.7016 41.7391 38.6627C41.8167 38.6238 41.8844 38.5677 41.937 38.4986C41.9769 38.4236 41.9979 38.3398 41.9979 38.2548C41.9979 38.1697 41.9769 38.086 41.937 38.0109L37.8881 24.8262V24.8255ZM34.4907 19.1089C34.211 19.4081 33.8696 19.6431 33.4902 19.7976C33.1107 19.9521 32.7023 20.0223 32.293 20.0035H29.5872V13.0653H32.2726C32.6819 13.0468 33.0902 13.1174 33.4696 13.2721C33.8489 13.4268 34.1901 13.662 34.4696 13.9615V13.9411C35.0426 14.63 35.3399 15.5069 35.3038 16.4023V16.4431C35.365 17.42 35.0804 18.3561 34.4696 19.1081H34.49L34.4907 19.1089ZM155.548 22.0789L155.588 22.0381C156.418 21.2405 157.079 20.2833 157.53 19.224C157.981 18.1647 158.213 17.0252 158.213 15.8738V15.9954C158.297 13.565 157.454 11.1937 155.853 9.36299L155.894 9.42339C155.04 8.47031 153.991 7.71186 152.819 7.19943C151.647 6.687 150.378 6.43256 149.098 6.45335H140.268C140.196 6.45305 140.124 6.46707 140.058 6.49458C139.991 6.5221 139.93 6.56257 139.879 6.61366C139.828 6.66476 139.787 6.72547 139.76 6.79229C139.732 6.8591 139.718 6.93071 139.719 7.00297V38.1113C139.719 38.4171 139.963 38.661 140.268 38.661H149.464C152.252 38.7017 154.917 37.5013 156.708 35.3648L156.687 35.3852C158.129 33.4769 158.849 31.1205 158.722 28.7324V28.7732C158.722 26.1685 157.542 23.6862 155.507 22.0585L155.548 22.0789V22.0789ZM146.291 13.0661H149.078H149.058C149.399 13.0426 149.742 13.0942 150.062 13.2172C150.382 13.3401 150.671 13.5316 150.909 13.778L150.95 13.8188C151.435 14.4747 151.666 15.2841 151.6 16.0973V16.0565C151.682 16.9111 151.418 17.7862 150.909 18.4981V18.4777C150.684 18.7387 150.401 18.9442 150.084 19.0783C149.766 19.2124 149.422 19.2714 149.078 19.2508H146.291V13.0661ZM151.458 31.3771L151.479 31.3567C151.229 31.6529 150.913 31.8851 150.555 32.0338C150.198 32.1825 149.81 32.2434 149.424 32.2113H146.291V25.4974H149.465H149.444C149.83 25.4653 150.218 25.5261 150.576 25.6748C150.933 25.8235 151.25 26.0557 151.499 26.352L151.479 26.3316C152.023 27.0256 152.297 27.8927 152.252 28.7732V28.7936C152.293 29.7086 151.988 30.604 151.438 31.3363L151.458 31.3771ZM134.307 6.53489H128.63C128.563 6.52901 128.495 6.5365 128.431 6.55694C128.368 6.57737 128.308 6.61033 128.257 6.6539C128.206 6.69747 128.164 6.75077 128.134 6.8107C128.104 6.87064 128.086 6.93599 128.081 7.00297V29.1597C128.122 30.0543 127.877 30.9294 127.349 31.6413C126.905 32.13 126.286 32.4236 125.626 32.4579C124.967 32.4923 124.321 32.2647 123.829 31.8247C123.758 31.7743 123.696 31.7123 123.645 31.6413C123.125 30.9299 122.866 30.0604 122.913 29.1801V7.02335C122.893 6.73873 122.649 6.53489 122.363 6.53489H116.707C116.423 6.53489 116.179 6.73873 116.158 7.02335V29.2209C115.975 31.8247 116.83 34.449 118.539 36.4836L118.599 36.5448C122.567 40.1052 128.61 40.0644 132.516 36.4232L132.435 36.4836C134.147 34.4426 135 31.8171 134.815 29.1597V7.02335C134.795 6.75912 134.571 6.53489 134.307 6.53489V6.53489Z" fill="#2C3B29"/>
</svg>
