<svg width="159" height="34" viewBox="0 0 159 34" fill="none" xmlns="http://www.w3.org/2000/svg">
<path d="M110.853 0.926492H105.339C105.267 0.926193 105.195 0.940204 105.128 0.967719C105.061 0.995234 105.001 1.03571 104.95 1.0868C104.899 1.1379 104.858 1.19861 104.831 1.26542C104.803 1.33224 104.789 1.40385 104.789 1.47611V13.5208H99.1951V1.47611C99.1954 1.40385 99.1814 1.33224 99.1538 1.26542C99.1263 1.19861 99.0859 1.1379 99.0348 1.0868C98.9837 1.03571 98.923 0.995234 98.8561 0.967719C98.7893 0.940204 98.7177 0.926193 98.6455 0.926492H93.1516C93.0794 0.926293 93.0079 0.940378 92.9411 0.967937C92.8744 0.995497 92.8138 1.03599 92.7628 1.08707C92.7117 1.13816 92.6713 1.19883 92.6439 1.2656C92.6164 1.33237 92.6024 1.40391 92.6027 1.47611V32.5029C92.6027 32.8087 92.8466 33.0526 93.1516 33.0526H98.6658C98.738 33.0528 98.8096 33.0387 98.8763 33.0111C98.943 32.9836 99.0036 32.9431 99.0547 32.892C99.1057 32.8409 99.1461 32.7802 99.1735 32.7135C99.201 32.6467 99.215 32.5751 99.2147 32.5029V20.0309H104.81V32.5029C104.81 32.8087 105.054 33.0526 105.359 33.0526H110.873C110.945 33.0529 111.017 33.0389 111.084 33.0113C111.15 32.9838 111.211 32.9434 111.262 32.8923C111.313 32.8412 111.354 32.7805 111.381 32.7136C111.409 32.6468 111.423 32.5752 111.423 32.5029V1.47611C111.423 1.40385 111.409 1.33224 111.381 1.26542C111.354 1.19861 111.313 1.1379 111.262 1.0868C111.211 1.03571 111.15 0.995234 111.084 0.967719C111.017 0.940204 110.945 0.926193 110.873 0.926492H110.853ZM64.0371 0.926492H58.4013C58.1166 0.926492 57.8728 1.13033 57.8516 1.41496V23.5506C57.8924 24.4663 57.6282 25.3625 57.0785 26.0737L57.0989 26.0533C56.6551 26.542 56.0362 26.8356 55.3769 26.8699C54.7176 26.9043 54.0715 26.6767 53.5793 26.2367C53.5083 26.1863 53.4463 26.1243 53.3958 26.0533C52.8753 25.3418 52.6166 24.4724 52.6635 23.5921V1.41496C52.6632 1.34747 52.649 1.28077 52.6218 1.219C52.5946 1.15724 52.555 1.10172 52.5054 1.05591C52.4558 1.0101 52.3974 0.974976 52.3337 0.952712C52.27 0.930448 52.2023 0.921523 52.135 0.926492H46.4781C46.4111 0.920506 46.3437 0.927922 46.2796 0.948306C46.2156 0.96869 46.1562 1.00163 46.1051 1.04521C46.0539 1.08879 46.0119 1.14213 45.9816 1.20212C45.9513 1.2621 45.9332 1.32753 45.9285 1.39457V23.6125V23.5513C45.7458 26.2163 46.6004 28.8406 48.3089 30.8752L48.2885 30.8549C49.191 31.7621 50.2715 32.4728 51.4621 32.9421C52.6526 33.4114 53.9274 33.6292 55.2062 33.5818H55.2878C56.5666 33.6292 57.8414 33.4114 59.0319 32.9421C60.2225 32.4728 61.303 31.7621 62.2055 30.8549L62.1851 30.8752C63.8969 28.8342 64.7503 26.2087 64.5655 23.5513V1.41496C64.5546 1.28204 64.4941 1.15808 64.3961 1.06762C64.2981 0.977163 64.1697 0.926797 64.0363 0.926492H64.0371ZM9.53079 0.398016H9.49002C8.2113 0.350431 6.93657 0.568005 5.74603 1.03705C4.55549 1.50609 3.47491 2.21646 2.57227 3.12344L2.63342 3.04266C0.884123 5.06109 -0.0131606 7.67986 0.130706 10.347V23.6321V23.5717C-0.0519955 26.2367 0.802626 28.861 2.51111 30.8956L2.49073 30.8752C3.39324 31.7825 4.47377 32.4931 5.66431 32.9625C6.85486 33.4318 8.12966 33.6496 9.40848 33.6022H9.5104C10.7892 33.6496 12.064 33.4318 13.2546 32.9625C14.4451 32.4931 15.5256 31.7825 16.4282 30.8752C18.14 28.8342 18.9933 26.2087 18.8086 23.5513V16.3278C18.8013 16.1809 18.7383 16.0422 18.6324 15.9401C18.5265 15.838 18.3857 15.7801 18.2386 15.7782H10.1C9.95086 15.7796 9.80762 15.8368 9.6985 15.9385C9.58938 16.0402 9.52228 16.1791 9.5104 16.3278V21.7394C9.53079 22.0648 9.77464 22.3094 10.1 22.3094H12.3385V23.5506C12.3845 24.4814 12.1118 25.4002 11.5654 26.1552L11.5858 26.1341C11.0973 26.7448 10.3446 27.0906 9.57156 27.0294H9.53079C8.7577 27.0898 8.005 26.7856 7.51654 26.1748C6.94718 25.4376 6.65869 24.5218 6.70269 23.5913V10.4277V10.4481C6.6634 9.49314 6.96648 8.55553 7.55731 7.80423C8.04577 7.19347 8.79847 6.84769 9.57156 6.90884H9.61233C10.3854 6.84845 11.1374 7.15345 11.6266 7.76346L11.6673 7.80423C12.181 8.57809 12.4176 9.50305 12.3385 10.4285V11.6493C12.3589 11.9347 12.6027 12.1377 12.8874 12.1377H18.4016C18.6863 12.1377 18.9301 11.9339 18.9505 11.6493V10.3681V10.4081C19.0932 7.74308 18.1978 5.13845 16.4282 3.12495H16.4485C15.5432 2.2213 14.4621 1.51298 13.2721 1.04381C12.0821 0.57464 10.8085 0.354587 9.53003 0.397261L9.53079 0.398016ZM85.278 16.4712L85.3188 16.4297C86.149 15.6321 86.8094 14.6748 87.2604 13.6155C87.7114 12.5562 87.9436 11.4167 87.9431 10.2654V10.347C87.9846 7.97247 87.1436 5.66702 85.583 3.8769V3.89728C84.7295 2.94416 83.681 2.18563 82.5087 1.67307C81.3364 1.16051 80.0676 0.905902 78.7884 0.926492H69.9975C69.9253 0.926193 69.8537 0.940204 69.7868 0.967719C69.72 0.995234 69.6593 1.03571 69.6082 1.0868C69.5571 1.1379 69.5167 1.19861 69.4891 1.26542C69.4616 1.33224 69.4476 1.40385 69.4479 1.47611V32.5029C69.4479 32.8087 69.6925 33.0526 69.9975 33.0526H79.2361C82.0234 33.0933 84.6884 31.8929 86.4792 29.7564L86.4588 29.7768C87.9003 27.8685 88.621 25.5121 88.4934 23.124V23.2055C88.4934 20.5805 87.3134 18.1186 85.2788 16.4712H85.278ZM76.0206 7.45695H78.808H78.7876C79.1296 7.43345 79.4726 7.48507 79.7925 7.60818C80.1124 7.7313 80.4015 7.92293 80.6395 8.16964L80.6795 8.2104C81.165 8.86617 81.3965 9.67561 81.3311 10.4889V10.4481C81.4126 11.3027 81.1476 12.1778 80.6395 12.8897V12.8693C80.4143 13.1304 80.1319 13.336 79.8142 13.4701C79.4965 13.6042 79.1522 13.6631 78.808 13.6424H76.0206V7.4577V7.45695ZM81.1884 25.7687L81.2088 25.7483C80.9594 26.0445 80.6427 26.2767 80.2852 26.4254C79.9276 26.5741 79.5397 26.635 79.1538 26.6029H76.0206V19.889H79.1945H79.1741C79.56 19.8569 79.948 19.9177 80.3056 20.0664C80.6631 20.2151 80.9798 20.4473 81.2292 20.7436L81.2088 20.7232C81.7526 21.4172 82.0271 22.2843 81.9819 23.1648V23.1852C82.0226 24.1002 81.7176 24.9956 81.168 25.7279L81.1884 25.7687V25.7687ZM37.9945 19.2171L38.0149 19.1974C38.5841 18.8101 39.093 18.3428 39.5611 17.834L39.5407 17.8747C41.2248 15.9242 42.1113 13.4102 42.023 10.8347V10.7743C42.0669 8.23071 41.1432 5.76539 39.4388 3.8769L39.5407 3.99845C38.7034 3.05252 37.681 2.28827 36.5368 1.7529C35.3925 1.21752 34.1507 0.922391 32.8879 0.885724H23.6305C23.5583 0.885425 23.4867 0.899436 23.4199 0.926951C23.353 0.954465 23.2923 0.994938 23.2412 1.04603C23.1901 1.09713 23.1497 1.15784 23.1221 1.22466C23.0946 1.29147 23.0806 1.36308 23.0809 1.43534V32.5029C23.0809 32.8087 23.3248 33.0526 23.6305 33.0526H29.1441C29.2163 33.0529 29.2879 33.0389 29.3547 33.0113C29.4215 32.9838 29.4823 32.9434 29.5334 32.8923C29.5845 32.8412 29.6249 32.7805 29.6524 32.7136C29.68 32.6468 29.694 32.5752 29.6937 32.5029V21.0086H31.7283L35.2072 32.7279C35.2676 32.9514 35.4918 33.1145 35.7357 33.1145H41.5957C41.6825 33.1138 41.768 33.0932 41.8456 33.0543C41.9232 33.0154 41.9908 32.9593 42.0434 32.8902C42.0834 32.8152 42.1043 32.7314 42.1043 32.6464C42.1043 32.5613 42.0834 32.4776 42.0434 32.4025L37.9945 19.2178V19.2171ZM34.5972 13.5005C34.3174 13.7997 33.976 14.0347 33.5966 14.1892C33.2172 14.3437 32.8087 14.4139 32.3995 14.3951H29.6937V7.45695H32.3791C32.7883 7.43844 33.1967 7.50898 33.576 7.6637C33.9553 7.81842 34.2965 8.05363 34.576 8.35309V8.33271C35.1491 9.02161 35.4463 9.89854 35.4103 10.7939V10.8347C35.4714 11.8116 35.1868 12.7478 34.576 13.4997H34.5964L34.5972 13.5005ZM155.654 16.4705L155.694 16.4297C156.525 15.6321 157.185 14.6749 157.636 13.6156C158.088 12.5563 158.32 11.4168 158.319 10.2654V10.387C158.404 7.95665 157.56 5.58531 155.959 3.7546L156 3.81499C155.147 2.86191 154.098 2.10346 152.925 1.59103C151.753 1.0786 150.484 0.824162 149.205 0.844956H140.375C140.302 0.844656 140.231 0.858668 140.164 0.886183C140.097 0.913697 140.036 0.95417 139.985 1.00527C139.934 1.05636 139.894 1.11707 139.866 1.18389C139.839 1.25071 139.825 1.32231 139.825 1.39457V32.5029C139.825 32.8087 140.069 33.0526 140.375 33.0526H149.57C152.358 33.0933 155.023 31.8929 156.814 29.7564L156.794 29.7768C158.235 27.8685 158.956 25.5121 158.828 23.124V23.1648C158.828 20.5601 157.648 18.0778 155.614 16.4501L155.654 16.4705V16.4705ZM146.397 7.4577H149.184H149.164C149.506 7.43422 149.849 7.48577 150.168 7.60876C150.488 7.73174 150.777 7.92317 151.015 8.16964L151.056 8.2104C151.541 8.86627 151.772 9.6757 151.707 10.4889V10.4481C151.788 11.3027 151.524 12.1778 151.015 12.8897V12.8693C150.79 13.1303 150.508 13.3358 150.19 13.4699C149.873 13.604 149.528 13.663 149.184 13.6424H146.397V7.4577ZM151.565 25.7687L151.585 25.7483C151.336 26.0445 151.019 26.2767 150.662 26.4254C150.304 26.5741 149.916 26.635 149.53 26.6029H146.397V19.889H149.571H149.551C149.936 19.8569 150.324 19.9177 150.682 20.0664C151.04 20.2151 151.356 20.4473 151.606 20.7436L151.585 20.7232C152.129 21.4172 152.404 22.2843 152.358 23.1648V23.1852C152.399 24.1002 152.094 24.9956 151.544 25.7279L151.565 25.7687ZM134.413 0.926492H128.736C128.669 0.920612 128.602 0.928106 128.538 0.948539C128.474 0.968971 128.415 1.00193 128.364 1.0455C128.313 1.08907 128.271 1.14238 128.24 1.20231C128.21 1.26224 128.192 1.3276 128.187 1.39457V23.5513C128.228 24.446 127.983 25.321 127.455 26.0329C127.011 26.5216 126.392 26.8152 125.733 26.8495C125.074 26.8839 124.428 26.6563 123.935 26.2163C123.864 26.1659 123.802 26.1039 123.752 26.0329C123.231 25.3215 122.973 24.452 123.02 23.5717V1.41496C122.999 1.13033 122.755 0.926492 122.47 0.926492H116.814C116.529 0.926492 116.285 1.13033 116.265 1.41496V23.6125C116.081 26.2163 116.937 28.8406 118.645 30.8752L118.706 30.9364C122.674 34.4968 128.717 34.456 132.623 30.8148L132.541 30.8752C134.253 28.8342 135.106 26.2087 134.922 23.5513V1.41496C134.901 1.15072 134.678 0.926492 134.413 0.926492V0.926492Z" fill="white"/>
</svg>
