<svg width="77" height="72" viewBox="0 0 77 72" fill="none" xmlns="http://www.w3.org/2000/svg">
<path d="M56.9746 38.5537H64.2587C69.308 38.5537 73.4013 42.647 73.4013 47.6963V47.6963C73.4013 52.7456 69.308 56.8389 64.2587 56.8389H63.5186H56.9755" stroke="#0F220C" stroke-width="3"/>
<rect x="19.002" y="62.2583" width="27.666" height="9.58033" rx="2" fill="#0F220C"/>
<path d="M4 33.2684C4 32.5679 4.56788 32 5.2684 32H54.0126C54.7131 32 55.281 32.5679 55.281 33.2684V41.4519C55.281 55.6127 43.8014 67.0924 29.6405 67.0924V67.0924C15.4796 67.0924 4 55.6127 4 41.4519V33.2684Z" fill="#0F220C" stroke="#0F220C" stroke-width="3"/>
<path d="M12.418 33.2684C12.418 32.5679 12.9859 32 13.6864 32H60.4018C61.1023 32 61.6702 32.5679 61.6702 33.2684V42.4663C61.6702 56.0669 50.6447 67.0924 37.0441 67.0924V67.0924C23.4434 67.0924 12.418 56.0669 12.418 42.4663V33.2684Z" fill="white" stroke="#0F220C" stroke-width="3"/>
</svg>
