<svg width="77" height="72" viewBox="0 0 77 72" fill="none" xmlns="http://www.w3.org/2000/svg">
<path d="M16.4433 19.6143C16.206 17.2586 18.0555 15.2134 20.4232 15.2134H50.0944C52.4621 15.2134 54.3116 17.2586 54.0743 19.6143L49.3315 66.6949C49.1257 68.7384 47.4055 70.2939 45.3517 70.2939H25.1659C23.1121 70.2939 21.392 68.7384 21.1861 66.6949L16.4433 19.6143Z" fill="#0F220C" stroke="#0F220C" stroke-width="3"/>
<path d="M20.85 19.6402C20.5963 17.2757 22.4492 15.2134 24.8272 15.2134H56.9541C59.3321 15.2134 61.185 17.2757 60.9312 19.6402L55.879 66.7207C55.6609 68.753 53.9457 70.2939 51.9018 70.2939H29.8795C27.8355 70.2939 26.1204 68.753 25.9023 66.7207L20.85 19.6402Z" fill="white" stroke="#0F220C" stroke-width="3"/>
<path d="M59 35.3721H17.6602" stroke="#0F220C" stroke-width="3"/>
<path d="M53.1119 2.19816C53.2213 1.37699 52.6443 0.622587 51.8232 0.513147C51.002 0.403706 50.2476 0.980674 50.1381 1.80184L53.1119 2.19816ZM50.1381 1.80184L45.6567 35.4273L48.6304 35.8236L53.1119 2.19816L50.1381 1.80184Z" fill="#0F220C"/>
</svg>
