<svg width="77" height="72" viewBox="0 0 77 72" fill="none" xmlns="http://www.w3.org/2000/svg">
<rect x="2" y="32.4126" width="61.4709" height="37.5873" rx="3" fill="#0F220C" stroke="#0F220C" stroke-width="3"/>
<rect x="13.3555" y="32.4126" width="61.4709" height="37.5873" rx="3" fill="white" stroke="#0F220C" stroke-width="3"/>
<path d="M20.2063 46.0345L17.6926 43.5207C15.7292 41.5573 12.5459 41.5573 10.5826 43.5207C7.41538 46.6879 2 44.4448 2 39.9657V32.9095C2 32.6351 2.22247 32.4126 2.4969 32.4126H74.3285C74.6029 32.4126 74.8254 32.6351 74.8254 32.9095V39.9657C74.8254 44.4448 69.41 46.6879 66.2428 43.5207C64.2795 41.5573 61.0962 41.5573 59.1328 43.5207L56.619 46.0345C53.2673 49.3862 47.8332 49.3862 44.4815 46.0345C41.1298 42.6828 35.6956 42.6828 32.3439 46.0345C28.9922 49.3862 23.558 49.3862 20.2063 46.0345Z" fill="white" stroke="#0F220C" stroke-width="3" stroke-linecap="round"/>
<path d="M74.8246 58.5713L15.1738 58.5713" stroke="#0F220C" stroke-width="3" stroke-linecap="round"/>
<path d="M11.365 58.5713L4.38086 58.5713" stroke="white" stroke-width="3" stroke-linecap="round"/>
<ellipse cx="17.7142" cy="27.2063" rx="5.20635" ry="5.20635" fill="white" stroke="#0F220C" stroke-width="3"/>
</svg>
