<svg width="77" height="72" viewBox="0 0 77 72" fill="none" xmlns="http://www.w3.org/2000/svg">
<path d="M63.6113 42.9921C63.6113 43.4269 63.2589 43.7793 62.8241 43.7793L19.161 43.7793C18.7263 43.7793 18.3738 43.4268 18.3738 42.9921V42.9921C18.3738 31.3984 27.7723 21.9999 39.366 21.9999L42.6192 21.9999C54.2128 21.9999 63.6113 31.3984 63.6113 42.9921V42.9921Z" fill="#0F220C" stroke="#0F220C" stroke-width="3"/>
<path d="M56.1855 42.9921C56.1855 43.4269 55.8331 43.7793 55.3983 43.7793L13.5249 43.7793C13.0902 43.7793 12.7377 43.4268 12.7377 42.9921V42.9921C12.7377 31.3984 22.1362 21.9999 33.7299 21.9999L35.1934 21.9999C46.787 21.9999 56.1855 31.3984 56.1855 42.9921V42.9921Z" fill="white" stroke="#0F220C" stroke-width="3"/>
<path d="M63.6113 60.81C63.6113 60.6196 63.457 60.4653 63.2667 60.4653L18.7184 60.4653C18.5281 60.4653 18.3738 60.6196 18.3738 60.81V60.81C18.3738 65.8855 22.4884 70.0001 27.564 70.0001H54.4212C59.4968 70.0001 63.6113 65.8855 63.6113 60.81V60.81Z" fill="#0F220C" stroke="#0F220C" stroke-width="3"/>
<path d="M56.1855 60.81C56.1855 60.6196 56.0313 60.4653 55.8409 60.4653L13.0824 60.4653C12.892 60.4653 12.7377 60.6196 12.7377 60.81V60.81C12.7377 65.8855 16.8523 70.0001 21.9279 70.0001H46.9954C52.071 70.0001 56.1855 65.8855 56.1855 60.81V60.81Z" fill="white" stroke="#0F220C" stroke-width="3"/>
<path d="M12 50.2466C12 48.5897 13.3431 47.2466 15 47.2466H24.4153C25.0601 47.2466 25.6877 47.4543 26.2052 47.839L30.3226 50.9C31.3851 51.6899 32.8398 51.6899 33.9023 50.9L38.0197 47.839C38.5371 47.4543 39.1648 47.2466 39.8095 47.2466H62.6331C64.29 47.2466 65.6331 48.5897 65.6331 50.2466V53.9981C65.6331 55.6549 64.29 56.9981 62.6331 56.9981H15C13.3431 56.9981 12 55.6549 12 53.9981V50.2466Z" fill="#0F220C"/>
</svg>
