<svg width="57" height="56" viewBox="0 0 57 56" fill="none" xmlns="http://www.w3.org/2000/svg">
<g clip-path="url(#clip0_1_7755)">
<path d="M55.898 22.9914C55.7157 22.8899 55.5094 22.8394 55.3008 22.8452C55.0923 22.8509 54.8891 22.9127 54.7127 23.0241L34.0627 37.3881C32.3925 38.4249 30.4658 38.9743 28.5 38.9743C26.5342 38.9743 24.6075 38.4249 22.9373 37.3881L2.28734 23.0241C2.11069 22.9131 1.90752 22.8515 1.69899 22.8457C1.49045 22.8399 1.28418 22.8902 1.10167 22.9912C0.919147 23.0922 0.767058 23.2404 0.661237 23.4202C0.555417 23.5999 0.499739 23.8048 0.500001 24.0134V43.7954C0.500001 45.6519 1.2375 47.4324 2.55025 48.7452C3.86301 50.0579 5.64348 50.7954 7.5 50.7954H49.5C51.3565 50.7954 53.137 50.0579 54.4497 48.7452C55.7625 47.4324 56.5 45.6519 56.5 43.7954V24.0134C56.5007 23.8047 56.4451 23.5996 56.3392 23.4198C56.2333 23.24 56.0809 23.092 55.898 22.9914V22.9914Z" fill="white"/>
<path d="M56.5 13.4614C56.5 11.6049 55.7625 9.82443 54.4497 8.51168C53.137 7.19892 51.3565 6.46143 49.5 6.46143H7.5C5.64348 6.46143 3.86301 7.19892 2.55025 8.51168C1.2375 9.82443 0.5 11.6049 0.5 13.4614C0.499912 13.5203 0.514873 13.5782 0.543459 13.6297C0.572046 13.6811 0.613308 13.7244 0.663333 13.7554L26.6333 31.4514C27.1895 31.7971 27.8312 31.9803 28.486 31.9803C29.1408 31.9803 29.7825 31.7971 30.3387 31.4514L56.3227 13.7554C56.375 13.7258 56.4188 13.6832 56.4499 13.6317C56.4809 13.5802 56.4982 13.5215 56.5 13.4614V13.4614Z" fill="white"/>
</g>
<defs>
<clipPath id="clip0_1_7755">
<rect width="56" height="56" fill="white" transform="translate(0.5)"/>
</clipPath>
</defs>
</svg>
