<svg width="19" height="20" viewBox="0 0 19 20" fill="none" xmlns="http://www.w3.org/2000/svg">
<path fill-rule="evenodd" clip-rule="evenodd" d="M0.884766 1.07817C0.884766 0.53557 1.32463 0.0957031 1.86724 0.0957031H17.3207C17.8633 0.0957031 18.3032 0.53557 18.3032 1.07817V18.7626C18.3032 19.1565 18.068 19.5123 17.7057 19.6666C17.3433 19.8209 16.9238 19.7439 16.6399 19.4709L9.59399 12.6979L2.54809 19.4709C2.26416 19.7439 1.84468 19.8209 1.48232 19.6666C1.11996 19.5123 0.884766 19.1565 0.884766 18.7626V1.07817ZM2.84971 2.06064V16.4554L8.91313 10.6269C9.29343 10.2613 9.89455 10.2613 10.2748 10.6269L16.3383 16.4554V2.06064H2.84971Z" fill="#2C3B29"/>
</svg>
