<svg width="22" height="20" viewBox="0 0 22 20" fill="none" xmlns="http://www.w3.org/2000/svg">
<path fill-rule="evenodd" clip-rule="evenodd" d="M1.4346 0.423811L20.7515 0.422852C21.1034 0.422834 21.4285 0.611047 21.6036 0.916268C21.7788 1.22149 21.7774 1.59709 21.5998 1.90095L11.6497 18.9311C11.4471 19.2777 11.054 19.4663 10.6569 19.4072C10.2597 19.3482 9.9385 19.0534 9.84559 18.6628L7.51481 8.86265L0.740615 2.10167C0.459239 1.82084 0.374828 1.39813 0.526771 1.03077C0.678713 0.663417 1.03706 0.423831 1.4346 0.423811ZM9.53314 8.85669L11.1899 15.8229L18.0724 4.04331L9.53314 8.85669ZM17.0075 2.38798L3.8097 2.38863L8.57278 7.14242L17.0075 2.38798Z" fill="#2C3B29"/>
</svg>
