<svg width="22" height="22" viewBox="0 0 22 22" fill="none" xmlns="http://www.w3.org/2000/svg">
<path fill-rule="evenodd" clip-rule="evenodd" d="M10.6048 0.145106C13.1873 -0.0335656 15.7434 0.750559 17.7954 2.34741C19.8469 3.94391 21.2535 6.24261 21.757 8.81186C22.2342 11.2465 21.8705 13.7704 20.733 15.9601L21.9312 20.4873C22.0216 20.8286 21.9218 21.1921 21.6699 21.4396C21.4181 21.687 21.0528 21.7802 20.7132 21.6838L16.3441 20.4435C14.1982 21.6095 11.7178 21.9952 9.31765 21.5261C6.77628 21.0293 4.50349 19.6091 2.9216 17.5357C1.34004 15.4628 0.556172 12.8777 0.713068 10.2633C0.869967 7.64892 1.95727 5.17902 3.77611 3.31598C5.59535 1.45254 8.02234 0.323772 10.6048 0.145106ZM16.5886 3.89812C14.9157 2.59631 12.8369 1.96031 10.7404 2.10536C8.64376 2.25042 6.66758 3.16706 5.18211 4.68863C3.69624 6.2106 2.80335 8.23375 2.67448 10.3811C2.54561 12.5284 3.18997 14.6481 4.48379 16.3439C5.7773 18.0393 7.63039 19.1941 9.69461 19.5976C11.7586 20.0011 13.8973 19.6268 15.7121 18.5424C15.9445 18.4036 16.2239 18.3668 16.4843 18.4407L19.5903 19.3225L18.7336 16.0856C18.6678 15.8369 18.7021 15.5724 18.8292 15.3487C19.8862 13.4889 20.2422 11.2992 19.8288 9.18979C19.4154 7.08052 18.2619 5.20029 16.5886 3.89812Z" fill="#2C3B29"/>
</svg>
