<svg width="23" height="20" viewBox="0 0 23 20" fill="none" xmlns="http://www.w3.org/2000/svg">
<mask id="path-1-inside-1_5526_5483" fill="white">
<path d="M15.7395 1.96798C17.009 2.03937 18.1993 2.61828 19.0511 3.57855C19.9028 4.53881 20.347 5.8026 20.2867 7.09451C20.2867 10.1127 17.7252 11.9666 15.2672 14.1899C12.841 16.3936 11.5342 17.5981 11.1111 17.8761C10.6504 17.5726 9.04134 16.0851 6.95511 14.1899C4.48642 11.9577 1.93562 10.0861 1.93562 7.09451C1.87532 5.8026 2.31944 4.53881 3.17119 3.57855C4.02294 2.61828 5.21328 2.03937 6.48282 1.96798C7.18609 1.9463 7.88286 2.11062 8.50501 2.44487C9.12717 2.77913 9.65341 3.27188 10.0323 3.87495C10.8436 5.02936 10.9788 5.60705 11.114 5.60705C11.2493 5.60705 11.3825 5.02936 12.1861 3.87201C12.5629 3.26614 13.0893 2.77144 13.7128 2.43732C14.3364 2.1032 15.0352 1.94137 15.7395 1.96798M15.7395 0.00303938C14.8624 -0.0255242 13.9903 0.147544 13.1881 0.509356C12.386 0.871169 11.6743 1.4124 11.1063 2.09275C10.5388 1.41438 9.82861 0.8744 9.02834 0.512698C8.22808 0.150996 7.35814 -0.0231796 6.48282 0.00303938C4.70071 0.0739265 3.0187 0.859737 1.80459 2.18864C0.590489 3.51754 -0.0569209 5.2814 0.00393267 7.09451C0.00393267 10.6412 2.46684 12.8194 4.84764 14.9248C5.12097 15.1665 5.39721 15.4101 5.67151 15.6587L6.66343 16.5606C7.74521 17.6077 8.87933 18.5974 10.0613 19.5257C10.374 19.7317 10.7386 19.8413 11.1111 19.8413C11.4837 19.8413 11.8483 19.7317 12.161 19.5257C13.3806 18.569 14.5496 17.5475 15.6632 16.4653L16.5537 15.6558C16.8367 15.4003 17.1235 15.1459 17.4084 14.8953C19.6627 12.9058 22.2183 10.6511 22.2183 7.09451C22.2792 5.2814 21.6318 3.51754 20.4177 2.18864C19.2036 0.859737 17.5216 0.0739265 15.7395 0.00303938V0.00303938Z"/>
</mask>
<path d="M20.2867 7.09451L19.3053 7.0487L19.3042 7.07159V7.09451H20.2867ZM15.2672 14.1899L14.6081 13.4613L14.6066 13.4626L15.2672 14.1899ZM11.1111 17.8761L10.5706 18.6965L11.1104 19.0523L11.6507 18.6972L11.1111 17.8761ZM6.95511 14.1899L7.61573 13.4627L7.61404 13.4612L6.95511 14.1899ZM1.93562 7.09451H2.91809V7.07159L2.91702 7.0487L1.93562 7.09451ZM6.48282 1.96798L6.45254 0.985976L6.44009 0.98636L6.42765 0.987059L6.48282 1.96798ZM10.0323 3.87495L9.20038 4.39761L9.21388 4.4191L9.22848 4.43987L10.0323 3.87495ZM12.1861 3.87201L12.9931 4.43234L13.0073 4.41192L13.0204 4.3908L12.1861 3.87201ZM11.1063 2.09275L10.3528 2.72319L11.1071 3.62477L11.8605 2.72242L11.1063 2.09275ZM6.48282 0.00303938L6.4534 -0.979038L6.44377 -0.978655L6.48282 0.00303938ZM0.00393267 7.09451H0.986403V7.07803L0.98585 7.06155L0.00393267 7.09451ZM4.84764 14.9248L4.1968 15.6608L4.19684 15.6608L4.84764 14.9248ZM5.67151 15.6587L6.33245 14.9318L6.33123 14.9307L5.67151 15.6587ZM6.66343 16.5606L7.34673 15.8547L7.33571 15.844L7.32437 15.8337L6.66343 16.5606ZM10.0613 19.5257L9.45441 20.2983L9.48664 20.3237L9.52087 20.3462L10.0613 19.5257ZM12.161 19.5257L12.7014 20.3462L12.7354 20.3238L12.7674 20.2987L12.161 19.5257ZM15.6632 16.4653L15.0023 15.7383L14.9902 15.7493L14.9785 15.7607L15.6632 16.4653ZM16.5537 15.6558L15.8954 14.9264L15.8928 14.9288L16.5537 15.6558ZM17.4084 14.8953L18.0572 15.6331L18.0585 15.6319L17.4084 14.8953ZM22.2183 7.09451L21.2364 7.06155L21.2359 7.07803V7.09451H22.2183ZM15.6843 2.9489C16.6897 3.00544 17.6362 3.46399 18.3161 4.23049L19.7861 2.92661C18.7625 1.77257 17.3283 1.07331 15.7946 0.987059L15.6843 2.9489ZM18.3161 4.23049C18.9965 4.99755 19.3537 6.01043 19.3053 7.0487L21.2681 7.14032C21.3402 5.59477 20.8092 4.08008 19.7861 2.92661L18.3161 4.23049ZM19.3042 7.09451C19.3042 8.29056 18.8081 9.29105 17.949 10.3052C17.0576 11.3576 15.895 12.2973 14.6081 13.4613L15.9262 14.9185C17.0975 13.8592 18.4446 12.7603 19.4483 11.5753C20.4845 10.3522 21.2691 8.9166 21.2691 7.09451H19.3042ZM14.6066 13.4626C13.3901 14.5676 12.462 15.415 11.7826 16.0232C11.0749 16.6568 10.7068 16.9662 10.5715 17.0551L11.6507 18.6972C11.9385 18.5081 12.4353 18.0762 13.0933 17.4871C13.7796 16.8726 14.7181 16.0159 15.9277 14.9172L14.6066 13.4626ZM11.6517 17.0558C11.4982 16.9546 11.0473 16.5703 10.2989 15.8987C9.58112 15.2545 8.66332 14.4144 7.61573 13.4627L6.2945 14.9171C7.33313 15.8606 8.26299 16.7118 8.9865 17.3611C9.6794 17.9829 10.2634 18.4941 10.5706 18.6965L11.6517 17.0558ZM7.61404 13.4612C6.32486 12.2955 5.15987 11.3469 4.27032 10.2932C3.4111 9.27548 2.91809 8.27692 2.91809 7.09451H0.953151C0.953151 8.90372 1.73554 10.3368 2.76889 11.5608C3.77191 12.7489 5.11667 13.8521 6.29619 14.9187L7.61404 13.4612ZM2.91702 7.0487C2.86856 6.01043 3.2258 4.99755 3.90619 4.23049L2.43619 2.92661C1.41307 4.08008 0.88208 5.59478 0.954219 7.14032L2.91702 7.0487ZM3.90619 4.23049C4.58606 3.46399 5.53261 3.00544 6.53798 2.9489L6.42765 0.987059C4.89395 1.07331 3.45981 1.77257 2.43619 2.92661L3.90619 4.23049ZM6.51309 2.94998C7.04323 2.93364 7.56927 3.05742 8.04004 3.31034L8.96999 1.5794C8.19646 1.16381 7.32895 0.958957 6.45254 0.985976L6.51309 2.94998ZM8.04004 3.31034C8.51092 3.56333 8.91124 3.93738 9.20038 4.39761L10.8642 3.3523C10.3956 2.60637 9.74341 1.99492 8.96999 1.5794L8.04004 3.31034ZM9.22848 4.43987C9.602 4.97134 9.81698 5.36518 9.95749 5.63186C10.0178 5.74637 10.0981 5.90428 10.165 6.01315C10.1984 6.06746 10.2671 6.17543 10.3706 6.27797C10.4698 6.37624 10.7224 6.58952 11.114 6.58952V4.62458C11.4718 4.62458 11.6907 4.81981 11.7534 4.88198C11.8205 4.94841 11.8501 5.00223 11.8391 4.98434C11.8173 4.94883 11.7877 4.89016 11.6959 4.71594C11.5322 4.40518 11.2739 3.93297 10.8361 3.31004L9.22848 4.43987ZM11.114 6.58952C11.5062 6.58952 11.7591 6.37569 11.8588 6.27656C11.9625 6.17342 12.0311 6.06488 12.0643 6.01032C12.1312 5.90075 12.2108 5.74261 12.2707 5.62762C12.4101 5.36011 12.623 4.96536 12.9931 4.43234L11.3791 3.31167C10.9456 3.936 10.6901 4.40878 10.5282 4.71945C10.4375 4.89355 10.4081 4.95217 10.3868 4.98708C10.3761 5.00477 10.4058 4.95039 10.4731 4.88337C10.5365 4.82035 10.7557 4.62458 11.114 4.62458V6.58952ZM13.0204 4.3908C13.3071 3.92979 13.7064 3.5554 14.1769 3.3033L13.2488 1.57134C12.4722 1.98747 11.8186 2.60249 11.3518 3.35321L13.0204 4.3908ZM14.1769 3.3033C14.6472 3.05127 15.1731 2.92975 15.7024 2.94975L15.7766 0.98621C14.8972 0.952981 14.0255 1.15513 13.2488 1.57134L14.1769 3.3033ZM15.7714 -0.97891C14.744 -1.01237 13.7228 -0.809566 12.7842 -0.386232L13.5921 1.40494C14.2579 1.10465 14.9809 0.961325 15.7075 0.984989L15.7714 -0.97891ZM12.7842 -0.386232C11.8457 0.0370727 11.0146 0.669619 10.3521 1.46309L11.8605 2.72242C12.3341 2.15519 12.9262 1.70526 13.5921 1.40494L12.7842 -0.386232ZM11.8598 1.46232C11.1981 0.671381 10.369 0.0404772 9.43299 -0.382574L8.6237 1.40797C9.28823 1.70832 9.87941 2.15739 10.3528 2.72319L11.8598 1.46232ZM9.43299 -0.382574C8.49692 -0.805655 7.47857 -1.0097 6.4534 -0.97899L6.51223 0.985069C7.23772 0.963338 7.95923 1.10765 8.6237 1.40797L9.43299 -0.382574ZM6.44377 -0.978655C4.39676 -0.89723 2.46851 0.00536155 1.07926 1.52596L2.52993 2.85131C3.56889 1.71411 5.00466 1.04508 6.52186 0.984733L6.44377 -0.978655ZM1.07926 1.52596C-0.30946 3.04599 -1.04737 5.06012 -0.977985 7.12747L0.98585 7.06155C0.933529 5.50267 1.49044 3.98909 2.52993 2.85131L1.07926 1.52596ZM-0.978538 7.09451C-0.978538 11.1501 1.87771 13.6099 4.1968 15.6608L5.49848 14.1888C3.05596 12.0288 0.986403 10.1323 0.986403 7.09451H-0.978538ZM4.19684 15.6608C4.47182 15.9039 4.74292 16.1431 5.01179 16.3867L6.33123 14.9307C6.05149 14.6772 5.77013 14.429 5.49844 14.1888L4.19684 15.6608ZM5.01056 16.3856L6.00248 17.2875L7.32437 15.8337L6.33245 14.9318L5.01056 16.3856ZM5.98013 17.2666C7.08619 18.3371 8.24582 19.3491 9.45441 20.2983L10.6681 18.7531C9.51284 17.8457 8.40424 16.8783 7.34673 15.8547L5.98013 17.2666ZM9.52087 20.3462C9.99314 20.6573 10.5455 20.8237 11.1111 20.8237V18.8588C10.9317 18.8588 10.7548 18.8061 10.6017 18.7052L9.52087 20.3462ZM11.1111 20.8237C11.6768 20.8237 12.2291 20.6573 12.7014 20.3462L11.6206 18.7052C11.4674 18.8061 11.2905 18.8588 11.1111 18.8588V20.8237ZM12.7674 20.2987C14.0143 19.3206 15.2095 18.2762 16.3479 17.1699L14.9785 15.7607C13.8897 16.8188 12.7468 17.8175 11.5546 18.7527L12.7674 20.2987ZM16.324 17.1923L17.2146 16.3827L15.8928 14.9288L15.0023 15.7383L16.324 17.1923ZM17.212 16.3851C17.4908 16.1333 17.7743 15.8819 18.0572 15.6331L16.7597 14.1575C16.4727 14.4099 16.1825 14.6673 15.8954 14.9265L17.212 16.3851ZM18.0585 15.6319C20.2496 13.6982 23.2008 11.1613 23.2008 7.09451H21.2359C21.2359 10.1408 19.0758 12.1134 16.7583 14.1587L18.0585 15.6319ZM23.2003 7.12747C23.2697 5.06012 22.5317 3.04599 21.143 1.52596L19.6924 2.85131C20.7318 3.98909 21.2888 5.50267 21.2364 7.06155L23.2003 7.12747ZM21.143 1.52596C19.7538 0.00536155 17.8255 -0.89723 15.7785 -0.978655L15.7004 0.984733C17.2176 1.04508 18.6534 1.71411 19.6924 2.85131L21.143 1.52596Z" fill="#2C3B29" mask="url(#path-1-inside-1_5526_5483)"/>
</svg>
