<svg width="24" height="24" viewBox="0 0 24 24" fill="none" xmlns="http://www.w3.org/2000/svg">
<path d="M20.2334 10.7475C20.2334 17.2021 13.6224 21.1786 12.2485 21.936C12.1724 21.978 12.0869 22 12 22C11.9131 22 11.8276 21.978 11.7514 21.936C10.3765 21.1786 3.76758 17.2021 3.76758 10.7475C3.76758 5.6019 6.85492 2 12.0005 2C17.1461 2 20.2334 5.6019 20.2334 10.7475Z" stroke="#58B749" stroke-width="2" stroke-linecap="round" stroke-linejoin="round"/>
<path d="M7.88379 10.2327C7.88379 11.3244 8.31749 12.3715 9.08947 13.1434C9.86146 13.9154 10.9085 14.3491 12.0002 14.3491C13.092 14.3491 14.139 13.9154 14.911 13.1434C15.683 12.3715 16.1167 11.3244 16.1167 10.2327C16.1167 9.14092 15.683 8.09388 14.911 7.32189C14.139 6.54991 13.092 6.11621 12.0002 6.11621C10.9085 6.11621 9.86146 6.54991 9.08947 7.32189C8.31749 8.09388 7.88379 9.14092 7.88379 10.2327V10.2327Z" stroke="#58B749" stroke-width="2" stroke-linecap="round" stroke-linejoin="round"/>
</svg>
