<svg width="189" height="50" viewBox="0 0 189 50" fill="none" xmlns="http://www.w3.org/2000/svg">
<path d="M25.7977 45.4395C33.6346 41.2419 41.7153 27.1574 11.3435 4.40067C4.95261 10.988 -1.10386 28.4181 25.7977 45.4395Z" fill="white"/>
<path d="M32.3188 25.3501C36.6416 27.4923 45.4112 26.6293 45.9067 6.03991C40.9829 5.28924 31.3719 8.10033 32.3188 25.3501Z" fill="white"/>
<path d="M69.3491 33.9912H62.0627L55.5142 15.8828H63.4462L68.1809 29.8715L73.5304 15.8828H76.2974L69.3491 33.9912ZM85.8243 34.2987C80.7822 34.2987 76.2321 32.1773 76.2321 26.797C76.2321 21.386 80.7822 19.1109 85.8243 19.1109C90.8356 19.1109 95.3858 20.5559 95.3858 25.5365C95.3858 25.9977 95.3551 26.4281 95.2936 26.8893H83.7337C83.7029 27.3812 83.7029 27.8423 83.7029 28.242C83.7029 31.3472 84.3178 32.0851 85.8243 32.0851C87.2385 32.0851 87.669 31.2242 87.669 29.687C87.669 29.4718 87.6382 29.2566 87.6382 29.0106H95.1091C95.1091 29.1336 95.1399 29.2566 95.1399 29.3795C95.1399 32.7922 90.9279 34.2987 85.8243 34.2987ZM83.7644 25.0138H87.7305C87.7612 24.7371 87.7612 24.4604 87.7612 24.2145C87.7612 22.2468 87.0233 21.386 85.7321 21.386C84.5023 21.386 83.7337 22.2468 83.7337 24.2452C83.7337 24.4912 83.7337 24.7371 83.7644 25.0138ZM107.488 40.632C98.8489 40.632 96.7583 39.2485 96.7583 37.4038C96.7583 36.1433 98.234 35.3132 100.386 35.1902C99.3408 34.6983 98.7259 33.9605 98.7259 33.0074C98.7259 31.6854 99.9557 30.763 101.923 30.5171C99.433 29.5333 98.111 27.8116 98.111 25.3828C98.111 21.5397 101.493 19.4184 107.611 19.4184C107.703 19.4184 107.796 19.4184 107.888 19.4184H110.347C111.454 19.4184 111.854 18.8957 111.854 18.1886C111.854 17.9119 111.792 17.6044 111.608 17.2048L118.064 16.4669C118.279 16.9588 118.433 17.5737 118.433 18.1271C118.433 19.6951 117.541 20.8019 114.406 20.8019C116.189 21.8164 117.142 23.3536 117.142 25.3828C117.142 29.2566 113.76 31.3779 107.611 31.3779H105.459C104.444 31.3779 103.768 31.5931 103.768 32.3618C103.768 33.1304 104.444 33.3763 105.459 33.3763H109.302C116.158 33.3763 118.433 34.3601 118.433 36.4815C118.433 38.6336 115.789 40.632 107.488 40.632ZM107.611 29.5025C108.872 29.5025 109.732 28.6417 109.732 25.3828C109.732 22.1546 108.872 21.3245 107.611 21.3245C106.351 21.3245 105.52 22.1546 105.52 25.3828C105.52 28.6417 106.351 29.5025 107.611 29.5025ZM107.488 38.6336C110.04 38.6336 110.993 38.0802 110.993 37.0042C110.993 35.8974 110.04 35.3747 107.488 35.3747C104.936 35.3747 104.168 35.8974 104.168 37.0042C104.168 38.0802 104.936 38.6336 107.488 38.6336ZM125.452 34.2987C121.855 34.2987 119.918 32.6999 119.918 30.5478C119.918 28.3035 121.24 27.3504 126.805 25.9054C129.941 25.0753 130.525 24.399 130.525 22.9847C130.525 21.9394 129.941 21.386 129.141 21.386C128.311 21.386 127.758 21.9701 127.758 23.2307C127.758 23.4766 127.789 23.7841 127.85 24.0608H120.41C120.379 23.8456 120.349 23.6303 120.349 23.4459C120.349 21.1093 122.808 19.1109 129.049 19.1109C134.737 19.1109 137.442 21.2323 137.442 25.475V30.1482C137.442 30.7938 137.688 31.1012 138.18 31.1012C138.611 31.1012 138.918 30.886 139.164 30.4249L140.548 31.4087C139.687 33.1304 138.057 34.2987 135.475 34.2987C133.108 34.2987 131.755 33.4378 131.048 32.1465C130.002 33.4993 128.373 34.2987 125.452 34.2987ZM128.773 31.5317C129.695 31.5317 130.525 30.7938 130.525 29.1336V26.4896C130.064 26.9815 129.695 27.1967 128.926 27.5964C127.973 28.0883 127.358 28.6417 127.358 29.8715C127.358 30.886 127.85 31.5317 128.773 31.5317ZM148.239 33.9912H141.322V19.4184H146.21C146.887 19.6951 147.717 20.6174 147.993 22.2468C149.069 20.2485 151.037 19.1109 153.589 19.1109C157.094 19.1109 159.553 21.3245 159.553 25.4443V33.9912H152.605V25.4443C152.605 23.6303 151.806 22.831 150.453 22.831C149.069 22.831 148.239 23.6303 148.239 25.4443V33.9912ZM171.568 33.9912H168.093L174.734 25.9977L168.37 15.8828H176.21L179.623 21.3245L183.835 15.8828H187.309L181.098 23.6611L187.616 33.9912H179.746L176.179 28.3342L171.568 33.9912Z" fill="white"/>
</svg>
