<svg width="170" height="52" viewBox="0 0 170 52" fill="none" xmlns="http://www.w3.org/2000/svg">
<path d="M27.6146 47.2481C35.6736 42.9315 43.9833 28.4479 12.7508 5.04628C6.17877 11.8203 -0.049337 29.7443 27.6146 47.2481Z" fill="#0F220C"/>
<path d="M34.3209 26.5888C38.7662 28.7917 47.7843 27.9043 48.2939 6.73138C43.2305 5.95943 33.3472 8.85019 34.3209 26.5888Z" fill="#58B749"/>
<path d="M72.424 34.7246H65.3875L58.3771 17.2636H64.293L68.8015 29.773H69.1403L73.5447 17.2636H79.4345L72.424 34.7246ZM87.2811 34.9852C82.8247 34.9852 79.6973 33.0828 79.6973 28.1572C79.6973 23.8832 82.7986 21.3292 87.1769 21.3292C91.7115 21.3292 94.6043 23.5965 94.6043 27.8184C94.6043 28.2614 94.5783 28.6002 94.5261 29.0693H84.232C84.3102 30.6591 85.0138 31.1021 87.0987 31.1021C89.0794 31.1021 89.6006 30.7633 89.6006 29.9815V29.6948H94.5001V30.0075C94.5001 32.9264 91.7115 34.9852 87.2811 34.9852ZM87.0726 25.082C85.2744 25.082 84.5187 25.4729 84.3102 26.5935H89.8612C89.6788 25.4729 88.8969 25.082 87.0726 25.082ZM101.753 33.2652C97.8438 33.2652 95.6547 31.0239 95.6547 27.2711C95.6547 23.5704 98.0002 21.3292 101.883 21.3292C104.542 21.3292 106.314 22.3977 106.679 24.665H106.939V21.5898H111.526V32.5094C111.526 37.2004 108.737 39.4156 103.682 39.4156C99.0948 39.4156 96.4365 37.4871 96.4365 34.047H101.336C101.336 35.1155 101.466 35.3761 104.02 35.3761C106.131 35.3761 106.626 35.0634 106.626 32.8482V30.0857H106.366C106.027 31.9882 104.646 33.2652 101.753 33.2652ZM100.606 27.2711C100.606 28.5742 101.232 29.0693 103.525 29.0693C105.714 29.0693 106.626 28.8087 106.626 27.4275V27.2451C106.626 25.8378 105.714 25.5511 103.525 25.5511C101.232 25.5511 100.606 25.9941 100.606 27.2711ZM117.342 34.9852C114.371 34.9852 112.703 33.63 112.703 31.3888C112.703 29.5384 113.98 28.2093 116.951 27.9227L122.294 27.4014V27.1408C122.294 25.8117 121.721 25.6032 119.974 25.6032C118.359 25.6032 117.863 25.9159 117.863 27.0105V27.1148H112.964V27.0626C112.964 23.5704 115.883 21.3292 120.339 21.3292C124.926 21.3292 127.141 23.5704 127.141 27.2451V34.7246H122.554V31.9621H122.294C121.799 33.8125 120.183 34.9852 117.342 34.9852ZM117.629 31.076C117.629 31.493 118.046 31.5712 118.802 31.5712C121.173 31.5712 122.138 31.2845 122.268 30.1118L118.254 30.5809C117.811 30.633 117.629 30.7894 117.629 31.076ZM133.493 34.7246H128.594V21.5898H133.18V25.5771H133.441C133.728 23.388 135.161 21.3292 138.679 21.3292C142.224 21.3292 143.891 23.4662 143.891 26.3069V34.7246H138.992V28.1051C138.992 26.2808 138.314 25.7075 136.177 25.7075C134.014 25.7075 133.493 26.2547 133.493 27.9487V34.7246ZM154.348 34.7246H147.937L154.53 26.1505V25.8117L147.937 17.2636H154.348L158.57 22.9189H158.909L162.896 17.2636H169.307L162.74 25.9159V26.2547L169.307 34.7246H162.896L158.7 29.0433H158.361L154.348 34.7246Z" fill="#0F220C"/>
</svg>
