<svg width="170" height="52" viewBox="0 0 170 52" fill="none" xmlns="http://www.w3.org/2000/svg">
<path d="M27.6148 46.7228C35.6737 42.4062 43.9835 27.9226 12.751 4.521C6.17893 11.295 -0.0491753 29.219 27.6148 46.7228Z" fill="white"/>
<path d="M34.3209 26.0635C38.7662 28.2664 47.7844 27.379 48.2939 6.20607C43.2305 5.43412 33.3472 8.32488 34.3209 26.0635Z" fill="white"/>
<path d="M72.424 34.1992H65.3875L58.3771 16.7383H64.293L68.8015 29.2476H69.1403L73.5447 16.7383H79.4345L72.424 34.1992ZM87.2811 34.4598C82.8247 34.4598 79.6973 32.5574 79.6973 27.6318C79.6973 23.3578 82.7986 20.8038 87.1769 20.8038C91.7115 20.8038 94.6043 23.0711 94.6043 27.293C94.6043 27.7361 94.5783 28.0748 94.5261 28.5439H84.232C84.3102 30.1337 85.0138 30.5767 87.0987 30.5767C89.0794 30.5767 89.6006 30.2379 89.6006 29.4561V29.1694H94.5001V29.4822C94.5001 32.401 91.7115 34.4598 87.2811 34.4598ZM87.0726 24.5566C85.2744 24.5566 84.5187 24.9475 84.3102 26.0681H89.8612C89.6788 24.9475 88.8969 24.5566 87.0726 24.5566ZM101.753 32.7398C97.8438 32.7398 95.6547 30.4985 95.6547 26.7457C95.6547 23.045 98.0002 20.8038 101.883 20.8038C104.542 20.8038 106.314 21.8723 106.679 24.1396H106.939V21.0644H111.526V31.984C111.526 36.675 108.737 38.8902 103.682 38.8902C99.0948 38.8902 96.4365 36.9617 96.4365 33.5216H101.336C101.336 34.5901 101.466 34.8507 104.02 34.8507C106.131 34.8507 106.626 34.538 106.626 32.3228V29.5603H106.366C106.027 31.4628 104.646 32.7398 101.753 32.7398ZM100.606 26.7457C100.606 28.0488 101.232 28.5439 103.525 28.5439C105.714 28.5439 106.626 28.2833 106.626 26.9021V26.7197C106.626 25.3124 105.714 25.0257 103.525 25.0257C101.232 25.0257 100.606 25.4687 100.606 26.7457ZM117.342 34.4598C114.371 34.4598 112.703 33.1047 112.703 30.8634C112.703 29.0131 113.98 27.6839 116.951 27.3973L122.294 26.876V26.6154C122.294 25.2863 121.721 25.0778 119.974 25.0778C118.359 25.0778 117.863 25.3906 117.863 26.4851V26.5894H112.964V26.5372C112.964 23.045 115.883 20.8038 120.339 20.8038C124.926 20.8038 127.141 23.045 127.141 26.7197V34.1992H122.554V31.4367H122.294C121.799 33.2871 120.183 34.4598 117.342 34.4598ZM117.629 30.5507C117.629 30.9676 118.046 31.0458 118.802 31.0458C121.173 31.0458 122.138 30.7591 122.268 29.5864L118.254 30.0555C117.811 30.1076 117.629 30.264 117.629 30.5507ZM133.493 34.1992H128.594V21.0644H133.18V25.0518H133.441C133.728 22.8626 135.161 20.8038 138.679 20.8038C142.224 20.8038 143.891 22.9408 143.891 25.7815V34.1992H138.992V27.5797C138.992 25.7554 138.314 25.1821 136.177 25.1821C134.014 25.1821 133.493 25.7293 133.493 27.4233V34.1992ZM154.348 34.1992H147.937L154.53 25.6251V25.2863L147.937 16.7383H154.348L158.57 22.3935H158.909L162.896 16.7383H169.307L162.74 25.3906V25.7293L169.307 34.1992H162.896L158.7 28.5179H158.361L154.348 34.1992Z" fill="white"/>
</svg>
