<svg width="24" height="24" viewBox="0 0 24 24" fill="none" xmlns="http://www.w3.org/2000/svg">
<path d="M14.7019 20.8623L14.7128 20.87C15.6573 21.4713 16.7786 21.7325 17.8916 21.6102C19.0045 21.488 20.0425 20.9897 20.8339 20.1978L21.5215 19.5102C21.6738 19.358 21.7947 19.1772 21.8772 18.9782C21.9596 18.7792 22.0021 18.5659 22.0021 18.3505C22.0021 18.1351 21.9596 17.9218 21.8772 17.7228C21.7947 17.5238 21.6738 17.343 21.5215 17.1908L18.6216 14.2931C18.4693 14.1407 18.2885 14.0198 18.0895 13.9374C17.8906 13.8549 17.6773 13.8125 17.4619 13.8125C17.2465 13.8125 17.0332 13.8549 16.8342 13.9374C16.6352 14.0198 16.4544 14.1407 16.3021 14.2931C15.9947 14.6004 15.5777 14.7731 15.1429 14.7731C14.7082 14.7731 14.2912 14.6004 13.9838 14.2931L9.34701 9.65522C9.03964 9.34776 8.86696 8.9308 8.86696 8.49604C8.86696 8.06128 9.03964 7.64432 9.34701 7.33685C9.49937 7.18459 9.62024 7.0038 9.7027 6.8048C9.78516 6.60581 9.82761 6.39252 9.82761 6.17712C9.82761 5.96172 9.78516 5.74843 9.7027 5.54944C9.62024 5.35044 9.49937 5.16965 9.34701 5.01739L6.44823 2.1197C6.14076 1.81232 5.7238 1.63965 5.28904 1.63965C4.85428 1.63965 4.43732 1.81232 4.12986 2.1197L3.44123 2.80723C2.64941 3.5988 2.15134 4.63682 2.02931 5.74977C1.90728 6.86273 2.1686 7.98401 2.77009 8.92834L2.77665 8.93927C5.95327 13.6392 10.0014 17.6866 14.7019 20.8623V20.8623Z" stroke="#58B749" stroke-width="2" stroke-linecap="round" stroke-linejoin="round"/>
</svg>
