<svg width="198" height="32" viewBox="0 0 198 32" fill="none" xmlns="http://www.w3.org/2000/svg">
<path d="M0.37793 31.4361V0.0942383H13.4111C19.0288 0.0942383 22.6701 4.23094 22.6701 9.61887C22.6701 15.0885 19.0186 19.1384 13.4111 19.1384H5.3624V31.4361H0.37793ZM5.35729 4.33819V14.971H13.1966C15.6888 14.971 17.6908 12.4175 17.6908 9.63419C17.6908 6.85085 15.6888 4.33819 13.1966 4.33819H5.35729ZM47.8223 24.797C49.4259 24.4855 50.9836 24.1739 52.5412 23.9033C52.8527 25.6856 53.9201 27.8204 57.5206 27.8204C58.3224 27.8204 62.2854 27.5088 62.2854 24.6642C62.2854 19.2763 48.4964 24.8378 48.4964 15.1855C48.4964 11.3553 52.3216 8.46468 57.1273 8.46468C61.933 8.46468 66.0289 10.4666 66.6928 15.4971C65.0943 15.7626 63.5367 16.0742 61.979 16.3857C61.6675 13.5819 59.9362 12.5605 57.2601 12.5605C54.9007 12.5605 53.3022 13.8066 53.3022 15.1855C53.3022 17.0087 54.9926 17.499 57.6636 17.7646C62.7349 18.3008 67.0503 19.4091 67.0503 24.6642C67.0503 29.378 62.9136 31.8702 57.5257 31.8702C51.7445 31.8702 48.4505 28.8469 47.8223 24.797V24.797ZM68.3015 12.5401V8.88856H72.1727V2.40773H76.9835V8.90388H81.6564V12.5401H76.9835V25.3077C76.9835 27.09 77.5197 27.6212 79.0774 27.6212C79.7413 27.6212 81.2121 27.5344 81.2121 27.5344V31.4361C81.2121 31.4361 79.4911 31.6149 77.7853 31.6149C73.5567 31.6149 72.1676 29.3422 72.1676 25.0268V12.5401H68.3015ZM98.3871 18.8728C98.3871 15.446 97.6312 12.5554 94.0257 12.5554C90.5989 12.5554 89.6643 15.446 89.6643 18.8728V31.4361H84.8585V8.90388H89.2404L89.6847 11.3502C90.3537 10.104 93.0247 8.45957 95.6497 8.45957C99.383 8.45957 101.165 10.5024 101.921 11.8404C103.121 9.83847 106.058 8.45957 108.683 8.45957C114.811 8.45957 116.696 12.1979 116.696 18.8728V31.4361H111.916V18.8728C111.916 15.492 110.981 12.5095 107.554 12.5095C103.949 12.5095 103.193 15.4 103.193 18.8728V31.4361H98.3871V18.8728ZM125.398 16.6257C123.866 16.3602 122.242 16.0027 120.638 15.7371C121.149 10.7526 125.235 8.43914 129.938 8.43914C136.302 8.43914 139.596 11.5544 139.596 17.6931V25.5273C139.596 26.8602 139.861 27.6161 140.796 27.6161C141.187 27.6121 141.576 27.5519 141.95 27.4373V31.3544C141.023 31.6057 140.066 31.7261 139.106 31.7119C138.169 31.7722 137.244 31.4754 136.517 30.8813C135.79 30.2872 135.316 29.4399 135.188 28.5098C134.324 29.5376 133.249 30.3673 132.035 30.9427C130.822 31.5182 129.499 31.8258 128.156 31.8447C122.952 31.8447 119.837 28.9541 119.837 24.6948C119.837 21.1812 123.085 17.9791 129.029 17.9791H134.816V16.6257C134.816 14.8893 134.101 12.5401 129.964 12.5401C127.206 12.5401 125.516 13.919 125.424 16.6257H125.398ZM134.816 22.6776V21.5642H129.494C125.531 21.5642 124.734 23.5662 124.734 24.6795C124.734 26.2116 125.756 27.7948 128.692 27.7948C132.609 27.7948 134.79 25.1238 134.79 22.6878L134.816 22.6776ZM34.3806 31.906C32.0643 31.906 29.8 31.219 27.8741 29.9321C25.9482 28.6451 24.4473 26.8159 23.5611 24.6758C22.6749 22.5357 22.4433 20.1808 22.8955 17.9091C23.3478 15.6373 24.4636 13.5507 26.1019 11.9132C27.7401 10.2757 29.8272 9.16077 32.0991 8.70949C34.3711 8.25822 36.7258 8.49086 38.8655 9.37798C41.0052 10.2651 42.8338 11.7668 44.1199 13.6933C45.4061 15.6197 46.092 17.8843 46.091 20.2007C46.0883 23.3052 44.8535 26.2817 42.6578 28.4764C40.4621 30.6711 37.4851 31.9046 34.3806 31.906V31.906ZM34.3806 12.9487C32.9463 12.9487 31.5442 13.374 30.3516 14.1708C29.159 14.9677 28.2295 16.1003 27.6806 17.4254C27.1317 18.7506 26.9881 20.2087 27.2679 21.6154C27.5478 23.0222 28.2384 24.3144 29.2527 25.3286C30.2669 26.3428 31.559 27.0335 32.9658 27.3133C34.3725 27.5931 35.8307 27.4495 37.1558 26.9006C38.4809 26.3517 39.6135 25.4222 40.4104 24.2296C41.2073 23.0371 41.6326 21.635 41.6326 20.2007C41.6312 18.2777 40.8667 16.4339 39.507 15.0742C38.1473 13.7145 36.3035 12.95 34.3806 12.9487ZM171.857 23.5917C173.323 23.9901 174.793 24.4344 176.259 24.8838C175.238 28.1319 172.174 31.8702 166.045 31.8702C159.917 31.8702 155.458 27.1054 155.458 20.1649C155.458 13.2244 159.544 8.45957 165.826 8.45957C172.107 8.45957 175.968 12.6422 175.968 19.455C175.981 20.1677 175.952 20.8805 175.881 21.5898H160.422C160.509 24.8838 162.777 27.8204 166.04 27.8204C168.399 27.8204 170.713 26.707 171.872 23.5917H171.857ZM170.851 17.974C170.718 14.6391 169.12 12.4992 165.826 12.4992C162.618 12.4992 160.795 15.1702 160.662 17.974H170.851ZM178.042 24.797C179.645 24.4855 181.198 24.1739 182.755 23.9084C183.067 25.6856 184.139 27.8255 187.74 27.8255C188.542 27.8255 192.505 27.5139 192.505 24.6642C192.505 19.2814 178.716 24.8429 178.716 15.1855C178.716 11.3604 182.541 8.46468 187.347 8.46468C192.152 8.46468 196.243 10.4717 196.912 15.4971C195.308 15.7626 193.751 16.0742 192.198 16.3857C191.887 13.5819 190.155 12.5605 187.479 12.5605C185.12 12.5605 183.521 13.8066 183.521 15.1855C183.521 17.0087 185.212 17.499 187.878 17.7646C192.954 18.3008 197.27 19.4142 197.27 24.6642C197.27 29.3831 193.128 31.8702 187.745 31.8702C181.964 31.8702 178.67 28.8469 178.042 24.797V24.797ZM141.24 12.5401V8.88856H145.111V2.40773H149.917V8.90388H154.61V12.5401H149.938V25.3077C149.938 27.09 150.474 27.6212 152.031 27.6212C152.695 27.6212 154.166 27.5344 154.166 27.5344V31.4361C154.166 31.4361 152.445 31.6149 150.739 31.6149C146.511 31.6149 145.122 29.3422 145.122 25.0268V12.5401H141.24Z" fill="white"/>
</svg>
