<svg width="288" height="190" viewBox="0 0 288 190" fill="none" xmlns="http://www.w3.org/2000/svg">
<path d="M36 111.516V77H50.353C56.5396 77 60.5497 81.5556 60.5497 87.4891C60.5497 93.5127 56.5283 97.9727 50.353 97.9727H41.4892V111.516H36ZM41.4836 81.6737V93.3833H50.1168C52.8614 93.3833 55.0661 90.5712 55.0661 87.506C55.0661 84.4408 52.8614 81.6737 50.1168 81.6737H41.4836ZM88.2489 104.204C90.0149 103.861 91.7303 103.518 93.4456 103.22C93.7887 105.183 94.9642 107.534 98.9292 107.534C99.8123 107.534 104.177 107.191 104.177 104.058C104.177 98.1245 88.9913 104.249 88.9913 93.6195C88.9913 89.4014 93.2038 86.2181 98.4962 86.2181C103.789 86.2181 108.299 88.4228 109.03 93.9626C107.27 94.2551 105.555 94.5981 103.839 94.9412C103.496 91.8535 101.589 90.7287 98.6424 90.7287C96.044 90.7287 94.2837 92.101 94.2837 93.6195C94.2837 95.6274 96.1453 96.1673 99.0867 96.4598C104.672 97.0503 109.424 98.2708 109.424 104.058C109.424 109.249 104.868 111.994 98.9349 111.994C92.5683 111.994 88.9406 108.664 88.2489 104.204V104.204ZM110.802 90.7062V86.6849H115.065V79.5478H120.363V86.7018H125.509V90.7062H120.363V104.767C120.363 106.73 120.954 107.314 122.669 107.314C123.4 107.314 125.02 107.219 125.02 107.219V111.516C125.02 111.516 123.125 111.713 121.246 111.713C116.589 111.713 115.059 109.21 115.059 104.457V90.7062H110.802ZM143.934 97.6802C143.934 93.9064 143.102 90.7231 139.131 90.7231C135.357 90.7231 134.328 93.9064 134.328 97.6802V111.516H129.036V86.7018H133.861L134.35 89.3958C135.087 88.0234 138.029 86.2124 140.92 86.2124C145.031 86.2124 146.994 88.4621 147.826 89.9357C149.148 87.731 152.382 86.2124 155.273 86.2124C162.022 86.2124 164.097 90.3294 164.097 97.6802V111.516H158.833V97.6802C158.833 93.957 157.803 90.6724 154.03 90.6724C150.059 90.6724 149.227 93.8557 149.227 97.6802V111.516H143.934V97.6802ZM173.681 95.2056C171.993 94.9131 170.205 94.5194 168.439 94.2269C169.001 88.7377 173.501 86.19 178.68 86.19C185.688 86.19 189.316 89.6207 189.316 96.381V105.009C189.316 106.476 189.608 107.309 190.638 107.309C191.068 107.304 191.497 107.238 191.909 107.112V111.426C190.888 111.703 189.833 111.835 188.776 111.819C187.744 111.886 186.726 111.559 185.925 110.905C185.125 110.25 184.602 109.317 184.462 108.293C183.51 109.425 182.326 110.339 180.99 110.972C179.653 111.606 178.196 111.945 176.718 111.966C170.987 111.966 167.556 108.782 167.556 104.092C167.556 100.222 171.133 96.696 177.679 96.696H184.052V95.2056C184.052 93.2933 183.264 90.7062 178.709 90.7062C175.672 90.7062 173.81 92.2247 173.709 95.2056H173.681ZM184.052 101.87V100.644H178.191C173.827 100.644 172.949 102.849 172.949 104.075C172.949 105.762 174.074 107.506 177.308 107.506C181.622 107.506 184.023 104.564 184.023 101.881L184.052 101.87ZM73.446 112.033C70.8951 112.033 68.4015 111.277 66.2806 109.859C64.1597 108.442 62.5067 106.428 61.5308 104.071C60.5549 101.714 60.2998 99.1207 60.7979 96.6189C61.2959 94.1171 62.5247 91.8192 64.3289 90.0158C66.133 88.2125 68.4315 86.9847 70.9335 86.4877C73.4355 85.9907 76.0287 86.2469 78.3851 87.2239C80.7415 88.2008 82.7552 89.8546 84.1716 91.9762C85.588 94.0977 86.3434 96.5916 86.3423 99.1425C86.3393 102.561 84.9794 105.839 82.5614 108.256C80.1434 110.673 76.8648 112.032 73.446 112.033V112.033ZM73.446 91.1561C71.8664 91.1561 70.3223 91.6245 69.009 92.5021C67.6956 93.3796 66.672 94.6269 66.0675 96.0863C65.463 97.5456 65.3049 99.1514 65.6131 100.701C65.9212 102.25 66.6818 103.673 67.7988 104.79C68.9157 105.907 70.3387 106.667 71.8879 106.975C73.4371 107.284 75.0429 107.125 76.5022 106.521C77.9615 105.916 79.2088 104.893 80.0864 103.579C80.9639 102.266 81.4323 100.722 81.4323 99.1425C81.4308 97.0248 80.5889 94.9943 79.0915 93.4969C77.5941 91.9995 75.5636 91.1576 73.446 91.1561ZM224.844 102.877C226.458 103.316 228.078 103.805 229.692 104.3C228.567 107.877 225.193 111.994 218.444 111.994C211.695 111.994 206.785 106.746 206.785 99.1031C206.785 91.4598 211.284 86.2124 218.202 86.2124C225.12 86.2124 229.371 90.8187 229.371 98.3214C229.385 99.1062 229.353 99.8912 229.276 100.672H212.251C212.347 104.3 214.844 107.534 218.438 107.534C221.036 107.534 223.584 106.308 224.861 102.877H224.844ZM223.736 96.6903C223.59 93.0177 221.829 90.6612 218.202 90.6612C214.67 90.6612 212.662 93.6027 212.516 96.6903H223.736ZM231.655 104.204C233.421 103.861 235.131 103.518 236.846 103.226C237.189 105.183 238.37 107.539 242.335 107.539C243.218 107.539 247.583 107.196 247.583 104.058C247.583 98.1301 232.397 104.255 232.397 93.6195C232.397 89.407 236.61 86.2181 241.902 86.2181C247.195 86.2181 251.7 88.4284 252.436 93.9626C250.67 94.2551 248.955 94.5981 247.245 94.9412C246.902 91.8535 244.995 90.7287 242.048 90.7287C239.45 90.7287 237.69 92.101 237.69 93.6195C237.69 95.6274 239.551 96.1673 242.487 96.4598C248.078 97.0503 252.83 98.2764 252.83 104.058C252.83 109.255 248.269 111.994 242.341 111.994C235.974 111.994 232.347 108.664 231.655 104.204V104.204ZM191.127 90.7062V86.6849H195.39V79.5478H200.682V86.7018H205.851V90.7062H200.705V104.767C200.705 106.73 201.295 107.314 203.011 107.314C203.742 107.314 205.362 107.219 205.362 107.219V111.516C205.362 111.516 203.466 111.713 201.588 111.713C196.931 111.713 195.401 109.21 195.401 104.457V90.7062H191.127Z" fill="#2C3B29"/>
</svg>
