<svg width="197" height="45" viewBox="0 0 197 45" fill="none" xmlns="http://www.w3.org/2000/svg">
<path d="M0 38.3419V7H13.0332C18.6509 7 22.2922 11.1367 22.2922 16.5246C22.2922 21.9943 18.6407 26.0441 13.0332 26.0441H4.98447V38.3419H0ZM4.97936 11.244V21.8768H12.8187C15.3109 21.8768 17.3129 19.3233 17.3129 16.5399C17.3129 13.7566 15.3109 11.244 12.8187 11.244H4.97936ZM47.4444 31.7027C49.048 31.3912 50.6056 31.0797 52.1633 30.809C52.4748 32.5914 53.5422 34.7261 57.1426 34.7261C57.9445 34.7261 61.9075 34.4146 61.9075 31.57C61.9075 26.182 48.1185 31.7436 48.1185 22.0913C48.1185 18.261 51.9437 15.3704 56.7494 15.3704C61.5551 15.3704 65.651 17.3724 66.3149 22.4028C64.7164 22.6684 63.1587 22.9799 61.6011 23.2915C61.2896 20.4877 59.5583 19.4663 56.8822 19.4663C54.5227 19.4663 52.9242 20.7124 52.9242 22.0913C52.9242 23.9145 54.6147 24.4048 57.2856 24.6704C62.3569 25.2066 66.6724 26.3148 66.6724 31.57C66.6724 36.2838 62.5357 38.776 57.1477 38.776C51.3666 38.776 48.0725 35.7526 47.4444 31.7027V31.7027ZM67.9236 19.4459V15.7943H71.7947V9.31349H76.6056V15.8096H81.2785V19.4459H76.6056V32.2135C76.6056 33.9958 77.1418 34.5269 78.6994 34.5269C79.3634 34.5269 80.8342 34.4401 80.8342 34.4401V38.3419C80.8342 38.3419 79.1131 38.5206 77.4074 38.5206C73.1787 38.5206 71.7896 36.248 71.7896 31.9326V19.4459H67.9236ZM98.0092 25.7786C98.0092 22.3518 97.2533 19.4612 93.6477 19.4612C90.2209 19.4612 89.2863 22.3518 89.2863 25.7786V38.3419H84.4806V15.8096H88.8625L89.3068 18.2559C89.9758 17.0098 92.6468 15.3653 95.2718 15.3653C99.005 15.3653 100.787 17.4081 101.543 18.7462C102.743 16.7442 105.68 15.3653 108.305 15.3653C114.433 15.3653 116.318 19.1037 116.318 25.7786V38.3419H111.538V25.7786C111.538 22.3977 110.603 19.4152 107.176 19.4152C103.571 19.4152 102.815 22.3058 102.815 25.7786V38.3419H98.0092V25.7786ZM125.02 23.5315C123.488 23.2659 121.864 22.9084 120.261 22.6429C120.771 17.6584 124.857 15.3449 129.56 15.3449C135.924 15.3449 139.218 18.4602 139.218 24.5989V32.433C139.218 33.766 139.483 34.5218 140.418 34.5218C140.809 34.5178 141.198 34.4576 141.572 34.3431V38.2602C140.645 38.5115 139.688 38.6318 138.728 38.6177C137.791 38.678 136.866 38.3812 136.139 37.7871C135.412 37.193 134.938 36.3456 134.81 35.4156C133.946 36.4433 132.871 37.2731 131.657 37.8485C130.444 38.4239 129.121 38.7315 127.778 38.7505C122.574 38.7505 119.459 35.8599 119.459 31.6006C119.459 28.087 122.707 24.8848 128.651 24.8848H134.438V23.5315C134.438 21.7951 133.723 19.4459 129.586 19.4459C126.828 19.4459 125.138 20.8248 125.046 23.5315H125.02ZM134.438 29.5833V28.47H129.116C125.153 28.47 124.356 30.472 124.356 31.5853C124.356 33.1174 125.378 34.7006 128.314 34.7006C132.231 34.7006 134.412 32.0296 134.412 29.5935L134.438 29.5833ZM34.0026 38.8117C31.6863 38.8117 29.422 38.1248 27.4961 36.8378C25.5703 35.5508 24.0693 33.7216 23.1831 31.5815C22.297 29.4414 22.0653 27.0866 22.5176 24.8148C22.9699 22.5431 24.0857 20.4565 25.7239 18.819C27.3622 17.1814 29.4493 16.0665 31.7212 15.6153C33.9931 15.164 36.3479 15.3966 38.4876 16.2837C40.6273 17.1709 42.4559 18.6726 43.742 20.5991C45.0282 22.5255 45.7141 24.7901 45.7131 27.1064C45.7104 30.2109 44.4756 33.1874 42.2799 35.3822C40.0842 37.5769 37.1071 38.8104 34.0026 38.8117V38.8117ZM34.0026 19.8544C32.5683 19.8544 31.1662 20.2797 29.9737 21.0766C28.7811 21.8735 27.8516 23.0061 27.3027 24.3312C26.7538 25.6563 26.6102 27.1145 26.89 28.5212C27.1698 29.928 27.8605 31.2201 28.8747 32.2343C29.8889 33.2486 31.1811 33.9392 32.5879 34.2191C33.9946 34.4989 35.4527 34.3553 36.7779 33.8064C38.103 33.2575 39.2356 32.328 40.0325 31.1354C40.8293 29.9428 41.2546 28.5407 41.2546 27.1064C41.2533 25.1835 40.4888 23.3397 39.1291 21.98C37.7694 20.6203 35.9256 19.8558 34.0026 19.8544ZM171.479 30.4975C172.945 30.8958 174.416 31.3401 175.881 31.7896C174.86 35.0376 171.796 38.776 165.667 38.776C159.539 38.776 155.08 34.0111 155.08 27.0707C155.08 20.1302 159.166 15.3653 165.448 15.3653C171.729 15.3653 175.59 19.548 175.59 26.3608C175.603 27.0734 175.574 27.7862 175.503 28.4955H160.044C160.131 31.7896 162.399 34.7261 165.662 34.7261C168.022 34.7261 170.335 33.6128 171.494 30.4975H171.479ZM170.473 24.8797C170.34 21.5448 168.742 19.405 165.448 19.405C162.24 19.405 160.417 22.076 160.284 24.8797H170.473ZM177.664 31.7027C179.267 31.3912 180.82 31.0797 182.377 30.8141C182.689 32.5914 183.761 34.7312 187.362 34.7312C188.164 34.7312 192.127 34.4197 192.127 31.57C192.127 26.1871 178.338 31.7487 178.338 22.0913C178.338 18.2661 182.163 15.3704 186.969 15.3704C191.774 15.3704 195.865 17.3775 196.534 22.4028C194.931 22.6684 193.373 22.9799 191.82 23.2915C191.509 20.4877 189.778 19.4663 187.101 19.4663C184.742 19.4663 183.143 20.7124 183.143 22.0913C183.143 23.9145 184.834 24.4048 187.5 24.6704C192.576 25.2066 196.892 26.3199 196.892 31.57C196.892 36.2889 192.75 38.776 187.367 38.776C181.586 38.776 178.292 35.7526 177.664 31.7027V31.7027ZM140.862 19.4459V15.7943H144.733V9.31349H149.539V15.8096H154.233V19.4459H149.56V32.2135C149.56 33.9958 150.096 34.5269 151.653 34.5269C152.317 34.5269 153.788 34.4401 153.788 34.4401V38.3419C153.788 38.3419 152.067 38.5206 150.361 38.5206C146.133 38.5206 144.744 36.248 144.744 31.9326V19.4459H140.862Z" fill="#2C3B29"/>
</svg>
