<svg width="310" height="207" viewBox="0 0 310 207" fill="none" xmlns="http://www.w3.org/2000/svg">
<path opacity="0.3" d="M214.349 207L174.591 207L174.591 140.16L210.892 140.16C224.721 140.16 231.059 136.126 231.059 119.416L231.059 111.349L169.405 111.349L169.405 0.71746L310 0.717472L310 118.84C310 178.19 274.851 207 214.349 207ZM44.9442 207L5.18586 207L5.18586 140.16L41.487 140.16C55.316 140.16 61.6543 136.126 61.6543 119.416L61.6543 111.349L7.18156e-06 111.349L1.68533e-05 0.717445L140.595 0.717458L140.595 118.84C140.595 178.19 105.446 207 44.9442 207Z" fill="#D9C6AF"/>
</svg>
