<svg width="288" height="190" viewBox="0 0 288 190" fill="none" xmlns="http://www.w3.org/2000/svg">
<path d="M179.893 81.131C181.015 81.1041 182.109 81.4908 182.955 82.2169C183.826 83.006 184.427 84.0382 184.682 85.1746C185.011 86.6174 185.077 88.1063 184.876 89.5718C184.621 91.5168 184.128 93.4245 183.409 95.2537C182.749 97.0531 181.902 98.7805 180.88 100.408C180.447 101.089 179.982 101.751 179.489 102.391C179.477 102.407 179.471 102.427 179.472 102.448C179.473 102.468 179.48 102.487 179.493 102.503C179.521 102.534 179.567 102.544 179.606 102.525C179.881 102.375 180.15 102.214 180.412 102.042C181.033 101.644 181.631 101.215 182.203 100.754C183.757 99.4954 184.883 97.7992 185.43 95.8929C185.76 94.7423 186.119 93.6043 186.522 92.4837C187.131 90.7431 187.822 89.0314 188.593 87.3542C189.121 86.1738 189.714 85.0226 190.368 83.9056C190.833 83.1039 191.627 82.5341 192.546 82.3431C193.354 82.1617 194.195 82.1741 194.998 82.3794C195.73 82.5605 196.389 82.9576 196.885 83.5174C197.398 84.0493 197.527 84.8368 197.207 85.4997C197.114 85.7412 196.896 86.2763 196.494 87.1222C196.09 87.9666 195.666 88.9894 195.187 90.1273C194.706 91.2637 194.212 92.4979 193.72 93.7874C193.274 94.9362 192.899 96.1105 192.597 97.3039C192.365 98.1376 192.265 99.0017 192.301 99.8655C192.352 100.5 192.599 100.5 192.727 100.5C193.118 100.451 193.481 100.273 193.755 99.9949C194.302 99.5435 194.82 99.0574 195.304 98.5413C195.849 97.9668 196.362 97.3638 196.837 96.7325C197.272 96.1533 197.647 95.6435 197.95 95.2095C198.078 95.0256 198.25 94.8756 198.451 94.7726C198.653 94.6697 198.876 94.617 199.103 94.6192C199.585 94.6192 200.038 94.8543 200.312 95.2458L200.24 95.2694C200.359 95.4513 200.422 95.6641 200.418 95.8808C200.415 96.0974 200.346 96.3082 200.22 96.4863C199.897 96.9866 199.332 97.8279 198.493 99.0558C197.592 100.359 196.605 101.604 195.538 102.781C194.42 104.03 193.17 105.158 191.808 106.146C190.611 107.083 189.139 107.615 187.61 107.664C186.356 107.664 185.425 107.236 184.831 106.384C184.254 105.453 183.973 104.372 184.025 103.282V103.08C184.026 103.046 184.018 103.012 184 102.982C183.982 102.952 183.955 102.928 183.924 102.913C183.892 102.898 183.857 102.892 183.821 102.897C183.786 102.901 183.753 102.916 183.727 102.938C183.459 103.147 183.19 103.355 182.92 103.56C181.204 104.812 179.326 105.832 177.335 106.594C175.395 107.336 173.331 107.705 171.251 107.688C170.961 107.688 170.663 107.669 170.365 107.669C168.88 107.664 167.778 107.2 167.089 106.292C166.968 106.134 166.856 105.968 166.755 105.797C166.738 105.765 166.711 105.739 166.679 105.723C166.647 105.706 166.61 105.7 166.574 105.704C166.538 105.708 166.504 105.723 166.476 105.747C166.449 105.77 166.429 105.801 166.42 105.836C166.191 106.573 165.984 107.291 165.787 107.973C165.36 109.444 164.985 110.729 164.682 111.864C164.38 112.997 164.093 114.095 163.875 114.979C163.657 115.863 163.505 116.586 163.425 117.116V117.137C163.319 117.882 162.743 118.478 161.993 118.624C161.746 118.677 161.496 118.703 161.242 118.703C160.75 118.696 160.261 118.608 159.799 118.441C159.022 118.158 158.329 117.689 157.782 117.077C157.169 116.398 156.842 115.515 156.868 114.607C156.943 113.854 157.092 113.111 157.31 112.386C157.601 111.198 157.992 109.735 158.481 108.025C158.795 106.867 159.198 105.606 159.602 104.258C159.614 104.222 159.615 104.183 159.603 104.147C159.592 104.111 159.569 104.08 159.538 104.057C159.507 104.034 159.469 104.022 159.43 104.022C159.391 104.022 159.354 104.034 159.323 104.057C157.81 105.071 156.187 105.915 154.483 106.573C152.545 107.315 150.479 107.686 148.4 107.669C148.109 107.669 147.811 107.648 147.513 107.648C146.028 107.645 144.928 107.181 144.239 106.272C144.116 106.113 144.004 105.948 143.902 105.776C143.884 105.745 143.858 105.72 143.826 105.704C143.794 105.687 143.757 105.681 143.721 105.685C143.686 105.69 143.652 105.704 143.625 105.727C143.597 105.751 143.578 105.781 143.568 105.816C143.339 106.557 143.132 107.271 142.935 107.954C142.508 109.428 142.149 110.705 141.83 111.843C141.513 112.981 141.221 114.075 141.004 114.964C140.823 115.669 140.672 116.382 140.552 117.101V117.121C140.446 117.866 139.871 118.463 139.12 118.608C138.875 118.661 138.625 118.687 138.374 118.687C137.882 118.681 137.394 118.592 136.931 118.425C136.154 118.142 135.461 117.674 134.914 117.061C134.301 116.382 133.974 115.499 134 114.591C134.075 113.838 134.225 113.095 134.443 112.37C135.091 109.818 135.801 107.281 136.572 104.761C136.584 104.724 136.583 104.683 136.569 104.646C136.555 104.609 136.529 104.577 136.495 104.556C136.461 104.536 136.42 104.527 136.38 104.531C136.34 104.536 136.303 104.553 136.274 104.58C135.676 105.123 135.049 105.636 134.395 106.114C133.216 107.056 131.758 107.595 130.241 107.648C128.991 107.648 128.056 107.22 127.463 106.368C127.214 106.002 127.025 105.601 126.901 105.178C126.874 105.087 126.823 105.005 126.754 104.94C126.684 104.875 126.599 104.829 126.505 104.807C126.412 104.785 126.314 104.787 126.221 104.814C126.129 104.841 126.045 104.891 125.979 104.96C125.57 105.382 125.123 105.765 124.64 106.101C123.996 106.551 123.297 106.919 122.559 107.197C121.757 107.493 120.907 107.643 120.051 107.637C118.915 107.657 117.809 107.276 116.934 106.562C116.028 105.799 115.369 104.791 115.038 103.663C114.639 102.232 114.503 100.743 114.636 99.2657C114.79 97.3386 115.183 95.4352 115.807 93.5996C117.218 89.3303 119.01 86.2131 121.27 84.1929C123.527 82.1695 125.822 81.142 128.085 81.142C128.928 81.1108 129.764 81.3073 130.503 81.7102C131.111 82.0574 131.609 82.5641 131.943 83.1717C132.162 83.5789 132.323 84.0145 132.419 84.4659C132.424 84.4832 132.434 84.4986 132.447 84.5104C132.461 84.5222 132.478 84.5298 132.496 84.5322C132.514 84.5345 132.532 84.5317 132.549 84.5241C132.565 84.5166 132.579 84.5046 132.589 84.4896C132.701 84.286 132.81 84.1045 132.914 83.9372C133.141 83.5443 133.45 83.2026 133.819 82.9342C134.189 82.6659 134.612 82.4769 135.06 82.3794C135.868 82.1964 136.709 82.2073 137.512 82.411C138.257 82.5878 138.929 82.9871 139.436 83.5537C139.949 84.0856 140.077 84.8731 139.757 85.536C139.665 85.7728 139.423 86.3204 139.045 87.1569C138.048 89.3518 137.12 91.5761 136.261 93.8269C135.815 94.9756 135.441 96.1499 135.14 97.3433C134.907 98.177 134.807 99.041 134.842 99.9049C134.895 100.539 135.14 100.539 135.27 100.539C135.661 100.49 136.024 100.312 136.298 100.034C136.58 99.7897 136.875 99.5293 137.173 99.242C138.303 98.1807 139.149 96.8611 139.636 95.4004C140.326 93.3976 141.056 91.4199 141.801 89.5134C142.514 87.6839 143.286 85.8774 144.117 84.0966C144.455 83.328 145.112 82.7393 145.924 82.4789C146.668 82.2342 147.463 82.1806 148.233 82.3242C148.965 82.4523 149.652 82.7619 150.229 83.2238C150.462 83.4062 150.662 83.6248 150.823 83.8709C150.863 83.9135 150.908 83.9214 150.964 83.8709C151.636 83.2554 152.362 82.703 153.133 82.2169C154.287 81.4917 155.632 81.1143 157.001 81.131C158.124 81.1046 159.216 81.4919 160.064 82.2169C160.931 83.006 161.531 84.0398 161.783 85.1746C162.111 86.6172 162.177 88.1071 161.975 89.5718C161.72 91.5169 161.227 93.4247 160.508 95.2537C159.848 97.053 159.001 98.7805 157.981 100.408C157.528 101.119 157.067 101.782 156.594 102.391C156.581 102.407 156.575 102.427 156.576 102.448C156.576 102.468 156.585 102.488 156.598 102.503C156.626 102.534 156.672 102.544 156.711 102.525C156.978 102.378 157.248 102.217 157.516 102.042C157.963 101.753 158.383 101.455 158.779 101.145C160.341 99.9658 161.508 98.353 162.131 96.5147C162.92 94.1534 163.769 91.8121 164.679 89.4928C165.39 87.6629 166.161 85.8564 166.992 84.0761C167.331 83.3075 167.988 82.7188 168.8 82.4583C169.544 82.2137 170.339 82.16 171.109 82.3037C171.841 82.4324 172.528 82.7419 173.105 83.2033C173.346 83.3927 173.554 83.6168 173.719 83.8709C173.759 83.9135 173.804 83.9214 173.86 83.8709C174.531 83.2562 175.257 82.7026 176.03 82.2169C177.182 81.4923 178.525 81.1148 179.893 81.131V81.131ZM104.794 70.9793C106.52 70.9773 108.241 71.1739 109.922 71.5649C111.521 71.9227 113.054 72.5222 114.466 73.342C115.762 74.0914 116.88 75.1034 117.748 76.3108C118.606 77.5356 119.052 78.994 119.026 80.4776C119.041 82.1137 118.657 83.7294 117.906 85.1888C117.144 86.6434 116.123 87.9515 114.891 89.0509C113.563 90.2317 112.079 91.2299 110.478 92.0181C109.07 92.7157 107.608 93.3013 106.104 93.7653C106.063 93.7723 106.026 93.7949 106.002 93.8283C105.977 93.8616 105.967 93.9031 105.974 93.9437C106.006 94.6934 106.064 95.4273 106.134 96.1407C106.221 96.9566 106.338 97.7537 106.474 98.5192C106.7 99.7707 107.026 101.002 107.451 102.203C107.945 103.603 108.624 104.934 109.469 106.161C109.768 106.576 110.092 106.974 110.443 107.35C110.767 107.697 111.116 108.024 111.487 108.325C111.833 108.606 112.202 108.862 112.587 109.091C113.317 109.523 114.114 109.835 114.947 110.012C115.356 110.104 115.773 110.162 116.193 110.188C116.626 110.219 117.059 110.219 117.492 110.188C117.947 110.15 118.399 110.077 118.845 109.974C119.323 109.864 119.791 109.722 120.248 109.55C120.745 109.365 121.228 109.151 121.696 108.908C121.882 108.813 122.063 108.713 122.249 108.611C122.538 108.443 122.88 108.387 123.208 108.455C123.536 108.523 123.826 108.71 124.022 108.978C124.217 109.246 124.303 109.577 124.263 109.904C124.223 110.232 124.059 110.533 123.805 110.748C122.975 111.462 122.107 112.132 121.204 112.754C120.645 113.138 120.068 113.496 119.475 113.827C119.182 113.996 118.883 114.155 118.579 114.304C118.002 114.593 117.408 114.851 116.801 115.077C116.225 115.288 115.636 115.464 115.038 115.604C114.081 115.838 113.098 115.956 112.112 115.958H111.636C110.826 115.922 110.022 115.797 109.24 115.585C108.984 115.515 108.731 115.434 108.482 115.342C107.49 114.981 106.557 114.479 105.712 113.852C104.923 113.266 104.211 112.587 103.591 111.829C103.232 111.402 102.898 110.955 102.592 110.489C101.939 109.499 101.387 108.449 100.942 107.353C100.457 106.154 100.065 104.92 99.7682 103.663C99.6111 103 99.4796 102.313 99.3657 101.624C99.2622 100.996 99.1787 100.366 99.1156 99.7329C99.1139 99.6892 99.0962 99.6476 99.0659 99.6157C99.0356 99.5838 98.9946 99.5638 98.9504 99.5593C98.906 99.5556 98.8618 99.568 98.8261 99.5942C98.7904 99.6204 98.7656 99.6584 98.7564 99.7013H98.7484C98.5062 100.541 98.2801 101.359 98.1038 102.135C97.8344 103.129 97.6051 104.023 97.4142 104.815C97.2122 105.609 97.0711 106.228 97.0102 106.687C96.8787 107.473 96.2405 108.081 95.4387 108.186C94.6346 108.326 93.8074 108.257 93.0382 107.987C92.2106 107.716 91.4593 107.257 90.8446 106.647C90.5102 106.323 90.2467 105.935 90.0705 105.506C89.8943 105.078 89.809 104.619 89.82 104.157C89.8954 102.848 90.1038 101.553 90.4422 100.284C90.8446 98.5239 91.4411 96.4295 92.1996 94.0699C93.0344 91.4901 93.938 88.9324 94.9095 86.3994C95.8075 84.0193 96.8177 81.6644 97.9081 79.3207C98.2673 78.5536 99.0081 78.0265 99.8612 77.9286C101.533 77.699 103.232 77.754 104.885 78.0912C105.085 78.1377 105.273 78.2271 105.434 78.3531C105.595 78.4791 105.726 78.6386 105.817 78.8201C105.908 79.0016 105.958 79.2007 105.962 79.4031C105.966 79.6056 105.925 79.8065 105.841 79.9914C104.945 81.9574 104.108 83.9485 103.33 85.9622C102.72 87.5484 102.119 89.1109 101.582 90.6292C101.57 90.6628 101.568 90.6991 101.577 90.7336C101.586 90.768 101.605 90.7992 101.631 90.8233C101.686 90.8707 101.766 90.8833 101.834 90.8518C102.584 90.5045 103.31 90.1068 104.006 89.6617C105.168 88.9287 106.229 88.0501 107.16 87.048C108.074 86.0621 108.828 84.943 109.394 83.7304C109.962 82.5087 110.253 81.1802 110.249 79.8368C110.249 78.0564 109.748 76.7433 108.761 75.9305C107.773 75.1176 106.349 74.682 104.555 74.682C102.751 74.6583 100.974 75.1113 99.409 75.9936C97.8927 76.8502 96.5359 77.9551 95.397 79.2607C94.3262 80.4821 93.4503 81.8568 92.7993 83.3374C92.2537 84.4906 91.9432 85.7378 91.8853 87.0086C91.9008 87.3458 91.799 87.6782 91.5967 87.9508C91.3944 88.2234 91.1036 88.42 90.7725 88.508C90.1091 88.7041 89.3975 88.6718 88.7553 88.4164C87.9985 88.1106 87.3449 87.6007 86.8695 86.9455C86.2597 86.0914 85.9557 85.062 86.0052 84.0193C86.0052 82.9571 86.4093 81.7039 87.256 80.1935C88.1914 78.577 89.4057 77.1334 90.8446 75.9273C92.6024 74.4596 94.5897 73.2812 96.7295 72.4377C99.2926 71.4316 102.033 70.9365 104.792 70.9809L104.794 70.9793ZM154.066 85.847L154.028 85.8517C153.81 85.8813 153.605 85.9735 153.439 86.1168C152.876 86.5451 152.373 87.045 151.943 87.6036C151.303 88.4145 150.721 89.2689 150.202 90.1605C149.566 91.2407 149 92.3599 148.509 93.5112C148.013 94.6665 147.583 95.8471 147.221 97.0482C146.91 98.0504 146.658 99.0696 146.467 100.101C146.32 100.811 146.28 101.537 146.347 102.258C146.427 102.864 146.617 102.992 146.673 103.016C146.699 103.022 146.726 103.022 146.753 103.016C146.971 102.987 147.177 102.896 147.343 102.754C147.909 102.323 148.411 101.816 148.834 101.248C149.468 100.427 150.04 99.5656 150.55 98.6659C151.134 97.6464 151.714 96.5131 152.279 95.2994C152.776 94.1488 153.209 92.9714 153.577 91.7751C153.885 90.7807 154.137 89.769 154.331 88.7447L154.315 88.7384C154.463 88.0376 154.503 87.3211 154.435 86.6077C154.352 86.0064 154.163 85.8754 154.105 85.8501C154.079 85.8454 154.053 85.8454 154.028 85.8501L154.066 85.847V85.847ZM176.958 85.8438L176.92 85.847C176.702 85.8783 176.498 85.9703 176.331 86.1121C175.772 86.5383 175.273 87.0338 174.848 87.5878C174.207 88.3975 173.623 89.2529 173.105 90.1447C172.47 91.2358 171.906 92.3655 171.416 93.527C170.917 94.6761 170.482 95.8516 170.114 97.0482C169.802 98.0504 169.55 99.0684 169.361 100.101C169.211 100.81 169.169 101.537 169.239 102.258C169.319 102.864 169.508 102.992 169.566 103.016C169.592 103.022 169.62 103.022 169.646 103.016C169.864 102.987 170.069 102.896 170.235 102.754C170.801 102.321 171.303 101.815 171.726 101.248C172.359 100.427 172.929 99.5656 173.437 98.6659C174.025 97.6464 174.606 96.5131 175.17 95.2994C175.663 94.1473 176.091 92.9667 176.453 91.7672C176.761 90.7728 177.014 89.7611 177.207 88.7368C177.351 88.0345 177.393 87.3164 177.324 86.6045C177.244 86.0016 177.053 85.8706 176.997 85.847C176.971 85.8423 176.945 85.8423 176.92 85.847L176.958 85.8438V85.8438ZM129.1 85.7365L129.064 85.7396C128.858 85.7688 128.665 85.859 128.511 85.9985C127.972 86.4278 127.501 86.9344 127.113 87.501C126.526 88.3186 126.007 89.1803 125.556 90.0784C124.997 91.1765 124.491 92.2999 124.039 93.4449C123.578 94.5893 123.195 95.7624 122.891 96.9566C122.634 97.9467 122.453 98.9544 122.351 99.9712C122.27 100.686 122.278 101.411 122.378 102.124C122.484 102.735 122.681 102.869 122.737 102.893C122.762 102.897 122.788 102.897 122.814 102.893C123.02 102.864 123.213 102.775 123.366 102.635C123.903 102.209 124.376 101.712 124.769 101.157C125.359 100.352 125.878 99.4993 126.326 98.6107C126.855 97.5801 127.361 96.4326 127.843 95.2442C128.301 94.0983 128.686 92.9241 128.991 91.7309C129.247 90.7334 129.435 89.7201 129.555 88.6974C129.663 87.9796 129.657 87.2497 129.539 86.5335C129.403 85.9022 129.198 85.768 129.137 85.7396C129.113 85.7349 129.088 85.7349 129.064 85.7396L129.1 85.7365V85.7365ZM196.34 70.0008C197.011 70.0004 197.676 70.1301 198.296 70.3825C198.916 70.6349 199.48 71.005 199.954 71.4718C200.429 71.9386 200.806 72.4929 201.063 73.103C201.321 73.7131 201.453 74.3671 201.454 75.0277C201.453 75.6884 201.321 76.3425 201.064 76.9528C200.807 77.5631 200.43 78.1176 199.955 78.5846C199.48 79.0515 198.917 79.4218 198.296 79.6743C197.676 79.9268 197.011 80.0566 196.34 80.0562C195.662 80.0681 194.987 79.9469 194.357 79.6996C193.727 79.4524 193.153 79.084 192.669 78.6161C192.185 78.1481 191.8 77.5899 191.538 76.9741C191.275 76.3582 191.14 75.6971 191.14 75.0293C191.14 74.3614 191.275 73.7002 191.537 73.0843C191.799 72.4684 192.184 71.9101 192.668 71.442C193.152 70.9739 193.725 70.6054 194.356 70.3579C194.986 70.1105 195.66 69.989 196.338 70.0008H196.34Z" fill="#2C3B29"/>
</svg>
