<svg width="105" height="45" viewBox="0 0 105 45" fill="none" xmlns="http://www.w3.org/2000/svg">
<g clip-path="url(#clip0_20_9434)">
<path d="M85.2589 10.1074C86.2781 10.0831 87.2711 10.4342 88.0399 11.0935C88.8306 11.81 89.3766 12.7473 89.6081 13.7792C89.9066 15.0894 89.9663 16.4413 89.7843 17.772C89.5521 19.5382 89.1048 21.2705 88.452 22.9315C87.8526 24.5655 87.0831 26.134 86.1558 27.6122C85.7619 28.2305 85.3402 28.8311 84.8919 29.4123C84.8813 29.4274 84.876 29.4455 84.8768 29.4639C84.8776 29.4822 84.8844 29.4998 84.8963 29.514C84.9211 29.5427 84.9633 29.5513 84.9982 29.5341C85.2483 29.3977 85.4926 29.2514 85.7306 29.0956C86.2941 28.7344 86.8372 28.3446 87.357 27.9261C88.768 26.7831 89.7903 25.2429 90.2867 23.5119C90.5866 22.4671 90.9128 21.4338 91.2782 20.4163C91.8314 18.8357 92.4591 17.2814 93.1595 15.7584C93.6386 14.6866 94.1767 13.6412 94.7713 12.627C95.1936 11.8989 95.9143 11.3815 96.7487 11.2081C97.4827 11.0434 98.2463 11.0547 98.975 11.2411C99.6399 11.4056 100.238 11.7661 100.689 12.2744C101.155 12.7574 101.271 13.4725 100.981 14.0745C100.897 14.2937 100.699 14.7796 100.334 15.5478C99.9666 16.3145 99.5822 17.2432 99.1468 18.2765C98.71 19.3084 98.2615 20.4292 97.8145 21.6001C97.4096 22.6432 97.0692 23.7095 96.7953 24.7932C96.5844 25.5502 96.4935 26.3348 96.5259 27.1192C96.5725 27.6953 96.7967 27.6953 96.9132 27.6953C97.2685 27.6509 97.5976 27.489 97.8465 27.2367C98.3431 26.8268 98.8134 26.3854 99.2531 25.9168C99.7482 25.3951 100.214 24.8476 100.645 24.2744C101.04 23.7484 101.38 23.2855 101.656 22.8913C101.772 22.7244 101.929 22.5882 102.111 22.4947C102.294 22.4012 102.497 22.3534 102.703 22.3553C103.141 22.3553 103.551 22.5689 103.8 22.9243L103.735 22.9458C103.844 23.1109 103.9 23.3041 103.897 23.5009C103.894 23.6977 103.831 23.8891 103.717 24.0508C103.423 24.5051 102.911 25.269 102.149 26.384C101.331 27.5677 100.434 28.6976 99.4657 29.7663C98.4503 30.9004 97.315 31.9247 96.0789 32.8218C94.9919 33.6729 93.6551 34.1564 92.2669 34.2005C91.1283 34.2005 90.2823 33.8121 89.7435 33.0382C89.2187 32.1927 88.9636 31.2117 89.0111 30.222V30.0386C89.0124 30.0072 89.0045 29.9762 88.9882 29.9492C88.9719 29.9223 88.948 29.9005 88.9194 29.8867C88.8905 29.8729 88.8582 29.8677 88.8264 29.8718C88.7946 29.8759 88.7646 29.889 88.7403 29.9096C88.4972 30.0988 88.2525 30.288 88.0079 30.4743C86.4497 31.6108 84.7441 32.5372 82.9364 33.2288C81.1746 33.9024 79.3006 34.2378 77.4121 34.222C77.1486 34.222 76.8777 34.2048 76.6069 34.2048C75.2586 34.2005 74.2583 33.7792 73.6322 32.9551C73.5222 32.8111 73.4211 32.6609 73.3293 32.5051C73.3137 32.4763 73.2896 32.4529 73.2603 32.4379C73.2309 32.4228 73.1976 32.4169 73.1647 32.4207C73.1319 32.4246 73.1009 32.4381 73.076 32.4596C73.0511 32.481 73.0333 32.5094 73.025 32.5409C72.8168 33.2102 72.6289 33.8623 72.4498 34.4814C72.0625 35.8171 71.7218 36.9837 71.4466 38.0142C71.1729 39.0432 70.9122 40.0407 70.7142 40.8433C70.5162 41.6458 70.3779 42.3022 70.3051 42.7838V42.8024C70.209 43.4789 69.6862 44.0206 69.0048 44.1525C68.7806 44.2012 68.5534 44.2241 68.3234 44.2241C67.876 44.2185 67.4329 44.1381 67.0129 43.9862C66.3072 43.7298 65.6776 43.3042 65.1812 42.748C64.6248 42.1314 64.328 41.3294 64.3512 40.505C64.4196 39.8214 64.5551 39.1464 64.7531 38.4886C65.0166 37.4094 65.3719 36.0808 65.816 34.5287C66.1014 33.4768 66.4669 32.3317 66.8338 31.1077C66.8452 31.0752 66.8456 31.04 66.8351 31.0073C66.8247 30.9745 66.8038 30.9459 66.7756 30.9257C66.7475 30.9048 66.7132 30.8935 66.678 30.8935C66.6428 30.8935 66.6085 30.9048 66.5804 30.9257C65.2069 31.8464 63.7329 32.6127 62.186 33.2102C60.4257 33.8838 58.5502 34.2206 56.6617 34.2048C56.3982 34.2048 56.1273 34.1862 55.8565 34.1862C54.5082 34.1833 53.5093 33.762 52.8832 32.9365C52.7723 32.7926 52.6702 32.6423 52.5775 32.4864C52.5616 32.4582 52.5376 32.4353 52.5084 32.4205C52.4793 32.4058 52.4463 32.4 52.4138 32.4039C52.3812 32.4077 52.3506 32.4211 52.3258 32.4421C52.301 32.4632 52.2832 32.4911 52.2746 32.5223C52.0664 33.1959 51.8786 33.8437 51.6995 34.4642C51.3121 35.8028 50.986 36.9622 50.6962 37.9956C50.4079 39.0289 50.1429 40.0221 49.9463 40.8289C49.7821 41.4699 49.6451 42.1173 49.5357 42.7695V42.7881C49.4396 43.4645 48.9169 44.0063 48.2355 44.1381C48.0131 44.1864 47.7861 44.2104 47.5584 44.2098C47.111 44.2042 46.6679 44.1237 46.2479 43.9719C45.5422 43.7155 44.9127 43.2899 44.4162 42.7336C43.8598 42.1171 43.563 41.315 43.5863 40.4907C43.6547 39.8071 43.7901 39.1321 43.9881 38.4742C44.5771 36.1564 45.2218 33.8526 45.9218 31.5649C45.9325 31.5306 45.9315 31.4938 45.9189 31.4601C45.9063 31.4264 45.8827 31.3978 45.8519 31.3786C45.8206 31.3601 45.784 31.3523 45.7478 31.3561C45.7115 31.36 45.6775 31.3755 45.651 31.4001C45.1078 31.8931 44.5385 32.3589 43.9444 32.7931C42.8747 33.6488 41.5508 34.1378 40.1732 34.1862C39.0375 34.1862 38.1886 33.7978 37.6499 33.0239C37.4243 32.6918 37.2524 32.3272 37.1403 31.9433C37.1157 31.8609 37.0696 31.7864 37.0064 31.7273C36.9433 31.6682 36.8654 31.6265 36.7806 31.6065C36.6956 31.586 36.6066 31.5881 36.5228 31.6126C36.4389 31.637 36.363 31.6828 36.303 31.7455C35.9317 32.1281 35.5255 32.4764 35.0872 32.7817C34.5021 33.1899 33.8671 33.5241 33.1972 33.7763C32.4692 34.0457 31.6975 34.1819 30.9199 34.1762C29.8882 34.1945 28.8839 33.8482 28.0893 33.2002C27.2666 32.507 26.6683 31.5917 26.3683 30.5674C26.0057 29.2685 25.8819 27.9163 26.0028 26.5746C26.1426 24.8247 26.4993 23.0963 27.0657 21.4295C28.3471 17.5528 29.975 14.7223 32.0265 12.8878C34.0767 11.0505 36.1603 10.1175 38.2148 10.1175C38.9809 10.0891 39.7402 10.2675 40.4106 10.6334C40.9624 10.9487 41.4153 11.4088 41.7181 11.9605C41.9176 12.3303 42.0632 12.7258 42.1506 13.1357C42.155 13.1514 42.1639 13.1654 42.1764 13.1761C42.1888 13.1868 42.2041 13.1937 42.2205 13.1959C42.2368 13.198 42.2534 13.1954 42.2684 13.1886C42.2833 13.1817 42.296 13.1709 42.3049 13.1572C42.4068 12.9724 42.5059 12.8075 42.6005 12.6556C42.8066 12.2988 43.0865 11.9886 43.4221 11.7449C43.7577 11.5012 44.1415 11.3296 44.5487 11.2411C45.2824 11.0749 46.046 11.0848 46.775 11.2697C47.4521 11.4303 48.0622 11.7929 48.5223 12.3074C48.9883 12.7903 49.1047 13.5055 48.8135 14.1074C48.7305 14.3224 48.5107 14.8197 48.167 15.5793C47.2619 17.5723 46.419 19.5921 45.6393 21.6359C45.2347 22.679 44.8948 23.7453 44.6215 24.829C44.4102 25.586 44.3189 26.3706 44.3507 27.155C44.3987 27.7312 44.6215 27.7312 44.7395 27.7312C45.0947 27.6867 45.4238 27.5248 45.6728 27.2726C45.9291 27.0504 46.197 26.8139 46.4678 26.5531C47.4938 25.5894 48.2621 24.3911 48.7043 23.0648C49.3304 21.2461 49.9929 19.4503 50.67 17.719C51.3173 16.0578 52.0186 14.4174 52.7726 12.8004C53.0798 12.1024 53.6768 11.5678 54.4136 11.3314C55.0892 11.1092 55.8114 11.0605 56.5103 11.1909C57.1753 11.3072 57.7991 11.5884 58.3231 12.0078C58.534 12.1735 58.716 12.372 58.8618 12.5954C58.8982 12.6341 58.939 12.6413 58.99 12.5954C59.6001 12.0365 60.2597 11.5349 60.96 11.0935C62.0081 10.435 63.2288 10.0923 64.4721 10.1074C65.4915 10.0835 66.4834 10.4351 67.2531 11.0935C68.0409 11.81 68.5854 12.7488 68.814 13.7792C69.1125 15.0892 69.1722 16.4421 68.9888 17.772C68.7573 19.5384 68.31 21.2707 67.6565 22.9315C67.0575 24.5654 66.2885 26.134 65.3617 27.6122C64.9511 28.2571 64.5318 28.8591 64.1022 29.4123C64.0909 29.4271 64.0851 29.4454 64.0859 29.4639C64.0867 29.4825 64.094 29.5002 64.1066 29.514C64.1313 29.5427 64.1736 29.5513 64.2085 29.5341C64.4517 29.4008 64.6963 29.2546 64.9395 29.0956C65.3457 28.8333 65.7272 28.5624 66.0868 28.2815C67.505 27.2103 68.5648 25.7458 69.13 24.0766C69.8468 21.9324 70.6183 19.8063 71.4437 17.7004C72.0894 16.0387 72.7902 14.3983 73.5448 12.7817C73.852 12.0838 74.449 11.5492 75.1858 11.3127C75.8614 11.0906 76.5836 11.0419 77.2825 11.1723C77.9473 11.2892 78.571 11.5703 79.0953 11.9892C79.3137 12.1612 79.503 12.3647 79.653 12.5954C79.6894 12.6341 79.7302 12.6413 79.7811 12.5954C80.3904 12.0372 81.0498 11.5345 81.7512 11.0935C82.7979 10.4355 84.017 10.0928 85.2589 10.1074V10.1074ZM17.0655 0.889271C18.6334 0.887474 20.1961 1.06592 21.722 1.42098C23.1739 1.74594 24.5659 2.29032 25.8485 3.03473C27.0249 3.71521 28.0409 4.63413 28.829 5.73053C29.608 6.84267 30.0128 8.16692 29.9895 9.51411C30.0032 10.9998 29.6541 12.4669 28.9717 13.7921C28.2799 15.113 27.3527 16.3008 26.2343 17.2991C25.0285 18.3713 23.6805 19.2777 22.2272 19.9935C20.9488 20.6269 19.6209 21.1586 18.2551 21.58C18.2177 21.5863 18.1844 21.6069 18.1624 21.6372C18.1403 21.6675 18.1312 21.7051 18.1371 21.7419C18.1663 22.4227 18.2187 23.0891 18.2827 23.7369C18.3614 24.4779 18.4677 25.2016 18.5914 25.8967C18.7962 27.0331 19.0928 28.1517 19.4782 29.2417C19.9273 30.5134 20.5436 31.7218 21.3114 32.8361C21.5822 33.2131 21.8763 33.5742 22.1952 33.9153C22.4893 34.2306 22.8067 34.5273 23.1431 34.801C23.4576 35.0561 23.7925 35.2883 24.142 35.4961C24.8048 35.8891 25.529 36.1719 26.2853 36.3331C26.6566 36.4162 27.0352 36.4692 27.4166 36.4922C27.8098 36.5208 28.2029 36.5208 28.5961 36.4922C29.0096 36.4578 29.4202 36.3918 29.825 36.2987C30.2589 36.1984 30.6841 36.0694 31.099 35.9132C31.5504 35.7455 31.9887 35.5506 32.4139 35.3299C32.5828 35.2439 32.7473 35.1536 32.9162 35.0604C33.1782 34.9079 33.4888 34.8575 33.7867 34.9193C34.0846 34.981 34.3481 35.1503 34.5254 35.3939C34.7027 35.6375 34.7808 35.9376 34.7444 36.2351C34.708 36.5326 34.5596 36.8058 34.3286 37.0009C33.5754 37.6498 32.787 38.2578 31.9668 38.8225C31.4595 39.1714 30.9357 39.4966 30.3972 39.7971C30.1308 39.9502 29.8594 40.0945 29.5833 40.2299C29.0591 40.4921 28.5203 40.7272 27.9685 40.9321C27.4456 41.1238 26.9112 41.2837 26.3683 41.4108C25.4989 41.6228 24.6066 41.7306 23.711 41.7318H23.2785C22.5429 41.699 21.8132 41.5856 21.1031 41.3936C20.8704 41.33 20.6406 41.2564 20.4144 41.1729C19.5136 40.8451 18.6665 40.3893 17.8998 39.82C17.1834 39.2878 16.5364 38.6707 15.9734 37.9827C15.647 37.595 15.3441 37.1887 15.0663 36.7659C14.4736 35.8671 13.9718 34.9133 13.568 33.9182C13.1278 32.8292 12.7715 31.7091 12.5022 30.5674C12.3595 29.9655 12.2401 29.3421 12.1367 28.7158C12.0427 28.1459 11.9669 27.5733 11.9095 26.9988C11.908 26.9592 11.892 26.9214 11.8644 26.8924C11.8369 26.8635 11.7997 26.8453 11.7596 26.8412C11.7193 26.8379 11.6791 26.8491 11.6467 26.8729C11.6143 26.8966 11.5918 26.9312 11.5834 26.9702H11.5761C11.3562 27.7326 11.1509 28.475 10.9908 29.1801C10.7461 30.083 10.5379 30.8942 10.3647 31.6136C10.1812 32.3345 10.0531 32.8963 9.99773 33.3134C9.87833 34.0271 9.29882 34.5789 8.57078 34.6749C7.84057 34.8013 7.08952 34.7391 6.39105 34.4943C5.63951 34.2477 4.95726 33.8309 4.39915 33.2776C4.09546 32.983 3.85624 32.6305 3.69622 32.2415C3.53621 31.8526 3.45879 31.4355 3.46873 31.016C3.53716 29.8279 3.72645 28.6513 4.03368 27.499C4.39915 25.901 4.94081 23.9992 5.62953 21.8566C6.38753 19.514 7.20806 17.1915 8.09028 14.8914C8.90568 12.7301 9.823 10.5919 10.8131 8.46359C11.1393 7.76707 11.812 7.28839 12.5866 7.19953C14.1046 6.99109 15.6477 7.04102 17.1485 7.34715C17.3303 7.3894 17.5004 7.47062 17.6467 7.58503C17.793 7.69944 17.9118 7.84422 17.9947 8.00903C18.0776 8.17384 18.1225 8.35462 18.1262 8.53848C18.13 8.72234 18.0924 8.90475 18.0163 9.07269C17.2032 10.8579 16.4428 12.6659 15.7361 14.4944C15.1828 15.9347 14.6368 17.3536 14.149 18.7323C14.1383 18.7628 14.1369 18.7957 14.1449 18.827C14.1529 18.8583 14.17 18.8867 14.1941 18.9086C14.2436 18.9516 14.3164 18.963 14.3776 18.9344C15.059 18.6191 15.7186 18.2579 16.3505 17.8537C17.4057 17.1881 18.3684 16.3903 19.2146 15.4804C20.0444 14.5851 20.7286 13.5689 21.2429 12.4679C21.7584 11.3585 22.0232 10.1522 22.019 8.93224C22.019 7.31562 21.5647 6.12322 20.6678 5.38514C19.7708 4.64705 18.4779 4.2515 16.8485 4.2515C15.2108 4.22998 13.5972 4.64126 12.176 5.44246C10.7991 6.22028 9.56708 7.22355 8.53292 8.40913C7.56055 9.51827 6.76518 10.7665 6.1741 12.111C5.67869 13.1581 5.39672 14.2907 5.34414 15.4446C5.35822 15.7508 5.26577 16.0526 5.08204 16.3002C4.89832 16.5477 4.63432 16.7262 4.33363 16.8061C3.73121 16.9841 3.08512 16.9548 2.5019 16.723C1.81477 16.4452 1.22124 15.9823 0.789566 15.3872C0.235824 14.6117 -0.0402604 13.677 0.00474646 12.7301C0.00474646 11.7656 0.371675 10.6277 1.14048 9.25614C1.98986 7.78835 3.09257 6.47746 4.39915 5.38227C5.99531 4.04953 7.79984 2.97948 9.74292 2.21352C12.0703 1.3 14.5588 0.850372 17.064 0.890704L17.0655 0.889271ZM61.8075 14.3898L61.7725 14.3941C61.5742 14.4209 61.3884 14.5047 61.2381 14.6348C60.7266 15.0237 60.2698 15.4777 59.8796 15.9849C59.2977 16.7212 58.7693 17.497 58.2983 18.3066C57.7204 19.2875 57.2069 20.3038 56.7607 21.3492C56.3108 22.3983 55.9206 23.4703 55.5915 24.561C55.309 25.4711 55.0805 26.3966 54.9072 27.3327C54.7732 27.9777 54.7368 28.6369 54.798 29.2919C54.8708 29.8422 55.0426 29.9583 55.0935 29.9798C55.1175 29.9855 55.1424 29.9855 55.1663 29.9798C55.3648 29.954 55.5512 29.8713 55.7022 29.7419C56.2162 29.3507 56.6719 28.8906 57.0563 28.3747C57.6315 27.6294 58.1513 26.8469 58.6143 26.03C59.1443 25.1042 59.6714 24.0751 60.1839 22.973C60.6353 21.9283 61.0285 20.8591 61.3634 19.7728C61.6429 18.8699 61.8715 17.9512 62.0477 17.0211L62.0332 17.0153C62.1671 16.379 62.2035 15.7283 62.1424 15.0806C62.0666 14.5345 61.8948 14.4156 61.8424 14.3926C61.8193 14.3884 61.7956 14.3884 61.7725 14.3926L61.8075 14.3898V14.3898ZM82.5943 14.3869L82.5593 14.3898C82.3615 14.4182 82.1761 14.5018 82.0249 14.6305C81.5168 15.0175 81.0639 15.4675 80.6781 15.9706C80.0957 16.7058 79.5656 17.4825 79.0953 18.2923C78.5187 19.2831 78.0066 20.3089 77.5621 21.3636C77.1082 22.407 76.7134 23.4745 76.3798 24.561C76.0958 25.4711 75.8672 26.3955 75.6954 27.3327C75.559 27.9767 75.5217 28.6371 75.5848 29.2919C75.6576 29.8422 75.8294 29.9583 75.8818 29.9798C75.9057 29.9855 75.9307 29.9855 75.9546 29.9798C76.1526 29.9539 76.3385 29.8712 76.489 29.7419C77.003 29.3492 77.4587 28.8892 77.8431 28.3747C78.4183 27.6294 78.9352 26.8469 79.3967 26.03C79.9311 25.1042 80.4582 24.0751 80.9707 22.973C81.4178 21.9268 81.8065 20.8548 82.1356 19.7656C82.4152 18.8627 82.6452 17.944 82.82 17.0139C82.951 16.3761 82.9889 15.724 82.9262 15.0777C82.8534 14.5302 82.6802 14.4113 82.6292 14.3898C82.6061 14.3855 82.5824 14.3855 82.5593 14.3898L82.5943 14.3869V14.3869ZM39.1365 14.2894L39.1045 14.2923C38.9167 14.3188 38.7415 14.4007 38.6021 14.5273C38.1129 14.9172 37.6848 15.3772 37.3325 15.8917C36.7995 16.6341 36.3278 17.4166 35.9186 18.2321C35.4109 19.2292 34.9512 20.2493 34.5412 21.2891C34.1226 22.3282 33.7743 23.3935 33.4986 24.4779C33.2654 25.3769 33.1014 26.2919 33.0079 27.2152C32.9351 27.8645 32.9424 28.5223 33.0327 29.1701C33.1288 29.7247 33.3079 29.8465 33.3588 29.868C33.3819 29.8723 33.4056 29.8723 33.4287 29.868C33.616 29.8424 33.7909 29.7609 33.9296 29.6344C34.4174 29.2475 34.8469 28.796 35.2037 28.2915C35.7395 27.5606 36.2113 26.7867 36.6175 25.9798C37.098 25.044 37.5581 24.0021 37.995 22.9229C38.4114 21.8824 38.7609 20.8161 39.0375 19.7326C39.2705 18.8269 39.4408 17.9068 39.55 16.9781C39.6479 16.3263 39.643 15.6635 39.5355 15.0132C39.4117 14.4399 39.2253 14.3181 39.17 14.2923C39.1484 14.288 39.1261 14.288 39.1045 14.2923L39.1365 14.2894V14.2894ZM100.194 0.000703942C100.803 0.00032741 101.407 0.118097 101.97 0.347289C102.533 0.57648 103.045 0.912606 103.476 1.33647C103.907 1.76034 104.249 2.26365 104.483 2.81766C104.716 3.37168 104.837 3.96554 104.837 4.56536C104.837 5.1653 104.717 5.75932 104.483 6.3135C104.25 6.86768 103.908 7.37115 103.476 7.79517C103.045 8.21919 102.533 8.55545 101.97 8.78473C101.407 9.01401 100.803 9.13183 100.194 9.13145C99.5777 9.14229 98.9657 9.03224 98.3933 8.80772C97.821 8.5832 97.2998 8.24871 96.8602 7.82378C96.4207 7.39885 96.0715 6.89199 95.8331 6.33278C95.5947 5.77358 95.4719 5.17324 95.4718 4.56681C95.4717 3.96037 95.5943 3.35999 95.8325 2.80072C96.0708 2.24144 96.4198 1.73447 96.8592 1.30941C97.2986 0.884339 97.8197 0.54969 98.392 0.324994C98.9642 0.100298 99.5762 -0.00994392 100.192 0.000703942H100.194Z" fill="#2C3B29"/>
</g>
<defs>
<clipPath id="clip0_20_9434">
<rect width="105" height="45" fill="white"/>
</clipPath>
</defs>
</svg>
