<svg width="106" height="46" viewBox="0 0 106 46" fill="none" xmlns="http://www.w3.org/2000/svg">
<path d="M85.5284 10.9951C86.5476 10.9708 87.5407 11.3219 88.3095 11.9812C89.1001 12.6977 89.6461 13.635 89.8777 14.6669C90.1762 15.9771 90.2358 17.329 90.0538 18.6597C89.8217 20.4259 89.3744 22.1582 88.7215 23.8192C88.1221 25.4531 87.3526 27.0217 86.4253 28.4999C86.0315 29.1182 85.6098 29.7188 85.1615 30.3C85.1509 30.3151 85.1455 30.3332 85.1463 30.3516C85.1471 30.3699 85.154 30.3875 85.1658 30.4017C85.1906 30.4304 85.2328 30.439 85.2678 30.4218C85.5178 30.2854 85.7621 30.1391 86.0002 29.9832C86.5637 29.6221 87.1068 29.2323 87.6266 28.8138C89.0376 27.6708 90.0598 26.1306 90.5562 24.3996C90.8561 23.3548 91.1823 22.3215 91.5478 21.3039C92.1009 19.7234 92.7287 18.1691 93.429 16.6461C93.9081 15.5743 94.4462 14.5289 95.0409 13.5147C95.4631 12.7866 96.1839 12.2692 97.0182 12.0958C97.7523 11.9311 98.5158 11.9424 99.2445 12.1288C99.9094 12.2933 100.507 12.6538 100.958 13.1621C101.424 13.6451 101.541 14.3602 101.251 14.9622C101.167 15.1814 100.969 15.6673 100.603 16.4355C100.236 17.2022 99.8517 18.1309 99.4164 19.1642C98.9795 20.1961 98.5311 21.3168 98.0841 22.4878C97.6791 23.5309 97.3388 24.5972 97.0648 25.6809C96.8539 26.4379 96.763 27.2225 96.7954 28.0069C96.842 28.583 97.0663 28.583 97.1827 28.583C97.538 28.5386 97.8671 28.3767 98.1161 28.1244C98.6126 27.7145 99.0829 27.2731 99.5226 26.8045C100.018 26.2828 100.484 25.7353 100.915 25.1621C101.309 24.6361 101.65 24.1732 101.925 23.779C102.042 23.6121 102.198 23.4759 102.381 23.3824C102.563 23.2889 102.766 23.2411 102.972 23.243C103.41 23.243 103.821 23.4566 104.07 23.812L104.004 23.8335C104.113 23.9986 104.17 24.1918 104.167 24.3886C104.163 24.5854 104.101 24.7768 103.987 24.9385C103.693 25.3928 103.18 26.1567 102.419 27.2717C101.6 28.4554 100.704 29.5853 99.7352 30.654C98.7199 31.7881 97.5845 32.8124 96.3484 33.7095C95.2615 34.5606 93.9247 35.0441 92.5364 35.0882C91.3978 35.0882 90.5518 34.6998 90.0131 33.9259C89.4883 33.0804 89.2331 32.0994 89.2807 31.1097V30.9263C89.282 30.8949 89.274 30.8639 89.2577 30.8369C89.2414 30.8099 89.2175 30.7882 89.1889 30.7744C89.1601 30.7606 89.1277 30.7554 89.0959 30.7595C89.0641 30.7635 89.0342 30.7767 89.0098 30.7973C88.7667 30.9865 88.5221 31.1756 88.2774 31.362C86.7192 32.4985 85.0136 33.4249 83.206 34.1165C81.4441 34.7901 79.5702 35.1255 77.6817 35.1097C77.4181 35.1097 77.1473 35.0925 76.8764 35.0925C75.5281 35.0882 74.5278 34.6669 73.9017 33.8428C73.7918 33.6988 73.6906 33.5486 73.5988 33.3928C73.5832 33.364 73.5591 33.3406 73.5298 33.3256C73.5004 33.3105 73.4671 33.3046 73.4343 33.3084C73.4014 33.3123 73.3705 33.3258 73.3455 33.3473C73.3206 33.3687 73.3028 33.3971 73.2945 33.4286C73.0863 34.0979 72.8985 34.75 72.7194 35.3691C72.3321 36.7048 71.9913 37.8714 71.7162 38.9019C71.4424 39.9309 71.1818 40.9284 70.9837 41.731C70.7857 42.5335 70.6474 43.1899 70.5746 43.6715V43.6901C70.4785 44.3666 69.9558 44.9083 69.2743 45.0402C69.0501 45.0889 68.8229 45.1118 68.5929 45.1118C68.1455 45.1062 67.7024 45.0258 67.2824 44.8739C66.5767 44.6175 65.9471 44.1919 65.4507 43.6357C64.8943 43.0191 64.5975 42.2171 64.6207 41.3927C64.6892 40.7091 64.8246 40.0341 65.0226 39.3763C65.2862 38.2971 65.6414 36.9685 66.0855 35.4164C66.3709 34.3645 66.7364 33.2194 67.1033 31.9954C67.1147 31.9629 67.1152 31.9277 67.1047 31.895C67.0942 31.8622 67.0733 31.8336 67.0451 31.8134C67.017 31.7925 66.9828 31.7812 66.9475 31.7812C66.9123 31.7812 66.8781 31.7925 66.85 31.8134C65.4765 32.7341 64.0025 33.5004 62.4556 34.0979C60.6952 34.7715 58.8198 35.1083 56.9313 35.0925C56.6677 35.0925 56.3969 35.0739 56.1261 35.0739C54.7777 35.071 53.7789 34.6497 53.1528 33.8242C53.0419 33.6802 52.9398 33.53 52.847 33.3741C52.8312 33.3459 52.8071 33.3229 52.778 33.3082C52.7488 33.2935 52.7158 33.2877 52.6833 33.2916C52.6508 33.2954 52.6201 33.3087 52.5953 33.3298C52.5705 33.3509 52.5527 33.3788 52.5441 33.41C52.3359 34.0836 52.1481 34.7314 51.969 35.3519C51.5817 36.6905 51.2555 37.8499 50.9658 38.8833C50.6775 39.9166 50.4124 40.9098 50.2159 41.7166C50.0516 42.3576 49.9146 43.005 49.8053 43.6571V43.6758C49.7092 44.3522 49.1864 44.894 48.505 45.0258C48.2827 45.0741 48.0556 45.0981 47.8279 45.0975C47.3806 45.0919 46.9374 45.0114 46.5175 44.8596C45.8118 44.6032 45.1822 44.1776 44.6857 43.6213C44.1293 43.0048 43.8325 42.2027 43.8558 41.3784C43.9242 40.6948 44.0596 40.0198 44.2577 39.3619C44.8466 37.0441 45.4913 34.7403 46.1913 32.4526C46.2021 32.4183 46.2011 32.3815 46.1884 32.3478C46.1758 32.3141 46.1523 32.2855 46.1214 32.2663C46.0901 32.2478 46.0536 32.24 46.0173 32.2438C45.981 32.2477 45.947 32.2631 45.9205 32.2878C45.3774 32.7808 44.8081 33.2466 44.214 33.6808C43.1442 34.5364 41.8203 35.0255 40.4428 35.0739C39.307 35.0739 38.4581 34.6855 37.9194 33.9116C37.6938 33.5795 37.5219 33.2149 37.4098 32.831C37.3853 32.7486 37.3391 32.6741 37.2759 32.615C37.2128 32.5559 37.1349 32.5142 37.0501 32.4942C36.9651 32.4737 36.8762 32.4758 36.7923 32.5003C36.7084 32.5247 36.6326 32.5705 36.5725 32.6332C36.2012 33.0158 35.795 33.3641 35.3567 33.6694C34.7716 34.0776 34.1366 34.4118 33.4668 34.664C32.7387 34.9334 31.967 35.0696 31.1895 35.0638C30.1577 35.0822 29.1535 34.7359 28.3589 34.0879C27.5362 33.3947 26.9378 32.4794 26.6378 31.4551C26.2752 30.1562 26.1515 28.804 26.2723 27.4623C26.4121 25.7124 26.7689 23.984 27.3353 22.3172C28.6166 18.4405 30.2445 15.61 32.2961 13.7755C34.3462 11.9382 36.4299 11.0052 38.4844 11.0052C39.2504 10.9768 40.0097 11.1552 40.6801 11.5211C41.232 11.8364 41.6848 12.2965 41.9877 12.8482C42.1871 13.218 42.3327 13.6135 42.4201 14.0234C42.4245 14.0391 42.4335 14.0531 42.4459 14.0638C42.4583 14.0745 42.4736 14.0814 42.49 14.0836C42.5063 14.0857 42.523 14.0831 42.5379 14.0763C42.5528 14.0694 42.5655 14.0586 42.5744 14.0449C42.6764 13.86 42.7754 13.6952 42.87 13.5433C43.0762 13.1865 43.3561 12.8762 43.6917 12.6326C44.0272 12.3889 44.411 12.2173 44.8182 12.1288C45.552 11.9626 46.3155 11.9725 47.0446 12.1574C47.7216 12.318 48.3317 12.6805 48.7919 13.1951C49.2578 13.678 49.3743 14.3932 49.0831 14.9951C49.0001 15.2101 48.7802 15.7074 48.4366 16.467C47.5315 18.46 46.6885 20.4798 45.9088 22.5236C45.5042 23.5667 45.1643 24.633 44.891 25.7167C44.6797 26.4737 44.5884 27.2583 44.6202 28.0427C44.6683 28.6189 44.891 28.6189 45.009 28.6189C45.3643 28.5744 45.6933 28.4125 45.9423 28.1602C46.1986 27.9381 46.4665 27.7016 46.7373 27.4408C47.7634 26.4771 48.5316 25.2788 48.9739 23.9525C49.6 22.1338 50.2625 20.338 50.9395 18.6067C51.5869 16.9455 52.2881 15.3051 53.0421 13.6881C53.3493 12.9901 53.9463 12.4555 54.6831 12.2191C55.3587 11.9969 56.0809 11.9482 56.7798 12.0786C57.4448 12.1949 58.0687 12.4761 58.5926 12.8955C58.8035 13.0612 58.9855 13.2597 59.1314 13.4831C59.1678 13.5218 59.2085 13.529 59.2595 13.4831C59.8696 12.9242 60.5292 12.4226 61.2296 11.9812C62.2776 11.3227 63.4983 10.98 64.7416 10.9951C65.7611 10.9712 66.7529 11.3228 67.5227 11.9812C68.3104 12.6977 68.855 13.6365 69.0836 14.6669C69.3821 15.9768 69.4418 17.3298 69.2583 18.6597C69.0268 20.4261 68.5795 22.1584 67.926 23.8192C67.3271 25.4531 66.5581 27.0217 65.6313 28.4999C65.2206 29.1448 64.8013 29.7468 64.3718 30.3C64.3604 30.3148 64.3546 30.3331 64.3554 30.3516C64.3562 30.3702 64.3635 30.3879 64.3761 30.4017C64.4009 30.4304 64.4431 30.439 64.478 30.4218C64.7212 30.2885 64.9658 30.1423 65.209 29.9832C65.6152 29.721 65.9967 29.4501 66.3564 29.1692C67.7745 28.098 68.8344 26.6335 69.3996 24.9643C70.1163 22.8201 70.8878 20.694 71.7132 18.5881C72.359 16.9264 73.0597 15.286 73.8143 13.6694C74.1216 12.9715 74.7186 12.4369 75.4553 12.2004C76.1309 11.9783 76.8532 11.9296 77.5521 12.06C78.2168 12.1769 78.8406 12.458 79.3649 12.8769C79.5833 13.0489 79.7726 13.2524 79.9225 13.4831C79.9589 13.5218 79.9997 13.529 80.0507 13.4831C80.6599 12.9249 81.3193 12.4222 82.0207 11.9812C83.0674 11.3232 84.2866 10.9805 85.5284 10.9951V10.9951ZM17.335 1.77697C18.9029 1.77517 20.4657 1.95361 21.9915 2.30867C23.4434 2.63364 24.8354 3.17801 26.118 3.92243C27.2944 4.6029 28.3104 5.52182 29.0986 6.61822C29.8776 7.73037 30.2823 9.05462 30.259 10.4018C30.2727 11.8875 29.9237 13.3546 29.2413 14.6798C28.5494 16.0007 27.6222 17.1885 26.5038 18.1868C25.298 19.259 23.95 20.1654 22.4968 20.8812C21.2183 21.5146 19.8904 22.0463 18.5246 22.4677C18.4873 22.474 18.454 22.4945 18.4319 22.5249C18.4098 22.5552 18.4008 22.5928 18.4067 22.6296C18.4358 23.3104 18.4882 23.9768 18.5523 24.6246C18.6309 25.3656 18.7372 26.0893 18.861 26.7844C19.0658 27.9208 19.3623 29.0394 19.7477 30.1294C20.1969 31.4011 20.8131 32.6095 21.5809 33.7238C21.8517 34.1008 22.1458 34.4619 22.4647 34.803C22.7588 35.1183 23.0763 35.415 23.4126 35.6887C23.7271 35.9438 24.062 36.176 24.4115 36.3838C25.0743 36.7768 25.7985 37.0596 26.5548 37.2208C26.9261 37.3039 27.3047 37.3569 27.6862 37.3799C28.0793 37.4085 28.4724 37.4085 28.8656 37.3799C29.2791 37.3455 29.6897 37.2795 30.0945 37.1864C30.5284 37.0861 30.9536 36.9571 31.3686 36.8009C31.8199 36.6332 32.2582 36.4383 32.6834 36.2175C32.8523 36.1316 33.0168 36.0413 33.1857 35.9481C33.4478 35.7956 33.7583 35.7452 34.0562 35.8069C34.3541 35.8687 34.6177 36.038 34.795 36.2816C34.9722 36.5252 35.0504 36.8253 35.0139 37.1228C34.9775 37.4203 34.8291 37.6935 34.5981 37.8886C33.845 38.5375 33.0566 39.1455 32.2364 39.7102C31.729 40.0591 31.2052 40.3843 30.6667 40.6847C30.4004 40.8379 30.1289 40.9822 29.8528 41.1176C29.3286 41.3798 28.7899 41.6149 28.238 41.8198C27.7151 42.0115 27.1807 42.1714 26.6378 42.2985C25.7684 42.5105 24.8762 42.6183 23.9805 42.6195H23.548C22.8124 42.5867 22.0828 42.4733 21.3727 42.2813C21.1399 42.2177 20.9101 42.1441 20.684 42.0606C19.7832 41.7328 18.936 41.277 18.1693 40.7077C17.4529 40.1755 16.8059 39.5584 16.243 38.8704C15.9165 38.4827 15.6136 38.0764 15.3358 37.6536C14.7431 36.7548 14.2413 35.801 13.8375 34.8059C13.3973 33.7169 13.041 32.5968 12.7717 31.4551C12.629 30.8532 12.5096 30.2298 12.4062 29.6035C12.3122 29.0336 12.2364 28.461 12.1791 27.8865C12.1775 27.8469 12.1615 27.8091 12.134 27.7801C12.1064 27.7512 12.0692 27.733 12.0291 27.7289C11.9888 27.7256 11.9487 27.7368 11.9162 27.7606C11.8838 27.7843 11.8613 27.8189 11.8529 27.8579H11.8456C11.6258 28.6203 11.4205 29.3627 11.2603 30.0678C11.0157 30.9707 10.8075 31.7819 10.6342 32.5013C10.4507 33.2222 10.3226 33.784 10.2673 34.2011C10.1479 34.9148 9.56835 35.4666 8.84031 35.5626C8.1101 35.689 7.35905 35.6268 6.66058 35.382C5.90904 35.1354 5.22679 34.7186 4.66868 34.1652C4.36499 33.8707 4.12577 33.5182 3.96576 33.1292C3.80574 32.7403 3.72832 32.3232 3.73826 31.9037C3.80669 30.7156 3.99598 29.539 4.30321 28.3867C4.66868 26.7887 5.21034 24.8869 5.89906 22.7443C6.65706 20.4017 7.47759 18.0791 8.35981 15.7791C9.17521 13.6178 10.0925 11.4795 11.0827 9.35129C11.4088 8.65476 12.0815 8.17608 12.8561 8.08723C14.3741 7.87878 15.9172 7.92871 17.418 8.23484C17.5998 8.27709 17.77 8.35832 17.9162 8.47273C18.0625 8.58714 18.1813 8.73191 18.2642 8.89672C18.3471 9.06153 18.392 9.24232 18.3957 9.42618C18.3995 9.61004 18.3619 9.79245 18.2858 9.96038C17.4727 11.7456 16.7124 13.5536 16.0056 15.3821C15.4523 16.8224 14.9063 18.2413 14.4185 19.62C14.4078 19.6505 14.4064 19.6834 14.4144 19.7147C14.4224 19.746 14.4395 19.7744 14.4636 19.7963C14.5131 19.8392 14.5859 19.8507 14.6471 19.822C15.3285 19.5068 15.9881 19.1456 16.6201 18.7414C17.6752 18.0758 18.638 17.278 19.4842 16.3681C20.3139 15.4728 20.9981 14.4566 21.5125 13.3556C22.028 12.2462 22.2928 11.0399 22.2885 9.81993C22.2885 8.20331 21.8342 7.01091 20.9373 6.27283C20.0404 5.53475 18.7474 5.13919 17.118 5.13919C15.4804 5.11768 13.8668 5.52896 12.4455 6.33016C11.0686 7.10797 9.83661 8.11125 8.80246 9.29683C7.83008 10.406 7.03471 11.6542 6.44363 12.9987C5.94822 14.0458 5.66625 15.1784 5.61367 16.3323C5.62775 16.6385 5.5353 16.9403 5.35157 17.1879C5.16785 17.4354 4.90385 17.6139 4.60316 17.6938C4.00074 17.8718 3.35465 17.8425 2.77143 17.6107C2.0843 17.3329 1.49077 16.8699 1.0591 16.2749C0.505355 15.4994 0.229271 14.5647 0.274278 13.6178C0.274278 12.6533 0.641206 11.5154 1.41001 10.1438C2.25939 8.67604 3.3621 7.36515 4.66868 6.26996C6.26484 4.93722 8.06937 3.86717 10.0124 3.10122C12.3398 2.1877 14.8283 1.73807 17.3335 1.7784L17.335 1.77697ZM62.077 15.2775L62.042 15.2818C61.8438 15.3086 61.6579 15.3924 61.5077 15.5225C60.9961 15.9114 60.5393 16.3654 60.1492 16.8726C59.5672 17.6089 59.0388 18.3847 58.5679 19.1943C57.99 20.1752 57.4764 21.1915 57.0303 22.2369C56.5803 23.286 56.1901 24.358 55.861 25.4487C55.5786 26.3588 55.3501 27.2843 55.1767 28.2204C55.0427 28.8654 55.0063 29.5246 55.0675 30.1796C55.1403 30.7299 55.3121 30.846 55.3631 30.8675C55.387 30.8732 55.412 30.8732 55.4359 30.8675C55.6344 30.8417 55.8207 30.759 55.9717 30.6296C56.4857 30.2384 56.9415 29.7783 57.3259 29.2624C57.901 28.5171 58.4208 27.7346 58.8838 26.9177C59.4139 25.9919 59.9409 24.9628 60.4535 23.8607C60.9049 22.8159 61.298 21.7468 61.6329 20.6605C61.9125 19.7576 62.1411 18.8389 62.3172 17.9088L62.3027 17.903C62.4366 17.2667 62.473 16.616 62.4119 15.9682C62.3362 15.4222 62.1644 15.3033 62.1119 15.2803C62.0888 15.2761 62.0651 15.2761 62.042 15.2803L62.077 15.2775V15.2775ZM82.8638 15.2746L82.8288 15.2775C82.631 15.3059 82.4456 15.3895 82.2945 15.5182C81.7863 15.9052 81.3335 16.3552 80.9476 16.8582C80.3652 17.5935 79.8352 18.3702 79.3649 19.18C78.7883 20.1708 78.2761 21.1966 77.8316 22.2513C77.3777 23.2947 76.983 24.3622 76.6493 25.4487C76.3654 26.3588 76.1368 27.2831 75.965 28.2204C75.8285 28.8643 75.7912 29.5248 75.8543 30.1796C75.9271 30.7299 76.0989 30.846 76.1513 30.8675C76.1752 30.8732 76.2002 30.8732 76.2241 30.8675C76.4221 30.8416 76.608 30.7589 76.7585 30.6296C77.2725 30.2369 77.7282 29.7769 78.1126 29.2624C78.6878 28.5171 79.2047 27.7346 79.6663 26.9177C80.2006 25.9919 80.7277 24.9628 81.2403 23.8607C81.6873 22.8145 82.0761 21.7425 82.4051 20.6533C82.6847 19.7504 82.9148 18.8317 83.0895 17.9016C83.2205 17.2638 83.2584 16.6117 83.1958 15.9654C83.123 15.4179 82.9497 15.299 82.8987 15.2775C82.8756 15.2732 82.8519 15.2732 82.8288 15.2775L82.8638 15.2746V15.2746ZM39.406 15.1771L39.374 15.18C39.1862 15.2065 39.0111 15.2884 38.8717 15.415C38.3824 15.8049 37.9544 16.2649 37.602 16.7794C37.0691 17.5218 36.5973 18.3043 36.1881 19.1198C35.6804 20.1169 35.2207 21.137 34.8107 22.1768C34.3921 23.2159 34.0438 24.2812 33.7682 25.3656C33.5349 26.2646 33.3709 27.1796 33.2775 28.1029C33.2047 28.7522 33.2119 29.41 33.3022 30.0578C33.3983 30.6124 33.5774 30.7342 33.6284 30.7557C33.6515 30.76 33.6752 30.76 33.6983 30.7557C33.8856 30.7301 34.0604 30.6486 34.1992 30.5221C34.6869 30.1352 35.1165 29.6837 35.4732 29.1792C36.009 28.4483 36.4808 27.6744 36.8871 26.8675C37.3676 25.9317 37.8277 24.8897 38.2645 23.8106C38.6809 22.7701 39.0304 21.7038 39.307 20.6203C39.54 19.7146 39.7104 18.7945 39.8196 17.8658C39.9174 17.214 39.9125 16.5512 39.805 15.9009C39.6812 15.3276 39.4949 15.2058 39.4395 15.18C39.4179 15.1757 39.3956 15.1757 39.374 15.18L39.406 15.1771V15.1771ZM100.463 0.888399C101.073 0.888023 101.676 1.00579 102.239 1.23498C102.802 1.46418 103.314 1.8003 103.745 2.22417C104.177 2.64804 104.519 3.15134 104.752 3.70536C104.986 4.25937 105.106 4.85324 105.107 5.45306C105.106 6.05299 104.986 6.64701 104.753 7.20119C104.519 7.75537 104.177 8.25885 103.746 8.68287C103.315 9.10689 102.803 9.44314 102.24 9.67242C101.676 9.9017 101.073 10.0195 100.463 10.0191C99.8472 10.03 99.2352 9.91993 98.6628 9.69541C98.0905 9.47089 97.5693 9.1364 97.1298 8.71147C96.6902 8.28654 96.341 7.77968 96.1026 7.22048C95.8642 6.66128 95.7414 6.06094 95.7413 5.4545C95.7412 4.84807 95.8639 4.24769 96.1021 3.68841C96.3403 3.12914 96.6893 2.62217 97.1287 2.1971C97.5682 1.77203 98.0892 1.43739 98.6615 1.21269C99.2338 0.987993 99.8458 0.877751 100.462 0.888399H100.463Z" fill="white"/>
</svg>
