<svg width="288" height="190" viewBox="0 0 288 190" fill="none" xmlns="http://www.w3.org/2000/svg">
<path fill-rule="evenodd" clip-rule="evenodd" d="M74.0605 78.4082V114.791H214.94V78.4082H74.0605Z" fill="#FFFBF3"/>
<path fill-rule="evenodd" clip-rule="evenodd" d="M102.524 93.124C100.502 93.124 99.0517 94.5024 98.6602 96.6006H105.663C105.569 94.3829 104.215 93.124 102.524 93.124Z" fill="#2C3B29"/>
<path fill-rule="evenodd" clip-rule="evenodd" d="M114.686 101.364C114.686 102.533 115.532 103.551 117.011 103.551C119.214 103.551 120.725 101.244 120.725 99.2647V98.7256H120.058C118.58 98.7256 114.686 98.9367 114.686 101.364" fill="#2C3B29"/>
<path fill-rule="evenodd" clip-rule="evenodd" d="M172.77 93.124C170.748 93.124 169.298 94.5025 168.908 96.6006H175.909C175.816 94.3829 174.459 93.124 172.77 93.124Z" fill="#2C3B29"/>
<path fill-rule="evenodd" clip-rule="evenodd" d="M212.254 66C209.251 66 183.248 69.0303 144.499 69.0303C105.749 69.0303 79.7452 66 76.747 66C71.8726 66 67 69.0303 67 74.1872V116.508C67 121.666 71.8726 124.697 76.747 124.697C79.7452 124.697 105.749 121.666 144.499 121.666C183.248 121.666 209.251 124.697 212.254 124.697C217.124 124.697 222 121.666 222 116.508V74.1872C222 69.0303 217.124 66 212.254 66ZM86.5809 106.278C83.7751 106.278 80.3932 105.079 80.3932 102.591V100.856H83.5014V101.783C83.5014 102.893 85.0113 103.431 86.6425 103.431C88.2121 103.431 89.359 102.86 89.359 101.783C89.359 100.463 87.8508 100.103 85.7978 99.3559C83.5325 98.5467 80.9372 97.5269 80.9372 94.6531C80.9372 91.4447 84.1364 90.3053 86.9153 90.3053C89.1486 90.3053 92.4394 91.1721 92.4394 93.4509V95.3694H89.2672V94.4691C89.2672 93.6616 88.3012 93.1525 86.9439 93.1525C85.6765 93.1525 84.5884 93.6307 84.5884 94.6213C84.5884 95.9386 86.1582 96.4503 87.8803 96.9877C90.2348 97.7368 93.0104 98.6972 93.0104 101.66C93.0104 104.717 90.1135 106.278 86.5809 106.278V106.278ZM109.312 98.7866H98.5674C98.8089 101.692 100.923 103.22 103.308 103.22C105.841 103.22 107.804 101.575 107.804 101.575L109.223 104.151C109.223 104.151 106.897 106.278 103.067 106.278C98.0251 106.278 94.8251 102.653 94.8251 98.2767C94.8251 93.5738 98.0538 90.3053 102.612 90.3053C107.019 90.3053 109.402 93.5137 109.402 97.5286C109.402 97.9474 109.308 98.7866 109.308 98.7866H109.312ZM116.107 106.278C113.48 106.278 111.006 104.75 111.006 101.633C111.006 96.961 117.223 96.5078 119.728 96.5078H120.696V95.9695C120.696 93.9316 119.428 93.2127 117.768 93.2127C115.44 93.2127 113.42 94.6805 113.42 94.6805L112.031 92.1653C112.031 92.1653 114.385 90.3053 118.069 90.3053C122.175 90.3053 124.347 92.4035 124.347 96.3006V102.535C124.347 102.982 124.589 103.192 125.013 103.192H126.431V105.918H122.898C121.509 105.918 120.967 105.2 120.967 104.3V104.12C120.967 103.612 121.06 103.281 121.06 103.281H120.995C120.995 103.281 119.698 106.278 116.106 106.278H116.107ZM147.712 93.6039C145.057 93.6039 143.698 96.2688 143.698 99.1168V103.191H145.963V105.915H140.046V96.8088C140.046 95.0993 139.772 93.6039 137.873 93.6039C135.095 93.6039 133.766 96.507 133.766 99.2957V103.191H136.031V105.915H127.85V103.191H130.115V94.0218C130.115 93.6039 129.873 93.3915 129.449 93.3915H127.7V90.6656H131.623C132.953 90.6656 133.616 91.2649 133.616 92.3751V93.0605C133.616 93.4208 133.56 93.7811 133.56 93.7811H133.616C134.4 92.1645 136.365 90.3053 138.898 90.3053C141.102 90.3053 142.642 91.3252 143.215 93.6624H143.271C144.119 91.8643 146.2 90.3053 148.646 90.3053C151.816 90.3053 153.597 92.1335 153.597 96.1192V103.191H155.859V105.915H149.941V96.8088C149.941 95.0107 149.611 93.6039 147.708 93.6039H147.712ZM163.896 105.947C163.896 105.947 163.262 106.038 162.539 106.038C160.124 106.038 157.95 105.2 157.95 101.185V88.2497H155.536V85.5234H161.571V100.943C161.571 102.292 161.875 103.041 163.171 103.041C163.596 103.041 163.896 103.011 163.896 103.011L163.896 105.947ZM179.565 98.7866H168.816C169.058 101.692 171.174 103.22 173.556 103.22C176.093 103.22 178.055 101.575 178.055 101.575L179.472 104.151C179.472 104.151 177.148 106.278 173.318 106.278C168.275 106.278 165.071 102.653 165.071 98.2767C165.071 93.5738 168.306 90.3053 172.862 90.3053C177.269 90.3053 179.656 93.5137 179.656 97.5286C179.656 97.9474 179.563 98.7866 179.563 98.7866H179.565ZM187.836 106.278C185.032 106.278 181.648 105.079 181.648 102.591V100.856H184.76V101.783C184.76 102.893 186.266 103.431 187.896 103.431C189.468 103.431 190.615 102.86 190.615 101.783C190.615 100.463 189.104 100.103 187.049 99.3559C184.788 98.5467 182.192 97.5268 182.192 94.653C182.192 91.4447 185.393 90.3053 188.17 90.3053C190.402 90.3053 193.691 91.1721 193.691 93.4509V95.3694H190.523V94.4691C190.523 93.6616 189.556 93.1525 188.199 93.1525C186.929 93.1525 185.847 93.6307 185.847 94.6213C185.847 95.9386 187.415 96.4503 189.132 96.9877C191.49 97.7368 194.266 98.6972 194.266 101.66C194.266 104.717 191.372 106.278 187.836 106.278V106.278ZM202.178 106.278C199.371 106.278 195.988 105.079 195.988 102.591V100.856H199.1V101.783C199.1 102.893 200.608 103.431 202.236 103.431C203.809 103.431 204.954 102.86 204.954 101.783C204.954 100.463 203.443 100.103 201.393 99.3559C199.129 98.5467 196.531 97.5268 196.531 94.653C196.531 91.4447 199.73 90.3053 202.508 90.3053C204.745 90.3053 208.034 91.1721 208.034 93.4509V95.3694H204.863V94.4691C204.863 93.6616 203.899 93.1525 202.54 93.1525C201.272 93.1525 200.186 93.6307 200.186 94.6213C200.186 95.9386 201.753 96.4503 203.474 96.9877C205.83 97.7368 208.607 98.6972 208.607 101.66C208.607 104.717 205.707 106.278 202.178 106.278V106.278Z" fill="#2C3B29"/>
</svg>
