<svg width="198" height="32" viewBox="0 0 198 32" fill="none" xmlns="http://www.w3.org/2000/svg">
<path d="M147.768 19.789C147.768 15.8501 144.616 12.7552 140.64 12.7552C136.72 12.7552 133.512 15.8501 133.512 19.789C133.512 23.728 136.72 26.8229 140.64 26.8229C144.616 26.8229 147.768 23.728 147.768 19.789V19.789ZM153.582 8.27226V31.3245H147.655V29.2425C145.592 30.9494 142.985 31.906 140.152 31.906C133.137 31.906 127.66 26.5227 127.66 19.789C127.66 13.074 133.156 7.67203 140.152 7.67203C142.985 7.67203 145.592 8.62864 147.655 10.3355V8.27226H153.582V8.27226ZM173.277 26.0913H168.813C167.462 26.0913 166.581 25.5099 166.581 24.2719V13.4867H173.258V8.27226H166.581V1.70733H160.597V8.27226H156.096V13.5054H160.597V25.7537C160.597 28.8486 162.829 31.3058 166.843 31.3058H173.258V26.0913H173.277ZM186.782 31.906C193.628 31.906 197.492 28.6985 197.492 24.2719C197.492 21.1208 195.204 18.7761 190.421 17.7633L185.356 16.7504C182.43 16.2252 181.493 15.6812 181.493 14.6121C181.493 13.2241 182.899 12.38 185.507 12.38C188.339 12.38 190.402 13.1303 191.002 15.6812H196.93C196.611 10.8795 193.066 7.67203 185.9 7.67203C179.711 7.67203 175.359 10.1855 175.359 15.0435C175.359 18.401 177.76 20.5956 182.918 21.6647L188.564 22.9402C190.796 23.3716 191.396 23.953 191.396 24.8534C191.396 26.2977 189.708 27.198 186.988 27.198C183.575 27.198 181.605 26.4477 180.855 23.8968H174.871C175.753 28.6985 179.392 31.906 186.782 31.906V31.906ZM103.745 0.0942383H126.085V5.4212H109.785V13.0553H125.653V18.2322H109.785V25.96H126.085V31.287H103.745V0.0942383Z" fill="white"/>
<path d="M93.1281 12.5676V8.3848H91.5338C89.0016 8.3848 87.1259 9.54773 86.0005 11.3671V8.55361H81.4613V31.2682H86.038V18.3635C86.038 14.8372 88.2138 12.5676 91.2149 12.5676H93.1281V12.5676ZM60.191 17.8195C61.0163 14.3495 63.8673 12.0236 67.2623 12.0236C70.6573 12.0236 73.5271 14.3307 74.2962 17.8195H60.191ZM67.3561 8.1222C60.6036 8.1222 55.4642 13.5054 55.4642 19.9203C55.4642 26.6916 60.8099 31.7747 67.7688 31.7747C71.9891 31.7747 75.4403 29.9553 77.7474 26.9166L74.4275 24.5157C72.7018 26.7853 70.4322 27.8545 67.75 27.8545C63.8486 27.8545 60.7162 25.0972 60.0784 21.4021H78.9104V19.9391C78.9291 13.1491 74.0336 8.1222 67.3561 8.1222ZM41.1714 27.8545C36.7261 27.8545 33.181 24.3282 33.181 19.9766C33.181 15.5687 36.7636 12.0987 41.1714 12.0987C45.523 12.0987 49.1056 15.5687 49.1056 19.9766C49.1244 24.3282 45.5418 27.8545 41.1714 27.8545ZM28.6981 31.287H33.2373V28.4359C35.3193 30.5367 38.2829 31.8122 41.4903 31.8122C48.2991 31.8122 53.6448 26.504 53.6448 19.9578C53.6448 13.3741 48.2991 8.06593 41.4903 8.06593C38.2641 8.06593 35.3568 9.36016 33.2748 11.4422V0.0942383H28.6981V31.287V31.287ZM12.5859 27.6294C16.9938 27.6294 20.3888 24.2907 20.3888 19.3388V0.0942383H25.153V31.2682H20.4263V28.3797C18.288 30.5555 15.3432 31.8122 12.0232 31.8122C5.21442 31.8122 0 26.9541 0 19.6014V0.0942383H4.78302V19.3388C4.78302 24.3845 8.1405 27.6294 12.5859 27.6294Z" fill="white"/>
</svg>
