<svg width="199" height="45" viewBox="0 0 199 45" fill="none" xmlns="http://www.w3.org/2000/svg">
<path d="M148.768 26.6948C148.768 22.7558 145.616 19.6609 141.64 19.6609C137.72 19.6609 134.512 22.7558 134.512 26.6948C134.512 30.6337 137.72 33.7286 141.64 33.7286C145.616 33.7286 148.768 30.6337 148.768 26.6948V26.6948ZM154.582 15.178V38.2303H148.655V36.1483C146.592 37.8551 143.985 38.8117 141.152 38.8117C134.137 38.8117 128.66 33.4285 128.66 26.6948C128.66 19.9798 134.156 14.5778 141.152 14.5778C143.985 14.5778 146.592 15.5344 148.655 17.2413V15.178H154.582V15.178ZM174.277 32.9971H169.813C168.462 32.9971 167.581 32.4156 167.581 31.1777V20.3924H174.258V15.178H167.581V8.6131H161.597V15.178H157.096V20.4112H161.597V32.6595C161.597 35.7544 163.829 38.2115 167.843 38.2115H174.258V32.9971H174.277ZM187.782 38.8117C194.628 38.8117 198.492 35.6043 198.492 31.1777C198.492 28.0265 196.204 25.6819 191.421 24.669L186.356 23.6561C183.43 23.131 182.493 22.587 182.493 21.5179C182.493 20.1298 183.899 19.2858 186.507 19.2858C189.339 19.2858 191.402 20.0361 192.002 22.587H197.93C197.611 17.7852 194.066 14.5778 186.9 14.5778C180.711 14.5778 176.359 17.0912 176.359 21.9493C176.359 25.3068 178.76 27.5013 183.918 28.5705L189.564 29.8459C191.796 30.2773 192.396 30.8588 192.396 31.7591C192.396 33.2034 190.708 34.1038 187.988 34.1038C184.575 34.1038 182.605 33.3535 181.855 30.8025H175.871C176.753 35.6043 180.392 38.8117 187.782 38.8117V38.8117ZM104.745 7H127.085V12.327H110.785V19.961H126.653V25.1379H110.785V32.8658H127.085V38.1928H104.745V7Z" fill="#2C3B29"/>
<path d="M94.1281 19.4734V15.2906H92.5338C90.0016 15.2906 88.1259 16.4535 87.0005 18.2729V15.4594H82.4613V38.174H87.038V25.2692C87.038 21.7429 89.2138 19.4734 92.2149 19.4734H94.1281V19.4734ZM61.191 24.7253C62.0163 21.2553 64.8673 18.9294 68.2623 18.9294C71.6573 18.9294 74.5271 21.2365 75.2962 24.7253H61.191ZM68.3561 15.028C61.6036 15.028 56.4642 20.4112 56.4642 26.8261C56.4642 33.5973 61.8099 38.6804 68.7688 38.6804C72.9891 38.6804 76.4403 36.861 78.7474 33.8224L75.4275 31.4215C73.7018 33.6911 71.4322 34.7602 68.75 34.7602C64.8486 34.7602 61.7162 32.003 61.0784 28.3079H79.9104V26.8448C79.9291 20.0548 75.0336 15.028 68.3561 15.028ZM42.1714 34.7602C37.7261 34.7602 34.181 31.2339 34.181 26.8823C34.181 22.4745 37.7636 19.0044 42.1714 19.0044C46.523 19.0044 50.1056 22.4745 50.1056 26.8823C50.1244 31.2339 46.5418 34.7602 42.1714 34.7602ZM29.6981 38.1928H34.2373V35.3417C36.3193 37.4425 39.2829 38.718 42.4903 38.718C49.2991 38.718 54.6448 33.4097 54.6448 26.8636C54.6448 20.2799 49.2991 14.9717 42.4903 14.9717C39.2641 14.9717 36.3568 16.2659 34.2748 18.3479V7H29.6981V38.1928V38.1928ZM13.5859 34.5352C17.9938 34.5352 21.3888 31.1964 21.3888 26.2446V7H26.153V38.174H21.4263V35.2854C19.288 37.4612 16.3432 38.718 13.0232 38.718C6.21442 38.718 1 33.8599 1 26.5072V7H5.78302V26.2446C5.78302 31.2902 9.1405 34.5352 13.5859 34.5352Z" fill="#2C3B29"/>
</svg>
