<svg width="288" height="190" viewBox="0 0 288 190" fill="none" xmlns="http://www.w3.org/2000/svg">
<path d="M197.732 98.6892C197.732 94.3513 194.262 90.943 189.883 90.943C185.566 90.943 182.034 94.3513 182.034 98.6892C182.034 103.027 185.566 106.435 189.883 106.435C194.262 106.435 197.732 103.027 197.732 98.6892V98.6892ZM204.136 86.0062V111.393H197.608V109.1C195.336 110.98 192.465 112.033 189.346 112.033C181.62 112.033 175.589 106.105 175.589 98.6892C175.589 91.2942 181.641 85.3452 189.346 85.3452C192.465 85.3452 195.336 86.3986 197.608 88.2784V86.0062H204.136V86.0062ZM225.825 105.63H220.909C219.422 105.63 218.451 104.989 218.451 103.626V91.7486H225.804V86.0062H218.451V78.7764H211.861V86.0062H206.904V91.7693H211.861V105.258C211.861 108.666 214.319 111.372 218.74 111.372H225.804V105.63H225.825ZM240.698 112.033C248.237 112.033 252.492 108.501 252.492 103.626C252.492 100.156 249.972 97.5737 244.705 96.4583L239.128 95.3428C235.905 94.7645 234.873 94.1654 234.873 92.988C234.873 91.4595 236.422 90.5299 239.293 90.5299C242.412 90.5299 244.684 91.3562 245.345 94.1654H251.873C251.522 88.8774 247.618 85.3452 239.727 85.3452C232.91 85.3452 228.118 88.1131 228.118 93.4631C228.118 97.1606 230.762 99.5774 236.442 100.755L242.66 102.159C245.118 102.635 245.779 103.275 245.779 104.266C245.779 105.857 243.92 106.848 240.925 106.848C237.165 106.848 234.997 106.022 234.17 103.213H227.581C228.552 108.501 232.559 112.033 240.698 112.033V112.033ZM149.252 77H173.854V82.8664H155.903V91.2735H173.379V96.9747H155.903V105.485H173.854V111.352H149.252V77Z" fill="#2C3B29"/>
<path d="M137.559 90.7365V86.1301H135.803C133.014 86.1301 130.949 87.4108 129.709 89.4145V86.316H124.711V111.331H129.751V97.1193C129.751 93.2359 132.147 90.7365 135.452 90.7365H137.559V90.7365ZM101.286 96.5203C102.195 92.6988 105.335 90.1374 109.074 90.1374C112.812 90.1374 115.973 92.6782 116.82 96.5203H101.286ZM109.177 85.8409C101.741 85.8409 96.0808 91.7693 96.0808 98.8338C96.0808 106.291 101.968 111.889 109.631 111.889C114.279 111.889 118.08 109.885 120.621 106.539L116.964 103.895C115.064 106.394 112.565 107.571 109.611 107.571C105.314 107.571 101.865 104.535 101.162 100.466H121.901V98.8544C121.922 91.3768 116.531 85.8409 109.177 85.8409ZM80.3407 107.571C75.4451 107.571 71.5411 103.688 71.5411 98.8957C71.5411 94.0415 75.4865 90.2201 80.3407 90.2201C85.133 90.2201 89.0783 94.0415 89.0783 98.8957C89.099 103.688 85.1536 107.571 80.3407 107.571ZM66.6042 111.352H71.6031V108.212C73.8959 110.525 77.1596 111.93 80.6919 111.93C88.1901 111.93 94.0772 106.084 94.0772 98.8751C94.0772 91.6247 88.1901 85.779 80.6919 85.779C77.139 85.779 73.9372 87.2042 71.6444 89.4971V77H66.6042V111.352V111.352ZM48.8604 107.324C53.7147 107.324 57.4535 103.647 57.4535 98.1934V77H62.7002V111.331H57.4948V108.15C55.1399 110.546 51.8969 111.93 48.2407 111.93C40.7425 111.93 35 106.58 35 98.4826V77H40.2674V98.1934C40.2674 103.75 43.9649 107.324 48.8604 107.324Z" fill="#2C3B29"/>
</svg>
