<svg width="40" height="45" viewBox="0 0 40 45" fill="none" xmlns="http://www.w3.org/2000/svg">
<path d="M27.779 5L28.6422 3.56349C28.1288 3.25497 27.4897 3.24394 26.9659 3.53457C26.4422 3.8252 26.1133 4.37328 26.1034 4.97221L27.779 5ZM34.0365 31.0211L35.444 31.9309L35.4561 31.9122L35.4676 31.8932L34.0365 31.0211ZM22.3485 18.4258C23.5053 17.1421 25.2231 14.9811 26.6713 12.6065C28.0762 10.3032 29.4136 7.50461 29.4547 5.02779L26.1034 4.97221C26.0783 6.48585 25.1768 8.61991 23.8098 10.8612C22.4862 13.0313 20.8993 15.027 19.8586 16.1819L22.3485 18.4258ZM26.9159 6.43651C29.3811 7.91785 32.6501 10.9155 34.3656 14.9886C36.0398 18.9637 36.2966 24.0919 32.6054 30.149L35.4676 31.8932C39.7202 24.9148 39.5461 18.6535 37.4546 13.6876C35.4043 8.81953 31.5727 5.32439 28.6422 3.56349L26.9159 6.43651ZM32.6291 30.1112C31.8931 31.2498 28.9677 33.8744 23.9082 32.9474L23.3042 36.2443C29.8599 37.4455 34.0661 34.0623 35.444 31.9309L32.6291 30.1112Z" fill="#58B749"/>
<path d="M28.2809 20.8794C26.4974 23.986 23.7124 30.003 23.2315 33.5496L22.7583 39.1945" stroke="#58B749" stroke-width="3.3518" stroke-linecap="round" stroke-linejoin="round"/>
<path d="M24.7131 27.0117C24.7092 29.4922 23.7184 31.8701 21.9579 33.6241C20.1974 35.3782 17.8107 36.3653 15.3209 36.3691C1.68172 36.3691 8.68183 20.0169 2.11317 12.145C2.05197 12.0616 2.01403 11.9636 2.00321 11.8608C1.99238 11.7581 2.00906 11.6544 2.05153 11.5601C2.09234 11.4635 2.1571 11.3787 2.23974 11.3137C2.32238 11.2488 2.42022 11.2058 2.52408 11.1888C16.6505 8.78798 24.7131 19.1455 24.7131 27.0117Z" stroke="#58B749" stroke-width="3.3518" stroke-linecap="round" stroke-linejoin="round"/>
<path d="M14.1055 25.3307C15.0492 28.7838 16.6537 32.0228 18.8309 34.8694L22.5027 39.1943" stroke="#58B749" stroke-width="3.3518" stroke-linecap="round" stroke-linejoin="round"/>
</svg>
