<svg width="40" height="45" viewBox="0 0 40 45" fill="none" xmlns="http://www.w3.org/2000/svg">
<path d="M24.593 28.3117C24.5504 31.0144 23.4468 33.592 21.5205 35.4882C19.5942 37.3844 16.9995 38.4472 14.2965 38.4472C11.5935 38.4472 8.9988 37.3844 7.07246 35.4882C5.14613 33.592 4.04259 31.0144 4 28.3117C4 22.6245 8.60292 9.43457 14.2978 9.43457C19.9926 9.43457 24.593 22.6168 24.593 28.3117Z" stroke="#58B749" stroke-width="3.3518" stroke-linecap="round" stroke-linejoin="round"/>
<path d="M22.5654 34.4486C24.1241 35.0676 25.8108 35.2949 27.4777 35.1104C29.1446 34.926 30.7409 34.3356 32.1265 33.3908C33.5122 32.4461 34.645 31.1759 35.4257 29.6916C36.2064 28.2073 36.6111 26.5542 36.6043 24.8771C36.6043 19.1899 32.0014 6 26.3091 6C23.5908 6 21.1283 9.02003 19.2871 12.7868" stroke="#58B749" stroke-width="3.3518" stroke-linecap="round" stroke-linejoin="round"/>
</svg>
