<svg width="17" height="17" viewBox="0 0 17 17" fill="none" xmlns="http://www.w3.org/2000/svg">
<path d="M16.39 7.12602C16.0241 6.75093 15.6603 6.37583 15.2899 6.00658C15.2044 5.92686 15.137 5.82907 15.0926 5.72006C15.0481 5.61106 15.0277 5.49348 15.0326 5.37558C15.0437 4.79961 15.0453 4.2228 15.0326 3.64682C15.0229 3.23323 14.867 2.83704 14.5935 2.53087C14.3199 2.22469 13.9471 2.02903 13.5433 1.97974C12.932 1.90639 12.3162 1.95432 11.7028 1.95557C11.5808 1.96002 11.4592 1.93729 11.3467 1.88899C11.2342 1.84069 11.1334 1.76797 11.0514 1.67591C10.6855 1.29124 10.3114 0.916142 9.93696 0.541049C9.65794 0.260146 9.32852 0.0742664 8.93356 0.0246708C8.44804 -0.0586833 8.0121 0.0717658 7.6368 0.376842C7.1562 0.766939 6.75263 1.24164 6.31997 1.68425C6.13847 1.87013 5.94631 1.9589 5.68655 1.95223C5.15391 1.93848 4.62128 1.94265 4.08865 1.95223C3.09549 1.96557 2.34735 2.73284 2.34161 3.73976C2.33834 4.2949 2.33465 4.85045 2.34161 5.40684C2.34547 5.51764 2.32572 5.62797 2.28371 5.73027C2.2417 5.83257 2.17843 5.92441 2.09824 5.99949C1.71884 6.37917 1.34436 6.76343 0.969061 7.14769C0.240993 7.89371 0.242222 8.96106 0.971929 9.70708C1.35215 10.0961 1.73305 10.4838 2.11463 10.8703C2.18913 10.9416 2.24787 11.0281 2.28693 11.1243C2.326 11.2204 2.3445 11.3239 2.3412 11.4279C2.33424 11.976 2.33752 12.5244 2.3412 13.0725C2.34489 14.1336 3.08894 14.8925 4.1329 14.8996C4.63111 14.9034 5.12974 14.9163 5.62673 14.895C5.93443 14.8817 6.15403 14.9913 6.36422 15.2101C6.7891 15.6502 7.18611 16.1237 7.66876 16.5C8.03751 16.7863 8.46279 16.9168 8.93356 16.8263C8.90945 16.8305 8.88508 16.8329 8.86063 16.8334C8.88506 16.8327 8.90942 16.8303 8.93356 16.8263C9.23402 16.7917 9.51769 16.6674 9.7489 16.4692C10.2213 16.0582 10.6368 15.5869 11.0776 15.1422C11.2415 14.9755 11.4226 14.8921 11.6594 14.8955C12.1847 14.9059 12.7103 14.9013 13.236 14.898C14.2873 14.8909 15.0252 14.1423 15.033 13.0746C15.0367 12.5399 15.042 12.0052 15.0302 11.4709C15.0254 11.3532 15.0461 11.2359 15.0907 11.1273C15.1352 11.0186 15.2027 10.9212 15.2883 10.8419C15.657 10.4723 16.0221 10.0963 16.3888 9.72292C17.1394 8.95648 17.1394 7.88996 16.39 7.12602Z" fill="#2C96FF"/>
<path d="M12.7448 6.44743C12.7598 6.6813 12.6604 6.90365 12.4952 7.09626C11.3672 8.41152 10.2377 9.72529 9.10672 11.0376C8.69732 11.5113 8.16913 11.5604 7.68115 11.1673C6.87004 10.5148 6.06551 9.85332 5.26098 9.19222C5.07701 9.0391 4.95435 8.8229 4.91606 8.58426C4.87777 8.34562 4.92648 8.10097 5.05303 7.8963C5.17959 7.69162 5.37527 7.54101 5.60332 7.47276C5.83136 7.40452 6.07605 7.42335 6.2914 7.52571C6.47783 7.61197 6.62586 7.75103 6.78268 7.87745C7.17379 8.19239 7.56089 8.51253 7.94945 8.83081C8.16036 9.00333 8.24662 9.00185 8.42464 8.79362C9.23563 7.85391 10.0443 6.91196 10.8507 5.96778C11.1 5.67589 11.3544 5.4145 11.7765 5.42306C12.3252 5.43458 12.7463 5.85957 12.7448 6.44743Z" fill="#F8FAFB"/>
</svg>
